%TF.GenerationSoftware,KiCad,Pcbnew,9.0.2*%
%TF.CreationDate,2025-07-04T04:15:59-07:00*%
%TF.ProjectId,HackPad_Dristi,4861636b-5061-4645-9f44-72697374692e,rev?*%
%TF.SameCoordinates,Original*%
%TF.FileFunction,Drillmap*%
%TF.FilePolarity,Positive*%
%FSLAX45Y45*%
G04 Gerber Fmt 4.5, Leading zero omitted, Abs format (unit mm)*
G04 Created by KiCad (PCBNEW 9.0.2) date 2025-07-04 04:15:59*
%MOMM*%
%LPD*%
G01*
G04 APERTURE LIST*
%ADD10C,0.050000*%
%ADD11C,0.200000*%
%ADD12C,0.100000*%
%ADD13C,0.150000*%
%ADD14C,0.260000*%
%ADD15C,0.170000*%
%ADD16C,0.400000*%
G04 APERTURE END LIST*
D10*
X17760000Y-5200000D02*
X17760000Y-5460000D01*
X21800000Y-5200000D02*
X21800000Y-11400000D01*
X19540000Y-5200000D02*
X21800000Y-5200000D01*
X17760000Y-5460000D02*
X19540000Y-5460000D01*
X9400000Y-11400000D02*
X9400000Y-5200000D01*
X19540000Y-5460000D02*
X19540000Y-5200000D01*
X21800000Y-11400000D02*
X9400000Y-11400000D01*
X9400000Y-5200000D02*
X17760000Y-5200000D01*
D11*
D12*
X16425000Y-7285000D02*
X16455000Y-7315000D01*
X16455000Y-7285000D02*
X16425000Y-7315000D01*
X16785000Y-6895000D02*
X16815000Y-6925000D01*
X16815000Y-6895000D02*
X16785000Y-6925000D01*
X16825000Y-7285000D02*
X16855000Y-7315000D01*
X16855000Y-7285000D02*
X16825000Y-7315000D01*
X17535000Y-7795000D02*
X17565000Y-7825000D01*
X17565000Y-7795000D02*
X17535000Y-7825000D01*
X18195000Y-7035000D02*
X18225000Y-7065000D01*
X18225000Y-7035000D02*
X18195000Y-7065000D01*
X18925000Y-6905000D02*
X18955000Y-6935000D01*
X18955000Y-6905000D02*
X18925000Y-6935000D01*
X19725000Y-6075000D02*
X19755000Y-6105000D01*
X19755000Y-6075000D02*
X19725000Y-6105000D01*
X19795000Y-5755000D02*
X19825000Y-5785000D01*
X19825000Y-5755000D02*
X19795000Y-5785000D01*
X11620000Y-6257431D02*
G75*
G02*
X11540000Y-6257431I-40000J0D01*
G01*
X11540000Y-6257431D02*
G75*
G02*
X11620000Y-6257431I40000J0D01*
G01*
X11620000Y-6511431D02*
G75*
G02*
X11540000Y-6511431I-40000J0D01*
G01*
X11540000Y-6511431D02*
G75*
G02*
X11620000Y-6511431I40000J0D01*
G01*
X11620000Y-8177431D02*
G75*
G02*
X11540000Y-8177431I-40000J0D01*
G01*
X11540000Y-8177431D02*
G75*
G02*
X11620000Y-8177431I40000J0D01*
G01*
X11620000Y-8431432D02*
G75*
G02*
X11540000Y-8431432I-40000J0D01*
G01*
X11540000Y-8431432D02*
G75*
G02*
X11620000Y-8431432I40000J0D01*
G01*
X11630000Y-9997432D02*
G75*
G02*
X11550000Y-9997432I-40000J0D01*
G01*
X11550000Y-9997432D02*
G75*
G02*
X11630000Y-9997432I40000J0D01*
G01*
X11630000Y-10251432D02*
G75*
G02*
X11550000Y-10251432I-40000J0D01*
G01*
X11550000Y-10251432D02*
G75*
G02*
X11630000Y-10251432I40000J0D01*
G01*
X13550000Y-8182431D02*
G75*
G02*
X13470000Y-8182431I-40000J0D01*
G01*
X13470000Y-8182431D02*
G75*
G02*
X13550000Y-8182431I40000J0D01*
G01*
X13550000Y-8436432D02*
G75*
G02*
X13470000Y-8436432I-40000J0D01*
G01*
X13470000Y-8436432D02*
G75*
G02*
X13550000Y-8436432I40000J0D01*
G01*
X13550000Y-9967432D02*
G75*
G02*
X13470000Y-9967432I-40000J0D01*
G01*
X13470000Y-9967432D02*
G75*
G02*
X13550000Y-9967432I40000J0D01*
G01*
X13550000Y-10221432D02*
G75*
G02*
X13470000Y-10221432I-40000J0D01*
G01*
X13470000Y-10221432D02*
G75*
G02*
X13550000Y-10221432I40000J0D01*
G01*
X13560000Y-6280000D02*
G75*
G02*
X13480000Y-6280000I-40000J0D01*
G01*
X13480000Y-6280000D02*
G75*
G02*
X13560000Y-6280000I40000J0D01*
G01*
X13560000Y-6534000D02*
G75*
G02*
X13480000Y-6534000I-40000J0D01*
G01*
X13480000Y-6534000D02*
G75*
G02*
X13560000Y-6534000I40000J0D01*
G01*
X15470000Y-8217431D02*
G75*
G02*
X15390000Y-8217431I-40000J0D01*
G01*
X15390000Y-8217431D02*
G75*
G02*
X15470000Y-8217431I40000J0D01*
G01*
X15470000Y-8471432D02*
G75*
G02*
X15390000Y-8471432I-40000J0D01*
G01*
X15390000Y-8471432D02*
G75*
G02*
X15470000Y-8471432I40000J0D01*
G01*
X15470000Y-9967432D02*
G75*
G02*
X15390000Y-9967432I-40000J0D01*
G01*
X15390000Y-9967432D02*
G75*
G02*
X15470000Y-9967432I40000J0D01*
G01*
X15470000Y-10221432D02*
G75*
G02*
X15390000Y-10221432I-40000J0D01*
G01*
X15390000Y-10221432D02*
G75*
G02*
X15470000Y-10221432I40000J0D01*
G01*
X15471000Y-6257431D02*
G75*
G02*
X15391000Y-6257431I-40000J0D01*
G01*
X15391000Y-6257431D02*
G75*
G02*
X15471000Y-6257431I40000J0D01*
G01*
X15471000Y-6511431D02*
G75*
G02*
X15391000Y-6511431I-40000J0D01*
G01*
X15391000Y-6511431D02*
G75*
G02*
X15471000Y-6511431I40000J0D01*
G01*
X17380000Y-7600000D02*
G75*
G02*
X17300000Y-7600000I-40000J0D01*
G01*
X17300000Y-7600000D02*
G75*
G02*
X17380000Y-7600000I40000J0D01*
G01*
X17380000Y-7854000D02*
G75*
G02*
X17300000Y-7854000I-40000J0D01*
G01*
X17300000Y-7854000D02*
G75*
G02*
X17380000Y-7854000I40000J0D01*
G01*
X17389000Y-6260000D02*
G75*
G02*
X17309000Y-6260000I-40000J0D01*
G01*
X17309000Y-6260000D02*
G75*
G02*
X17389000Y-6260000I40000J0D01*
G01*
X17389000Y-6514000D02*
G75*
G02*
X17309000Y-6514000I-40000J0D01*
G01*
X17309000Y-6514000D02*
G75*
G02*
X17389000Y-6514000I40000J0D01*
G01*
X17390000Y-10101432D02*
G75*
G02*
X17310000Y-10101432I-40000J0D01*
G01*
X17310000Y-10101432D02*
G75*
G02*
X17390000Y-10101432I40000J0D01*
G01*
X17390000Y-10355432D02*
G75*
G02*
X17310000Y-10355432I-40000J0D01*
G01*
X17310000Y-10355432D02*
G75*
G02*
X17390000Y-10355432I40000J0D01*
G01*
X17888000Y-5710400D02*
X17888000Y-5799300D01*
X17843550Y-5754850D02*
X17932450Y-5754850D01*
X17888000Y-5964400D02*
X17888000Y-6053300D01*
X17843550Y-6008850D02*
X17932450Y-6008850D01*
X17888000Y-6218400D02*
X17888000Y-6307300D01*
X17843550Y-6262850D02*
X17932450Y-6262850D01*
X17888000Y-6472400D02*
X17888000Y-6561300D01*
X17843550Y-6516850D02*
X17932450Y-6516850D01*
X17888000Y-6726400D02*
X17888000Y-6815300D01*
X17843550Y-6770850D02*
X17932450Y-6770850D01*
X17888000Y-6980400D02*
X17888000Y-7069300D01*
X17843550Y-7024850D02*
X17932450Y-7024850D01*
X17888000Y-7234400D02*
X17888000Y-7323300D01*
X17843550Y-7278850D02*
X17932450Y-7278850D01*
X19412000Y-5710400D02*
X19412000Y-5799300D01*
X19367550Y-5754850D02*
X19456450Y-5754850D01*
X19412000Y-5964400D02*
X19412000Y-6053300D01*
X19367550Y-6008850D02*
X19456450Y-6008850D01*
X19412000Y-6218400D02*
X19412000Y-6307300D01*
X19367550Y-6262850D02*
X19456450Y-6262850D01*
X19412000Y-6472400D02*
X19412000Y-6561300D01*
X19367550Y-6516850D02*
X19456450Y-6516850D01*
X19412000Y-6726400D02*
X19412000Y-6815300D01*
X19367550Y-6770850D02*
X19456450Y-6770850D01*
X19412000Y-6980400D02*
X19412000Y-7069300D01*
X19367550Y-7024850D02*
X19456450Y-7024850D01*
X19412000Y-7234400D02*
X19412000Y-7323300D01*
X19367550Y-7278850D02*
X19456450Y-7278850D01*
X17825356Y-8185356D02*
X17825356Y-8114644D01*
X17754644Y-8114644D01*
X17754644Y-8185356D01*
X17825356Y-8185356D01*
X17825356Y-8439356D02*
X17825356Y-8368644D01*
X17754644Y-8368644D01*
X17754644Y-8439356D01*
X17825356Y-8439356D01*
X17825356Y-8693356D02*
X17825356Y-8622644D01*
X17754644Y-8622644D01*
X17754644Y-8693356D01*
X17825356Y-8693356D01*
X17825356Y-8947356D02*
X17825356Y-8876644D01*
X17754644Y-8876644D01*
X17754644Y-8947356D01*
X17825356Y-8947356D01*
X20035356Y-6295356D02*
X20035356Y-6224644D01*
X19964644Y-6224644D01*
X19964644Y-6295356D01*
X20035356Y-6295356D01*
X20035356Y-6545356D02*
X20035356Y-6474644D01*
X19964644Y-6474644D01*
X19964644Y-6545356D01*
X20035356Y-6545356D01*
X20035356Y-6795356D02*
X20035356Y-6724644D01*
X19964644Y-6724644D01*
X19964644Y-6795356D01*
X20035356Y-6795356D01*
X21485356Y-6295356D02*
X21485356Y-6224644D01*
X21414644Y-6224644D01*
X21414644Y-6295356D01*
X21485356Y-6295356D01*
X21485356Y-6795356D02*
X21485356Y-6724644D01*
X21414644Y-6724644D01*
X21414644Y-6795356D01*
X21485356Y-6795356D01*
D13*
X10250000Y-6226000D02*
X10325000Y-6151000D01*
X10250000Y-6076000D01*
X10175000Y-6151000D01*
X10250000Y-6226000D01*
X10250000Y-8146000D02*
X10325000Y-8071000D01*
X10250000Y-7996000D01*
X10175000Y-8071000D01*
X10250000Y-8146000D01*
X10250000Y-10066000D02*
X10325000Y-9991000D01*
X10250000Y-9916000D01*
X10175000Y-9991000D01*
X10250000Y-10066000D01*
X10885000Y-5972000D02*
X10960000Y-5897000D01*
X10885000Y-5822000D01*
X10810000Y-5897000D01*
X10885000Y-5972000D01*
X10885000Y-7892000D02*
X10960000Y-7817000D01*
X10885000Y-7742000D01*
X10810000Y-7817000D01*
X10885000Y-7892000D01*
X10885000Y-9812000D02*
X10960000Y-9737000D01*
X10885000Y-9662000D01*
X10810000Y-9737000D01*
X10885000Y-9812000D01*
X12170000Y-6226000D02*
X12245000Y-6151000D01*
X12170000Y-6076000D01*
X12095000Y-6151000D01*
X12170000Y-6226000D01*
X12170000Y-8146000D02*
X12245000Y-8071000D01*
X12170000Y-7996000D01*
X12095000Y-8071000D01*
X12170000Y-8146000D01*
X12170000Y-10066000D02*
X12245000Y-9991000D01*
X12170000Y-9916000D01*
X12095000Y-9991000D01*
X12170000Y-10066000D01*
X12805000Y-5972000D02*
X12880000Y-5897000D01*
X12805000Y-5822000D01*
X12730000Y-5897000D01*
X12805000Y-5972000D01*
X12805000Y-7892000D02*
X12880000Y-7817000D01*
X12805000Y-7742000D01*
X12730000Y-7817000D01*
X12805000Y-7892000D01*
X12805000Y-9812000D02*
X12880000Y-9737000D01*
X12805000Y-9662000D01*
X12730000Y-9737000D01*
X12805000Y-9812000D01*
X14090000Y-6226000D02*
X14165000Y-6151000D01*
X14090000Y-6076000D01*
X14015000Y-6151000D01*
X14090000Y-6226000D01*
X14090000Y-8146000D02*
X14165000Y-8071000D01*
X14090000Y-7996000D01*
X14015000Y-8071000D01*
X14090000Y-8146000D01*
X14090000Y-10066000D02*
X14165000Y-9991000D01*
X14090000Y-9916000D01*
X14015000Y-9991000D01*
X14090000Y-10066000D01*
X14725000Y-5972000D02*
X14800000Y-5897000D01*
X14725000Y-5822000D01*
X14650000Y-5897000D01*
X14725000Y-5972000D01*
X14725000Y-7892000D02*
X14800000Y-7817000D01*
X14725000Y-7742000D01*
X14650000Y-7817000D01*
X14725000Y-7892000D01*
X14725000Y-9812000D02*
X14800000Y-9737000D01*
X14725000Y-9662000D01*
X14650000Y-9737000D01*
X14725000Y-9812000D01*
X16010000Y-6226000D02*
X16085000Y-6151000D01*
X16010000Y-6076000D01*
X15935000Y-6151000D01*
X16010000Y-6226000D01*
X16010000Y-8146000D02*
X16085000Y-8071000D01*
X16010000Y-7996000D01*
X15935000Y-8071000D01*
X16010000Y-8146000D01*
X16010000Y-10066000D02*
X16085000Y-9991000D01*
X16010000Y-9916000D01*
X15935000Y-9991000D01*
X16010000Y-10066000D01*
X16645000Y-5972000D02*
X16720000Y-5897000D01*
X16645000Y-5822000D01*
X16570000Y-5897000D01*
X16645000Y-5972000D01*
X16645000Y-7892000D02*
X16720000Y-7817000D01*
X16645000Y-7742000D01*
X16570000Y-7817000D01*
X16645000Y-7892000D01*
X16645000Y-9812000D02*
X16720000Y-9737000D01*
X16645000Y-9662000D01*
X16570000Y-9737000D01*
X16645000Y-9812000D01*
D14*
X20620000Y-5820000D02*
X20880000Y-6080000D01*
X20880000Y-5820000D02*
X20620000Y-6080000D01*
X20880000Y-5950000D02*
G75*
G02*
X20620000Y-5950000I-130000J0D01*
G01*
X20620000Y-5950000D02*
G75*
G02*
X20880000Y-5950000I130000J0D01*
G01*
X20620000Y-6940000D02*
X20880000Y-7200000D01*
X20880000Y-6940000D02*
X20620000Y-7200000D01*
X20880000Y-7070000D02*
G75*
G02*
X20620000Y-7070000I-130000J0D01*
G01*
X20620000Y-7070000D02*
G75*
G02*
X20880000Y-7070000I130000J0D01*
G01*
D15*
X10038000Y-6320000D02*
X10208000Y-6490000D01*
X10208000Y-6320000D02*
X10038000Y-6490000D01*
X10123000Y-6320000D02*
X10123000Y-6490000D01*
X10038000Y-6405000D02*
X10208000Y-6405000D01*
X10038000Y-8240000D02*
X10208000Y-8410000D01*
X10208000Y-8240000D02*
X10038000Y-8410000D01*
X10123000Y-8240000D02*
X10123000Y-8410000D01*
X10038000Y-8325000D02*
X10208000Y-8325000D01*
X10038000Y-10160000D02*
X10208000Y-10330000D01*
X10208000Y-10160000D02*
X10038000Y-10330000D01*
X10123000Y-10160000D02*
X10123000Y-10330000D01*
X10038000Y-10245000D02*
X10208000Y-10245000D01*
X11054000Y-6320000D02*
X11224000Y-6490000D01*
X11224000Y-6320000D02*
X11054000Y-6490000D01*
X11139000Y-6320000D02*
X11139000Y-6490000D01*
X11054000Y-6405000D02*
X11224000Y-6405000D01*
X11054000Y-8240000D02*
X11224000Y-8410000D01*
X11224000Y-8240000D02*
X11054000Y-8410000D01*
X11139000Y-8240000D02*
X11139000Y-8410000D01*
X11054000Y-8325000D02*
X11224000Y-8325000D01*
X11054000Y-10160000D02*
X11224000Y-10330000D01*
X11224000Y-10160000D02*
X11054000Y-10330000D01*
X11139000Y-10160000D02*
X11139000Y-10330000D01*
X11054000Y-10245000D02*
X11224000Y-10245000D01*
X11958000Y-6320000D02*
X12128000Y-6490000D01*
X12128000Y-6320000D02*
X11958000Y-6490000D01*
X12043000Y-6320000D02*
X12043000Y-6490000D01*
X11958000Y-6405000D02*
X12128000Y-6405000D01*
X11958000Y-8240000D02*
X12128000Y-8410000D01*
X12128000Y-8240000D02*
X11958000Y-8410000D01*
X12043000Y-8240000D02*
X12043000Y-8410000D01*
X11958000Y-8325000D02*
X12128000Y-8325000D01*
X11958000Y-10160000D02*
X12128000Y-10330000D01*
X12128000Y-10160000D02*
X11958000Y-10330000D01*
X12043000Y-10160000D02*
X12043000Y-10330000D01*
X11958000Y-10245000D02*
X12128000Y-10245000D01*
X12974000Y-6320000D02*
X13144000Y-6490000D01*
X13144000Y-6320000D02*
X12974000Y-6490000D01*
X13059000Y-6320000D02*
X13059000Y-6490000D01*
X12974000Y-6405000D02*
X13144000Y-6405000D01*
X12974000Y-8240000D02*
X13144000Y-8410000D01*
X13144000Y-8240000D02*
X12974000Y-8410000D01*
X13059000Y-8240000D02*
X13059000Y-8410000D01*
X12974000Y-8325000D02*
X13144000Y-8325000D01*
X12974000Y-10160000D02*
X13144000Y-10330000D01*
X13144000Y-10160000D02*
X12974000Y-10330000D01*
X13059000Y-10160000D02*
X13059000Y-10330000D01*
X12974000Y-10245000D02*
X13144000Y-10245000D01*
X13878000Y-6320000D02*
X14048000Y-6490000D01*
X14048000Y-6320000D02*
X13878000Y-6490000D01*
X13963000Y-6320000D02*
X13963000Y-6490000D01*
X13878000Y-6405000D02*
X14048000Y-6405000D01*
X13878000Y-8240000D02*
X14048000Y-8410000D01*
X14048000Y-8240000D02*
X13878000Y-8410000D01*
X13963000Y-8240000D02*
X13963000Y-8410000D01*
X13878000Y-8325000D02*
X14048000Y-8325000D01*
X13878000Y-10160000D02*
X14048000Y-10330000D01*
X14048000Y-10160000D02*
X13878000Y-10330000D01*
X13963000Y-10160000D02*
X13963000Y-10330000D01*
X13878000Y-10245000D02*
X14048000Y-10245000D01*
X14894000Y-6320000D02*
X15064000Y-6490000D01*
X15064000Y-6320000D02*
X14894000Y-6490000D01*
X14979000Y-6320000D02*
X14979000Y-6490000D01*
X14894000Y-6405000D02*
X15064000Y-6405000D01*
X14894000Y-8240000D02*
X15064000Y-8410000D01*
X15064000Y-8240000D02*
X14894000Y-8410000D01*
X14979000Y-8240000D02*
X14979000Y-8410000D01*
X14894000Y-8325000D02*
X15064000Y-8325000D01*
X14894000Y-10160000D02*
X15064000Y-10330000D01*
X15064000Y-10160000D02*
X14894000Y-10330000D01*
X14979000Y-10160000D02*
X14979000Y-10330000D01*
X14894000Y-10245000D02*
X15064000Y-10245000D01*
X15798000Y-6320000D02*
X15968000Y-6490000D01*
X15968000Y-6320000D02*
X15798000Y-6490000D01*
X15883000Y-6320000D02*
X15883000Y-6490000D01*
X15798000Y-6405000D02*
X15968000Y-6405000D01*
X15798000Y-8240000D02*
X15968000Y-8410000D01*
X15968000Y-8240000D02*
X15798000Y-8410000D01*
X15883000Y-8240000D02*
X15883000Y-8410000D01*
X15798000Y-8325000D02*
X15968000Y-8325000D01*
X15798000Y-10160000D02*
X15968000Y-10330000D01*
X15968000Y-10160000D02*
X15798000Y-10330000D01*
X15883000Y-10160000D02*
X15883000Y-10330000D01*
X15798000Y-10245000D02*
X15968000Y-10245000D01*
X16814000Y-6320000D02*
X16984000Y-6490000D01*
X16984000Y-6320000D02*
X16814000Y-6490000D01*
X16899000Y-6320000D02*
X16899000Y-6490000D01*
X16814000Y-6405000D02*
X16984000Y-6405000D01*
X16814000Y-8240000D02*
X16984000Y-8410000D01*
X16984000Y-8240000D02*
X16814000Y-8410000D01*
X16899000Y-8240000D02*
X16899000Y-8410000D01*
X16814000Y-8325000D02*
X16984000Y-8325000D01*
X16814000Y-10160000D02*
X16984000Y-10330000D01*
X16984000Y-10160000D02*
X16814000Y-10330000D01*
X16899000Y-10160000D02*
X16899000Y-10330000D01*
X16814000Y-10245000D02*
X16984000Y-10245000D01*
D16*
X10431000Y-6205000D02*
X10831000Y-6605000D01*
X10831000Y-6205000D02*
X10431000Y-6605000D01*
X10772423Y-6546423D02*
X10772423Y-6263577D01*
X10489577Y-6263577D01*
X10489577Y-6546423D01*
X10772423Y-6546423D01*
X10431000Y-8125000D02*
X10831000Y-8525000D01*
X10831000Y-8125000D02*
X10431000Y-8525000D01*
X10772423Y-8466423D02*
X10772423Y-8183577D01*
X10489577Y-8183577D01*
X10489577Y-8466423D01*
X10772423Y-8466423D01*
X10431000Y-10045000D02*
X10831000Y-10445000D01*
X10831000Y-10045000D02*
X10431000Y-10445000D01*
X10772423Y-10386423D02*
X10772423Y-10103577D01*
X10489577Y-10103577D01*
X10489577Y-10386423D01*
X10772423Y-10386423D01*
X12351000Y-6205000D02*
X12751000Y-6605000D01*
X12751000Y-6205000D02*
X12351000Y-6605000D01*
X12692423Y-6546423D02*
X12692423Y-6263577D01*
X12409577Y-6263577D01*
X12409577Y-6546423D01*
X12692423Y-6546423D01*
X12351000Y-8125000D02*
X12751000Y-8525000D01*
X12751000Y-8125000D02*
X12351000Y-8525000D01*
X12692423Y-8466423D02*
X12692423Y-8183577D01*
X12409577Y-8183577D01*
X12409577Y-8466423D01*
X12692423Y-8466423D01*
X12351000Y-10045000D02*
X12751000Y-10445000D01*
X12751000Y-10045000D02*
X12351000Y-10445000D01*
X12692423Y-10386423D02*
X12692423Y-10103577D01*
X12409577Y-10103577D01*
X12409577Y-10386423D01*
X12692423Y-10386423D01*
X14271000Y-6205000D02*
X14671000Y-6605000D01*
X14671000Y-6205000D02*
X14271000Y-6605000D01*
X14612423Y-6546423D02*
X14612423Y-6263577D01*
X14329577Y-6263577D01*
X14329577Y-6546423D01*
X14612423Y-6546423D01*
X14271000Y-8125000D02*
X14671000Y-8525000D01*
X14671000Y-8125000D02*
X14271000Y-8525000D01*
X14612423Y-8466423D02*
X14612423Y-8183577D01*
X14329577Y-8183577D01*
X14329577Y-8466423D01*
X14612423Y-8466423D01*
X14271000Y-10045000D02*
X14671000Y-10445000D01*
X14671000Y-10045000D02*
X14271000Y-10445000D01*
X14612423Y-10386423D02*
X14612423Y-10103577D01*
X14329577Y-10103577D01*
X14329577Y-10386423D01*
X14612423Y-10386423D01*
X16191000Y-6205000D02*
X16591000Y-6605000D01*
X16591000Y-6205000D02*
X16191000Y-6605000D01*
X16532423Y-6546423D02*
X16532423Y-6263577D01*
X16249577Y-6263577D01*
X16249577Y-6546423D01*
X16532423Y-6546423D01*
X16191000Y-8125000D02*
X16591000Y-8525000D01*
X16591000Y-8125000D02*
X16191000Y-8525000D01*
X16532423Y-8466423D02*
X16532423Y-8183577D01*
X16249577Y-8183577D01*
X16249577Y-8466423D01*
X16532423Y-8466423D01*
X16191000Y-10045000D02*
X16591000Y-10445000D01*
X16591000Y-10045000D02*
X16191000Y-10445000D01*
X16532423Y-10386423D02*
X16532423Y-10103577D01*
X16249577Y-10103577D01*
X16249577Y-10386423D01*
X16532423Y-10386423D01*
D11*
X9658277Y-11713984D02*
X9658277Y-11513984D01*
X9658277Y-11513984D02*
X9705896Y-11513984D01*
X9705896Y-11513984D02*
X9734467Y-11523508D01*
X9734467Y-11523508D02*
X9753515Y-11542555D01*
X9753515Y-11542555D02*
X9763039Y-11561603D01*
X9763039Y-11561603D02*
X9772563Y-11599698D01*
X9772563Y-11599698D02*
X9772563Y-11628269D01*
X9772563Y-11628269D02*
X9763039Y-11666365D01*
X9763039Y-11666365D02*
X9753515Y-11685412D01*
X9753515Y-11685412D02*
X9734467Y-11704460D01*
X9734467Y-11704460D02*
X9705896Y-11713984D01*
X9705896Y-11713984D02*
X9658277Y-11713984D01*
X9858277Y-11713984D02*
X9858277Y-11580650D01*
X9858277Y-11618746D02*
X9867801Y-11599698D01*
X9867801Y-11599698D02*
X9877324Y-11590174D01*
X9877324Y-11590174D02*
X9896372Y-11580650D01*
X9896372Y-11580650D02*
X9915420Y-11580650D01*
X9982086Y-11713984D02*
X9982086Y-11580650D01*
X9982086Y-11513984D02*
X9972563Y-11523508D01*
X9972563Y-11523508D02*
X9982086Y-11533031D01*
X9982086Y-11533031D02*
X9991610Y-11523508D01*
X9991610Y-11523508D02*
X9982086Y-11513984D01*
X9982086Y-11513984D02*
X9982086Y-11533031D01*
X10105896Y-11713984D02*
X10086848Y-11704460D01*
X10086848Y-11704460D02*
X10077324Y-11685412D01*
X10077324Y-11685412D02*
X10077324Y-11513984D01*
X10210658Y-11713984D02*
X10191610Y-11704460D01*
X10191610Y-11704460D02*
X10182086Y-11685412D01*
X10182086Y-11685412D02*
X10182086Y-11513984D01*
X10439229Y-11713984D02*
X10439229Y-11513984D01*
X10439229Y-11513984D02*
X10505896Y-11656841D01*
X10505896Y-11656841D02*
X10572563Y-11513984D01*
X10572563Y-11513984D02*
X10572563Y-11713984D01*
X10753515Y-11713984D02*
X10753515Y-11609222D01*
X10753515Y-11609222D02*
X10743991Y-11590174D01*
X10743991Y-11590174D02*
X10724944Y-11580650D01*
X10724944Y-11580650D02*
X10686848Y-11580650D01*
X10686848Y-11580650D02*
X10667801Y-11590174D01*
X10753515Y-11704460D02*
X10734467Y-11713984D01*
X10734467Y-11713984D02*
X10686848Y-11713984D01*
X10686848Y-11713984D02*
X10667801Y-11704460D01*
X10667801Y-11704460D02*
X10658277Y-11685412D01*
X10658277Y-11685412D02*
X10658277Y-11666365D01*
X10658277Y-11666365D02*
X10667801Y-11647317D01*
X10667801Y-11647317D02*
X10686848Y-11637793D01*
X10686848Y-11637793D02*
X10734467Y-11637793D01*
X10734467Y-11637793D02*
X10753515Y-11628269D01*
X10848753Y-11580650D02*
X10848753Y-11780650D01*
X10848753Y-11590174D02*
X10867801Y-11580650D01*
X10867801Y-11580650D02*
X10905896Y-11580650D01*
X10905896Y-11580650D02*
X10924944Y-11590174D01*
X10924944Y-11590174D02*
X10934467Y-11599698D01*
X10934467Y-11599698D02*
X10943991Y-11618746D01*
X10943991Y-11618746D02*
X10943991Y-11675888D01*
X10943991Y-11675888D02*
X10934467Y-11694936D01*
X10934467Y-11694936D02*
X10924944Y-11704460D01*
X10924944Y-11704460D02*
X10905896Y-11713984D01*
X10905896Y-11713984D02*
X10867801Y-11713984D01*
X10867801Y-11713984D02*
X10848753Y-11704460D01*
X11029705Y-11694936D02*
X11039229Y-11704460D01*
X11039229Y-11704460D02*
X11029705Y-11713984D01*
X11029705Y-11713984D02*
X11020182Y-11704460D01*
X11020182Y-11704460D02*
X11029705Y-11694936D01*
X11029705Y-11694936D02*
X11029705Y-11713984D01*
X11029705Y-11590174D02*
X11039229Y-11599698D01*
X11039229Y-11599698D02*
X11029705Y-11609222D01*
X11029705Y-11609222D02*
X11020182Y-11599698D01*
X11020182Y-11599698D02*
X11029705Y-11590174D01*
X11029705Y-11590174D02*
X11029705Y-11609222D01*
D12*
X9367500Y-12027500D02*
X9397500Y-12057500D01*
X9397500Y-12027500D02*
X9367500Y-12057500D01*
D11*
X9696372Y-11933984D02*
X9715420Y-11933984D01*
X9715420Y-11933984D02*
X9734467Y-11943508D01*
X9734467Y-11943508D02*
X9743991Y-11953031D01*
X9743991Y-11953031D02*
X9753515Y-11972079D01*
X9753515Y-11972079D02*
X9763039Y-12010174D01*
X9763039Y-12010174D02*
X9763039Y-12057793D01*
X9763039Y-12057793D02*
X9753515Y-12095888D01*
X9753515Y-12095888D02*
X9743991Y-12114936D01*
X9743991Y-12114936D02*
X9734467Y-12124460D01*
X9734467Y-12124460D02*
X9715420Y-12133984D01*
X9715420Y-12133984D02*
X9696372Y-12133984D01*
X9696372Y-12133984D02*
X9677324Y-12124460D01*
X9677324Y-12124460D02*
X9667801Y-12114936D01*
X9667801Y-12114936D02*
X9658277Y-12095888D01*
X9658277Y-12095888D02*
X9648753Y-12057793D01*
X9648753Y-12057793D02*
X9648753Y-12010174D01*
X9648753Y-12010174D02*
X9658277Y-11972079D01*
X9658277Y-11972079D02*
X9667801Y-11953031D01*
X9667801Y-11953031D02*
X9677324Y-11943508D01*
X9677324Y-11943508D02*
X9696372Y-11933984D01*
X9848753Y-12114936D02*
X9858277Y-12124460D01*
X9858277Y-12124460D02*
X9848753Y-12133984D01*
X9848753Y-12133984D02*
X9839229Y-12124460D01*
X9839229Y-12124460D02*
X9848753Y-12114936D01*
X9848753Y-12114936D02*
X9848753Y-12133984D01*
X9924944Y-11933984D02*
X10048753Y-11933984D01*
X10048753Y-11933984D02*
X9982086Y-12010174D01*
X9982086Y-12010174D02*
X10010658Y-12010174D01*
X10010658Y-12010174D02*
X10029705Y-12019698D01*
X10029705Y-12019698D02*
X10039229Y-12029222D01*
X10039229Y-12029222D02*
X10048753Y-12048269D01*
X10048753Y-12048269D02*
X10048753Y-12095888D01*
X10048753Y-12095888D02*
X10039229Y-12114936D01*
X10039229Y-12114936D02*
X10029705Y-12124460D01*
X10029705Y-12124460D02*
X10010658Y-12133984D01*
X10010658Y-12133984D02*
X9953515Y-12133984D01*
X9953515Y-12133984D02*
X9934467Y-12124460D01*
X9934467Y-12124460D02*
X9924944Y-12114936D01*
X10172563Y-11933984D02*
X10191610Y-11933984D01*
X10191610Y-11933984D02*
X10210658Y-11943508D01*
X10210658Y-11943508D02*
X10220182Y-11953031D01*
X10220182Y-11953031D02*
X10229705Y-11972079D01*
X10229705Y-11972079D02*
X10239229Y-12010174D01*
X10239229Y-12010174D02*
X10239229Y-12057793D01*
X10239229Y-12057793D02*
X10229705Y-12095888D01*
X10229705Y-12095888D02*
X10220182Y-12114936D01*
X10220182Y-12114936D02*
X10210658Y-12124460D01*
X10210658Y-12124460D02*
X10191610Y-12133984D01*
X10191610Y-12133984D02*
X10172563Y-12133984D01*
X10172563Y-12133984D02*
X10153515Y-12124460D01*
X10153515Y-12124460D02*
X10143991Y-12114936D01*
X10143991Y-12114936D02*
X10134467Y-12095888D01*
X10134467Y-12095888D02*
X10124944Y-12057793D01*
X10124944Y-12057793D02*
X10124944Y-12010174D01*
X10124944Y-12010174D02*
X10134467Y-11972079D01*
X10134467Y-11972079D02*
X10143991Y-11953031D01*
X10143991Y-11953031D02*
X10153515Y-11943508D01*
X10153515Y-11943508D02*
X10172563Y-11933984D01*
X10363039Y-11933984D02*
X10382086Y-11933984D01*
X10382086Y-11933984D02*
X10401134Y-11943508D01*
X10401134Y-11943508D02*
X10410658Y-11953031D01*
X10410658Y-11953031D02*
X10420182Y-11972079D01*
X10420182Y-11972079D02*
X10429705Y-12010174D01*
X10429705Y-12010174D02*
X10429705Y-12057793D01*
X10429705Y-12057793D02*
X10420182Y-12095888D01*
X10420182Y-12095888D02*
X10410658Y-12114936D01*
X10410658Y-12114936D02*
X10401134Y-12124460D01*
X10401134Y-12124460D02*
X10382086Y-12133984D01*
X10382086Y-12133984D02*
X10363039Y-12133984D01*
X10363039Y-12133984D02*
X10343991Y-12124460D01*
X10343991Y-12124460D02*
X10334467Y-12114936D01*
X10334467Y-12114936D02*
X10324944Y-12095888D01*
X10324944Y-12095888D02*
X10315420Y-12057793D01*
X10315420Y-12057793D02*
X10315420Y-12010174D01*
X10315420Y-12010174D02*
X10324944Y-11972079D01*
X10324944Y-11972079D02*
X10334467Y-11953031D01*
X10334467Y-11953031D02*
X10343991Y-11943508D01*
X10343991Y-11943508D02*
X10363039Y-11933984D01*
X10515420Y-12133984D02*
X10515420Y-12000650D01*
X10515420Y-12019698D02*
X10524944Y-12010174D01*
X10524944Y-12010174D02*
X10543991Y-12000650D01*
X10543991Y-12000650D02*
X10572563Y-12000650D01*
X10572563Y-12000650D02*
X10591610Y-12010174D01*
X10591610Y-12010174D02*
X10601134Y-12029222D01*
X10601134Y-12029222D02*
X10601134Y-12133984D01*
X10601134Y-12029222D02*
X10610658Y-12010174D01*
X10610658Y-12010174D02*
X10629705Y-12000650D01*
X10629705Y-12000650D02*
X10658277Y-12000650D01*
X10658277Y-12000650D02*
X10677325Y-12010174D01*
X10677325Y-12010174D02*
X10686848Y-12029222D01*
X10686848Y-12029222D02*
X10686848Y-12133984D01*
X10782086Y-12133984D02*
X10782086Y-12000650D01*
X10782086Y-12019698D02*
X10791610Y-12010174D01*
X10791610Y-12010174D02*
X10810658Y-12000650D01*
X10810658Y-12000650D02*
X10839229Y-12000650D01*
X10839229Y-12000650D02*
X10858277Y-12010174D01*
X10858277Y-12010174D02*
X10867801Y-12029222D01*
X10867801Y-12029222D02*
X10867801Y-12133984D01*
X10867801Y-12029222D02*
X10877325Y-12010174D01*
X10877325Y-12010174D02*
X10896372Y-12000650D01*
X10896372Y-12000650D02*
X10924944Y-12000650D01*
X10924944Y-12000650D02*
X10943991Y-12010174D01*
X10943991Y-12010174D02*
X10953515Y-12029222D01*
X10953515Y-12029222D02*
X10953515Y-12133984D01*
X11343991Y-11924460D02*
X11172563Y-12181603D01*
X11601134Y-11933984D02*
X11620182Y-11933984D01*
X11620182Y-11933984D02*
X11639229Y-11943508D01*
X11639229Y-11943508D02*
X11648753Y-11953031D01*
X11648753Y-11953031D02*
X11658277Y-11972079D01*
X11658277Y-11972079D02*
X11667801Y-12010174D01*
X11667801Y-12010174D02*
X11667801Y-12057793D01*
X11667801Y-12057793D02*
X11658277Y-12095888D01*
X11658277Y-12095888D02*
X11648753Y-12114936D01*
X11648753Y-12114936D02*
X11639229Y-12124460D01*
X11639229Y-12124460D02*
X11620182Y-12133984D01*
X11620182Y-12133984D02*
X11601134Y-12133984D01*
X11601134Y-12133984D02*
X11582086Y-12124460D01*
X11582086Y-12124460D02*
X11572563Y-12114936D01*
X11572563Y-12114936D02*
X11563039Y-12095888D01*
X11563039Y-12095888D02*
X11553515Y-12057793D01*
X11553515Y-12057793D02*
X11553515Y-12010174D01*
X11553515Y-12010174D02*
X11563039Y-11972079D01*
X11563039Y-11972079D02*
X11572563Y-11953031D01*
X11572563Y-11953031D02*
X11582086Y-11943508D01*
X11582086Y-11943508D02*
X11601134Y-11933984D01*
X11753515Y-12114936D02*
X11763039Y-12124460D01*
X11763039Y-12124460D02*
X11753515Y-12133984D01*
X11753515Y-12133984D02*
X11743991Y-12124460D01*
X11743991Y-12124460D02*
X11753515Y-12114936D01*
X11753515Y-12114936D02*
X11753515Y-12133984D01*
X11886848Y-11933984D02*
X11905896Y-11933984D01*
X11905896Y-11933984D02*
X11924944Y-11943508D01*
X11924944Y-11943508D02*
X11934467Y-11953031D01*
X11934467Y-11953031D02*
X11943991Y-11972079D01*
X11943991Y-11972079D02*
X11953515Y-12010174D01*
X11953515Y-12010174D02*
X11953515Y-12057793D01*
X11953515Y-12057793D02*
X11943991Y-12095888D01*
X11943991Y-12095888D02*
X11934467Y-12114936D01*
X11934467Y-12114936D02*
X11924944Y-12124460D01*
X11924944Y-12124460D02*
X11905896Y-12133984D01*
X11905896Y-12133984D02*
X11886848Y-12133984D01*
X11886848Y-12133984D02*
X11867801Y-12124460D01*
X11867801Y-12124460D02*
X11858277Y-12114936D01*
X11858277Y-12114936D02*
X11848753Y-12095888D01*
X11848753Y-12095888D02*
X11839229Y-12057793D01*
X11839229Y-12057793D02*
X11839229Y-12010174D01*
X11839229Y-12010174D02*
X11848753Y-11972079D01*
X11848753Y-11972079D02*
X11858277Y-11953031D01*
X11858277Y-11953031D02*
X11867801Y-11943508D01*
X11867801Y-11943508D02*
X11886848Y-11933984D01*
X12143991Y-12133984D02*
X12029706Y-12133984D01*
X12086848Y-12133984D02*
X12086848Y-11933984D01*
X12086848Y-11933984D02*
X12067801Y-11962555D01*
X12067801Y-11962555D02*
X12048753Y-11981603D01*
X12048753Y-11981603D02*
X12029706Y-11991127D01*
X12334467Y-12133984D02*
X12220182Y-12133984D01*
X12277325Y-12133984D02*
X12277325Y-11933984D01*
X12277325Y-11933984D02*
X12258277Y-11962555D01*
X12258277Y-11962555D02*
X12239229Y-11981603D01*
X12239229Y-11981603D02*
X12220182Y-11991127D01*
X12448753Y-12019698D02*
X12429706Y-12010174D01*
X12429706Y-12010174D02*
X12420182Y-12000650D01*
X12420182Y-12000650D02*
X12410658Y-11981603D01*
X12410658Y-11981603D02*
X12410658Y-11972079D01*
X12410658Y-11972079D02*
X12420182Y-11953031D01*
X12420182Y-11953031D02*
X12429706Y-11943508D01*
X12429706Y-11943508D02*
X12448753Y-11933984D01*
X12448753Y-11933984D02*
X12486848Y-11933984D01*
X12486848Y-11933984D02*
X12505896Y-11943508D01*
X12505896Y-11943508D02*
X12515420Y-11953031D01*
X12515420Y-11953031D02*
X12524944Y-11972079D01*
X12524944Y-11972079D02*
X12524944Y-11981603D01*
X12524944Y-11981603D02*
X12515420Y-12000650D01*
X12515420Y-12000650D02*
X12505896Y-12010174D01*
X12505896Y-12010174D02*
X12486848Y-12019698D01*
X12486848Y-12019698D02*
X12448753Y-12019698D01*
X12448753Y-12019698D02*
X12429706Y-12029222D01*
X12429706Y-12029222D02*
X12420182Y-12038746D01*
X12420182Y-12038746D02*
X12410658Y-12057793D01*
X12410658Y-12057793D02*
X12410658Y-12095888D01*
X12410658Y-12095888D02*
X12420182Y-12114936D01*
X12420182Y-12114936D02*
X12429706Y-12124460D01*
X12429706Y-12124460D02*
X12448753Y-12133984D01*
X12448753Y-12133984D02*
X12486848Y-12133984D01*
X12486848Y-12133984D02*
X12505896Y-12124460D01*
X12505896Y-12124460D02*
X12515420Y-12114936D01*
X12515420Y-12114936D02*
X12524944Y-12095888D01*
X12524944Y-12095888D02*
X12524944Y-12057793D01*
X12524944Y-12057793D02*
X12515420Y-12038746D01*
X12515420Y-12038746D02*
X12505896Y-12029222D01*
X12505896Y-12029222D02*
X12486848Y-12019698D01*
X12601134Y-11933984D02*
X12601134Y-11972079D01*
X12677325Y-11933984D02*
X12677325Y-11972079D01*
X12972563Y-12210174D02*
X12963039Y-12200650D01*
X12963039Y-12200650D02*
X12943991Y-12172079D01*
X12943991Y-12172079D02*
X12934468Y-12153031D01*
X12934468Y-12153031D02*
X12924944Y-12124460D01*
X12924944Y-12124460D02*
X12915420Y-12076841D01*
X12915420Y-12076841D02*
X12915420Y-12038746D01*
X12915420Y-12038746D02*
X12924944Y-11991127D01*
X12924944Y-11991127D02*
X12934468Y-11962555D01*
X12934468Y-11962555D02*
X12943991Y-11943508D01*
X12943991Y-11943508D02*
X12963039Y-11914936D01*
X12963039Y-11914936D02*
X12972563Y-11905412D01*
X13077325Y-12019698D02*
X13058277Y-12010174D01*
X13058277Y-12010174D02*
X13048753Y-12000650D01*
X13048753Y-12000650D02*
X13039229Y-11981603D01*
X13039229Y-11981603D02*
X13039229Y-11972079D01*
X13039229Y-11972079D02*
X13048753Y-11953031D01*
X13048753Y-11953031D02*
X13058277Y-11943508D01*
X13058277Y-11943508D02*
X13077325Y-11933984D01*
X13077325Y-11933984D02*
X13115420Y-11933984D01*
X13115420Y-11933984D02*
X13134468Y-11943508D01*
X13134468Y-11943508D02*
X13143991Y-11953031D01*
X13143991Y-11953031D02*
X13153515Y-11972079D01*
X13153515Y-11972079D02*
X13153515Y-11981603D01*
X13153515Y-11981603D02*
X13143991Y-12000650D01*
X13143991Y-12000650D02*
X13134468Y-12010174D01*
X13134468Y-12010174D02*
X13115420Y-12019698D01*
X13115420Y-12019698D02*
X13077325Y-12019698D01*
X13077325Y-12019698D02*
X13058277Y-12029222D01*
X13058277Y-12029222D02*
X13048753Y-12038746D01*
X13048753Y-12038746D02*
X13039229Y-12057793D01*
X13039229Y-12057793D02*
X13039229Y-12095888D01*
X13039229Y-12095888D02*
X13048753Y-12114936D01*
X13048753Y-12114936D02*
X13058277Y-12124460D01*
X13058277Y-12124460D02*
X13077325Y-12133984D01*
X13077325Y-12133984D02*
X13115420Y-12133984D01*
X13115420Y-12133984D02*
X13134468Y-12124460D01*
X13134468Y-12124460D02*
X13143991Y-12114936D01*
X13143991Y-12114936D02*
X13153515Y-12095888D01*
X13153515Y-12095888D02*
X13153515Y-12057793D01*
X13153515Y-12057793D02*
X13143991Y-12038746D01*
X13143991Y-12038746D02*
X13134468Y-12029222D01*
X13134468Y-12029222D02*
X13115420Y-12019698D01*
X13391610Y-12133984D02*
X13391610Y-11933984D01*
X13477325Y-12133984D02*
X13477325Y-12029222D01*
X13477325Y-12029222D02*
X13467801Y-12010174D01*
X13467801Y-12010174D02*
X13448753Y-12000650D01*
X13448753Y-12000650D02*
X13420182Y-12000650D01*
X13420182Y-12000650D02*
X13401134Y-12010174D01*
X13401134Y-12010174D02*
X13391610Y-12019698D01*
X13601134Y-12133984D02*
X13582087Y-12124460D01*
X13582087Y-12124460D02*
X13572563Y-12114936D01*
X13572563Y-12114936D02*
X13563039Y-12095888D01*
X13563039Y-12095888D02*
X13563039Y-12038746D01*
X13563039Y-12038746D02*
X13572563Y-12019698D01*
X13572563Y-12019698D02*
X13582087Y-12010174D01*
X13582087Y-12010174D02*
X13601134Y-12000650D01*
X13601134Y-12000650D02*
X13629706Y-12000650D01*
X13629706Y-12000650D02*
X13648753Y-12010174D01*
X13648753Y-12010174D02*
X13658277Y-12019698D01*
X13658277Y-12019698D02*
X13667801Y-12038746D01*
X13667801Y-12038746D02*
X13667801Y-12095888D01*
X13667801Y-12095888D02*
X13658277Y-12114936D01*
X13658277Y-12114936D02*
X13648753Y-12124460D01*
X13648753Y-12124460D02*
X13629706Y-12133984D01*
X13629706Y-12133984D02*
X13601134Y-12133984D01*
X13782087Y-12133984D02*
X13763039Y-12124460D01*
X13763039Y-12124460D02*
X13753515Y-12105412D01*
X13753515Y-12105412D02*
X13753515Y-11933984D01*
X13934468Y-12124460D02*
X13915420Y-12133984D01*
X13915420Y-12133984D02*
X13877325Y-12133984D01*
X13877325Y-12133984D02*
X13858277Y-12124460D01*
X13858277Y-12124460D02*
X13848753Y-12105412D01*
X13848753Y-12105412D02*
X13848753Y-12029222D01*
X13848753Y-12029222D02*
X13858277Y-12010174D01*
X13858277Y-12010174D02*
X13877325Y-12000650D01*
X13877325Y-12000650D02*
X13915420Y-12000650D01*
X13915420Y-12000650D02*
X13934468Y-12010174D01*
X13934468Y-12010174D02*
X13943991Y-12029222D01*
X13943991Y-12029222D02*
X13943991Y-12048269D01*
X13943991Y-12048269D02*
X13848753Y-12067317D01*
X14020182Y-12124460D02*
X14039230Y-12133984D01*
X14039230Y-12133984D02*
X14077325Y-12133984D01*
X14077325Y-12133984D02*
X14096372Y-12124460D01*
X14096372Y-12124460D02*
X14105896Y-12105412D01*
X14105896Y-12105412D02*
X14105896Y-12095888D01*
X14105896Y-12095888D02*
X14096372Y-12076841D01*
X14096372Y-12076841D02*
X14077325Y-12067317D01*
X14077325Y-12067317D02*
X14048753Y-12067317D01*
X14048753Y-12067317D02*
X14029706Y-12057793D01*
X14029706Y-12057793D02*
X14020182Y-12038746D01*
X14020182Y-12038746D02*
X14020182Y-12029222D01*
X14020182Y-12029222D02*
X14029706Y-12010174D01*
X14029706Y-12010174D02*
X14048753Y-12000650D01*
X14048753Y-12000650D02*
X14077325Y-12000650D01*
X14077325Y-12000650D02*
X14096372Y-12010174D01*
X14172563Y-12210174D02*
X14182087Y-12200650D01*
X14182087Y-12200650D02*
X14201134Y-12172079D01*
X14201134Y-12172079D02*
X14210658Y-12153031D01*
X14210658Y-12153031D02*
X14220182Y-12124460D01*
X14220182Y-12124460D02*
X14229706Y-12076841D01*
X14229706Y-12076841D02*
X14229706Y-12038746D01*
X14229706Y-12038746D02*
X14220182Y-11991127D01*
X14220182Y-11991127D02*
X14210658Y-11962555D01*
X14210658Y-11962555D02*
X14201134Y-11943508D01*
X14201134Y-11943508D02*
X14182087Y-11914936D01*
X14182087Y-11914936D02*
X14172563Y-11905412D01*
D12*
X9397500Y-12306500D02*
G75*
G02*
X9317500Y-12306500I-40000J0D01*
G01*
X9317500Y-12306500D02*
G75*
G02*
X9397500Y-12306500I40000J0D01*
G01*
D11*
X9696372Y-12197984D02*
X9715420Y-12197984D01*
X9715420Y-12197984D02*
X9734467Y-12207508D01*
X9734467Y-12207508D02*
X9743991Y-12217031D01*
X9743991Y-12217031D02*
X9753515Y-12236079D01*
X9753515Y-12236079D02*
X9763039Y-12274174D01*
X9763039Y-12274174D02*
X9763039Y-12321793D01*
X9763039Y-12321793D02*
X9753515Y-12359888D01*
X9753515Y-12359888D02*
X9743991Y-12378936D01*
X9743991Y-12378936D02*
X9734467Y-12388460D01*
X9734467Y-12388460D02*
X9715420Y-12397984D01*
X9715420Y-12397984D02*
X9696372Y-12397984D01*
X9696372Y-12397984D02*
X9677324Y-12388460D01*
X9677324Y-12388460D02*
X9667801Y-12378936D01*
X9667801Y-12378936D02*
X9658277Y-12359888D01*
X9658277Y-12359888D02*
X9648753Y-12321793D01*
X9648753Y-12321793D02*
X9648753Y-12274174D01*
X9648753Y-12274174D02*
X9658277Y-12236079D01*
X9658277Y-12236079D02*
X9667801Y-12217031D01*
X9667801Y-12217031D02*
X9677324Y-12207508D01*
X9677324Y-12207508D02*
X9696372Y-12197984D01*
X9848753Y-12378936D02*
X9858277Y-12388460D01*
X9858277Y-12388460D02*
X9848753Y-12397984D01*
X9848753Y-12397984D02*
X9839229Y-12388460D01*
X9839229Y-12388460D02*
X9848753Y-12378936D01*
X9848753Y-12378936D02*
X9848753Y-12397984D01*
X9972563Y-12283698D02*
X9953515Y-12274174D01*
X9953515Y-12274174D02*
X9943991Y-12264650D01*
X9943991Y-12264650D02*
X9934467Y-12245603D01*
X9934467Y-12245603D02*
X9934467Y-12236079D01*
X9934467Y-12236079D02*
X9943991Y-12217031D01*
X9943991Y-12217031D02*
X9953515Y-12207508D01*
X9953515Y-12207508D02*
X9972563Y-12197984D01*
X9972563Y-12197984D02*
X10010658Y-12197984D01*
X10010658Y-12197984D02*
X10029705Y-12207508D01*
X10029705Y-12207508D02*
X10039229Y-12217031D01*
X10039229Y-12217031D02*
X10048753Y-12236079D01*
X10048753Y-12236079D02*
X10048753Y-12245603D01*
X10048753Y-12245603D02*
X10039229Y-12264650D01*
X10039229Y-12264650D02*
X10029705Y-12274174D01*
X10029705Y-12274174D02*
X10010658Y-12283698D01*
X10010658Y-12283698D02*
X9972563Y-12283698D01*
X9972563Y-12283698D02*
X9953515Y-12293222D01*
X9953515Y-12293222D02*
X9943991Y-12302746D01*
X9943991Y-12302746D02*
X9934467Y-12321793D01*
X9934467Y-12321793D02*
X9934467Y-12359888D01*
X9934467Y-12359888D02*
X9943991Y-12378936D01*
X9943991Y-12378936D02*
X9953515Y-12388460D01*
X9953515Y-12388460D02*
X9972563Y-12397984D01*
X9972563Y-12397984D02*
X10010658Y-12397984D01*
X10010658Y-12397984D02*
X10029705Y-12388460D01*
X10029705Y-12388460D02*
X10039229Y-12378936D01*
X10039229Y-12378936D02*
X10048753Y-12359888D01*
X10048753Y-12359888D02*
X10048753Y-12321793D01*
X10048753Y-12321793D02*
X10039229Y-12302746D01*
X10039229Y-12302746D02*
X10029705Y-12293222D01*
X10029705Y-12293222D02*
X10010658Y-12283698D01*
X10172563Y-12197984D02*
X10191610Y-12197984D01*
X10191610Y-12197984D02*
X10210658Y-12207508D01*
X10210658Y-12207508D02*
X10220182Y-12217031D01*
X10220182Y-12217031D02*
X10229705Y-12236079D01*
X10229705Y-12236079D02*
X10239229Y-12274174D01*
X10239229Y-12274174D02*
X10239229Y-12321793D01*
X10239229Y-12321793D02*
X10229705Y-12359888D01*
X10229705Y-12359888D02*
X10220182Y-12378936D01*
X10220182Y-12378936D02*
X10210658Y-12388460D01*
X10210658Y-12388460D02*
X10191610Y-12397984D01*
X10191610Y-12397984D02*
X10172563Y-12397984D01*
X10172563Y-12397984D02*
X10153515Y-12388460D01*
X10153515Y-12388460D02*
X10143991Y-12378936D01*
X10143991Y-12378936D02*
X10134467Y-12359888D01*
X10134467Y-12359888D02*
X10124944Y-12321793D01*
X10124944Y-12321793D02*
X10124944Y-12274174D01*
X10124944Y-12274174D02*
X10134467Y-12236079D01*
X10134467Y-12236079D02*
X10143991Y-12217031D01*
X10143991Y-12217031D02*
X10153515Y-12207508D01*
X10153515Y-12207508D02*
X10172563Y-12197984D01*
X10363039Y-12197984D02*
X10382086Y-12197984D01*
X10382086Y-12197984D02*
X10401134Y-12207508D01*
X10401134Y-12207508D02*
X10410658Y-12217031D01*
X10410658Y-12217031D02*
X10420182Y-12236079D01*
X10420182Y-12236079D02*
X10429705Y-12274174D01*
X10429705Y-12274174D02*
X10429705Y-12321793D01*
X10429705Y-12321793D02*
X10420182Y-12359888D01*
X10420182Y-12359888D02*
X10410658Y-12378936D01*
X10410658Y-12378936D02*
X10401134Y-12388460D01*
X10401134Y-12388460D02*
X10382086Y-12397984D01*
X10382086Y-12397984D02*
X10363039Y-12397984D01*
X10363039Y-12397984D02*
X10343991Y-12388460D01*
X10343991Y-12388460D02*
X10334467Y-12378936D01*
X10334467Y-12378936D02*
X10324944Y-12359888D01*
X10324944Y-12359888D02*
X10315420Y-12321793D01*
X10315420Y-12321793D02*
X10315420Y-12274174D01*
X10315420Y-12274174D02*
X10324944Y-12236079D01*
X10324944Y-12236079D02*
X10334467Y-12217031D01*
X10334467Y-12217031D02*
X10343991Y-12207508D01*
X10343991Y-12207508D02*
X10363039Y-12197984D01*
X10515420Y-12397984D02*
X10515420Y-12264650D01*
X10515420Y-12283698D02*
X10524944Y-12274174D01*
X10524944Y-12274174D02*
X10543991Y-12264650D01*
X10543991Y-12264650D02*
X10572563Y-12264650D01*
X10572563Y-12264650D02*
X10591610Y-12274174D01*
X10591610Y-12274174D02*
X10601134Y-12293222D01*
X10601134Y-12293222D02*
X10601134Y-12397984D01*
X10601134Y-12293222D02*
X10610658Y-12274174D01*
X10610658Y-12274174D02*
X10629705Y-12264650D01*
X10629705Y-12264650D02*
X10658277Y-12264650D01*
X10658277Y-12264650D02*
X10677325Y-12274174D01*
X10677325Y-12274174D02*
X10686848Y-12293222D01*
X10686848Y-12293222D02*
X10686848Y-12397984D01*
X10782086Y-12397984D02*
X10782086Y-12264650D01*
X10782086Y-12283698D02*
X10791610Y-12274174D01*
X10791610Y-12274174D02*
X10810658Y-12264650D01*
X10810658Y-12264650D02*
X10839229Y-12264650D01*
X10839229Y-12264650D02*
X10858277Y-12274174D01*
X10858277Y-12274174D02*
X10867801Y-12293222D01*
X10867801Y-12293222D02*
X10867801Y-12397984D01*
X10867801Y-12293222D02*
X10877325Y-12274174D01*
X10877325Y-12274174D02*
X10896372Y-12264650D01*
X10896372Y-12264650D02*
X10924944Y-12264650D01*
X10924944Y-12264650D02*
X10943991Y-12274174D01*
X10943991Y-12274174D02*
X10953515Y-12293222D01*
X10953515Y-12293222D02*
X10953515Y-12397984D01*
X11343991Y-12188460D02*
X11172563Y-12445603D01*
X11601134Y-12197984D02*
X11620182Y-12197984D01*
X11620182Y-12197984D02*
X11639229Y-12207508D01*
X11639229Y-12207508D02*
X11648753Y-12217031D01*
X11648753Y-12217031D02*
X11658277Y-12236079D01*
X11658277Y-12236079D02*
X11667801Y-12274174D01*
X11667801Y-12274174D02*
X11667801Y-12321793D01*
X11667801Y-12321793D02*
X11658277Y-12359888D01*
X11658277Y-12359888D02*
X11648753Y-12378936D01*
X11648753Y-12378936D02*
X11639229Y-12388460D01*
X11639229Y-12388460D02*
X11620182Y-12397984D01*
X11620182Y-12397984D02*
X11601134Y-12397984D01*
X11601134Y-12397984D02*
X11582086Y-12388460D01*
X11582086Y-12388460D02*
X11572563Y-12378936D01*
X11572563Y-12378936D02*
X11563039Y-12359888D01*
X11563039Y-12359888D02*
X11553515Y-12321793D01*
X11553515Y-12321793D02*
X11553515Y-12274174D01*
X11553515Y-12274174D02*
X11563039Y-12236079D01*
X11563039Y-12236079D02*
X11572563Y-12217031D01*
X11572563Y-12217031D02*
X11582086Y-12207508D01*
X11582086Y-12207508D02*
X11601134Y-12197984D01*
X11753515Y-12378936D02*
X11763039Y-12388460D01*
X11763039Y-12388460D02*
X11753515Y-12397984D01*
X11753515Y-12397984D02*
X11743991Y-12388460D01*
X11743991Y-12388460D02*
X11753515Y-12378936D01*
X11753515Y-12378936D02*
X11753515Y-12397984D01*
X11886848Y-12197984D02*
X11905896Y-12197984D01*
X11905896Y-12197984D02*
X11924944Y-12207508D01*
X11924944Y-12207508D02*
X11934467Y-12217031D01*
X11934467Y-12217031D02*
X11943991Y-12236079D01*
X11943991Y-12236079D02*
X11953515Y-12274174D01*
X11953515Y-12274174D02*
X11953515Y-12321793D01*
X11953515Y-12321793D02*
X11943991Y-12359888D01*
X11943991Y-12359888D02*
X11934467Y-12378936D01*
X11934467Y-12378936D02*
X11924944Y-12388460D01*
X11924944Y-12388460D02*
X11905896Y-12397984D01*
X11905896Y-12397984D02*
X11886848Y-12397984D01*
X11886848Y-12397984D02*
X11867801Y-12388460D01*
X11867801Y-12388460D02*
X11858277Y-12378936D01*
X11858277Y-12378936D02*
X11848753Y-12359888D01*
X11848753Y-12359888D02*
X11839229Y-12321793D01*
X11839229Y-12321793D02*
X11839229Y-12274174D01*
X11839229Y-12274174D02*
X11848753Y-12236079D01*
X11848753Y-12236079D02*
X11858277Y-12217031D01*
X11858277Y-12217031D02*
X11867801Y-12207508D01*
X11867801Y-12207508D02*
X11886848Y-12197984D01*
X12020182Y-12197984D02*
X12143991Y-12197984D01*
X12143991Y-12197984D02*
X12077325Y-12274174D01*
X12077325Y-12274174D02*
X12105896Y-12274174D01*
X12105896Y-12274174D02*
X12124944Y-12283698D01*
X12124944Y-12283698D02*
X12134467Y-12293222D01*
X12134467Y-12293222D02*
X12143991Y-12312269D01*
X12143991Y-12312269D02*
X12143991Y-12359888D01*
X12143991Y-12359888D02*
X12134467Y-12378936D01*
X12134467Y-12378936D02*
X12124944Y-12388460D01*
X12124944Y-12388460D02*
X12105896Y-12397984D01*
X12105896Y-12397984D02*
X12048753Y-12397984D01*
X12048753Y-12397984D02*
X12029706Y-12388460D01*
X12029706Y-12388460D02*
X12020182Y-12378936D01*
X12334467Y-12397984D02*
X12220182Y-12397984D01*
X12277325Y-12397984D02*
X12277325Y-12197984D01*
X12277325Y-12197984D02*
X12258277Y-12226555D01*
X12258277Y-12226555D02*
X12239229Y-12245603D01*
X12239229Y-12245603D02*
X12220182Y-12255127D01*
X12515420Y-12197984D02*
X12420182Y-12197984D01*
X12420182Y-12197984D02*
X12410658Y-12293222D01*
X12410658Y-12293222D02*
X12420182Y-12283698D01*
X12420182Y-12283698D02*
X12439229Y-12274174D01*
X12439229Y-12274174D02*
X12486848Y-12274174D01*
X12486848Y-12274174D02*
X12505896Y-12283698D01*
X12505896Y-12283698D02*
X12515420Y-12293222D01*
X12515420Y-12293222D02*
X12524944Y-12312269D01*
X12524944Y-12312269D02*
X12524944Y-12359888D01*
X12524944Y-12359888D02*
X12515420Y-12378936D01*
X12515420Y-12378936D02*
X12505896Y-12388460D01*
X12505896Y-12388460D02*
X12486848Y-12397984D01*
X12486848Y-12397984D02*
X12439229Y-12397984D01*
X12439229Y-12397984D02*
X12420182Y-12388460D01*
X12420182Y-12388460D02*
X12410658Y-12378936D01*
X12601134Y-12197984D02*
X12601134Y-12236079D01*
X12677325Y-12197984D02*
X12677325Y-12236079D01*
X12972563Y-12474174D02*
X12963039Y-12464650D01*
X12963039Y-12464650D02*
X12943991Y-12436079D01*
X12943991Y-12436079D02*
X12934468Y-12417031D01*
X12934468Y-12417031D02*
X12924944Y-12388460D01*
X12924944Y-12388460D02*
X12915420Y-12340841D01*
X12915420Y-12340841D02*
X12915420Y-12302746D01*
X12915420Y-12302746D02*
X12924944Y-12255127D01*
X12924944Y-12255127D02*
X12934468Y-12226555D01*
X12934468Y-12226555D02*
X12943991Y-12207508D01*
X12943991Y-12207508D02*
X12963039Y-12178936D01*
X12963039Y-12178936D02*
X12972563Y-12169412D01*
X13039229Y-12217031D02*
X13048753Y-12207508D01*
X13048753Y-12207508D02*
X13067801Y-12197984D01*
X13067801Y-12197984D02*
X13115420Y-12197984D01*
X13115420Y-12197984D02*
X13134468Y-12207508D01*
X13134468Y-12207508D02*
X13143991Y-12217031D01*
X13143991Y-12217031D02*
X13153515Y-12236079D01*
X13153515Y-12236079D02*
X13153515Y-12255127D01*
X13153515Y-12255127D02*
X13143991Y-12283698D01*
X13143991Y-12283698D02*
X13029706Y-12397984D01*
X13029706Y-12397984D02*
X13153515Y-12397984D01*
X13324944Y-12264650D02*
X13324944Y-12397984D01*
X13277325Y-12188460D02*
X13229706Y-12331317D01*
X13229706Y-12331317D02*
X13353515Y-12331317D01*
X13582087Y-12397984D02*
X13582087Y-12197984D01*
X13667801Y-12397984D02*
X13667801Y-12293222D01*
X13667801Y-12293222D02*
X13658277Y-12274174D01*
X13658277Y-12274174D02*
X13639230Y-12264650D01*
X13639230Y-12264650D02*
X13610658Y-12264650D01*
X13610658Y-12264650D02*
X13591610Y-12274174D01*
X13591610Y-12274174D02*
X13582087Y-12283698D01*
X13791610Y-12397984D02*
X13772563Y-12388460D01*
X13772563Y-12388460D02*
X13763039Y-12378936D01*
X13763039Y-12378936D02*
X13753515Y-12359888D01*
X13753515Y-12359888D02*
X13753515Y-12302746D01*
X13753515Y-12302746D02*
X13763039Y-12283698D01*
X13763039Y-12283698D02*
X13772563Y-12274174D01*
X13772563Y-12274174D02*
X13791610Y-12264650D01*
X13791610Y-12264650D02*
X13820182Y-12264650D01*
X13820182Y-12264650D02*
X13839230Y-12274174D01*
X13839230Y-12274174D02*
X13848753Y-12283698D01*
X13848753Y-12283698D02*
X13858277Y-12302746D01*
X13858277Y-12302746D02*
X13858277Y-12359888D01*
X13858277Y-12359888D02*
X13848753Y-12378936D01*
X13848753Y-12378936D02*
X13839230Y-12388460D01*
X13839230Y-12388460D02*
X13820182Y-12397984D01*
X13820182Y-12397984D02*
X13791610Y-12397984D01*
X13972563Y-12397984D02*
X13953515Y-12388460D01*
X13953515Y-12388460D02*
X13943991Y-12369412D01*
X13943991Y-12369412D02*
X13943991Y-12197984D01*
X14124944Y-12388460D02*
X14105896Y-12397984D01*
X14105896Y-12397984D02*
X14067801Y-12397984D01*
X14067801Y-12397984D02*
X14048753Y-12388460D01*
X14048753Y-12388460D02*
X14039230Y-12369412D01*
X14039230Y-12369412D02*
X14039230Y-12293222D01*
X14039230Y-12293222D02*
X14048753Y-12274174D01*
X14048753Y-12274174D02*
X14067801Y-12264650D01*
X14067801Y-12264650D02*
X14105896Y-12264650D01*
X14105896Y-12264650D02*
X14124944Y-12274174D01*
X14124944Y-12274174D02*
X14134468Y-12293222D01*
X14134468Y-12293222D02*
X14134468Y-12312269D01*
X14134468Y-12312269D02*
X14039230Y-12331317D01*
X14210658Y-12388460D02*
X14229706Y-12397984D01*
X14229706Y-12397984D02*
X14267801Y-12397984D01*
X14267801Y-12397984D02*
X14286849Y-12388460D01*
X14286849Y-12388460D02*
X14296372Y-12369412D01*
X14296372Y-12369412D02*
X14296372Y-12359888D01*
X14296372Y-12359888D02*
X14286849Y-12340841D01*
X14286849Y-12340841D02*
X14267801Y-12331317D01*
X14267801Y-12331317D02*
X14239230Y-12331317D01*
X14239230Y-12331317D02*
X14220182Y-12321793D01*
X14220182Y-12321793D02*
X14210658Y-12302746D01*
X14210658Y-12302746D02*
X14210658Y-12293222D01*
X14210658Y-12293222D02*
X14220182Y-12274174D01*
X14220182Y-12274174D02*
X14239230Y-12264650D01*
X14239230Y-12264650D02*
X14267801Y-12264650D01*
X14267801Y-12264650D02*
X14286849Y-12274174D01*
X14363039Y-12474174D02*
X14372563Y-12464650D01*
X14372563Y-12464650D02*
X14391611Y-12436079D01*
X14391611Y-12436079D02*
X14401134Y-12417031D01*
X14401134Y-12417031D02*
X14410658Y-12388460D01*
X14410658Y-12388460D02*
X14420182Y-12340841D01*
X14420182Y-12340841D02*
X14420182Y-12302746D01*
X14420182Y-12302746D02*
X14410658Y-12255127D01*
X14410658Y-12255127D02*
X14401134Y-12226555D01*
X14401134Y-12226555D02*
X14391611Y-12207508D01*
X14391611Y-12207508D02*
X14372563Y-12178936D01*
X14372563Y-12178936D02*
X14363039Y-12169412D01*
D12*
X9353050Y-12526050D02*
X9353050Y-12614950D01*
X9308600Y-12570500D02*
X9397500Y-12570500D01*
D11*
X9696372Y-12461984D02*
X9715420Y-12461984D01*
X9715420Y-12461984D02*
X9734467Y-12471508D01*
X9734467Y-12471508D02*
X9743991Y-12481031D01*
X9743991Y-12481031D02*
X9753515Y-12500079D01*
X9753515Y-12500079D02*
X9763039Y-12538174D01*
X9763039Y-12538174D02*
X9763039Y-12585793D01*
X9763039Y-12585793D02*
X9753515Y-12623888D01*
X9753515Y-12623888D02*
X9743991Y-12642936D01*
X9743991Y-12642936D02*
X9734467Y-12652460D01*
X9734467Y-12652460D02*
X9715420Y-12661984D01*
X9715420Y-12661984D02*
X9696372Y-12661984D01*
X9696372Y-12661984D02*
X9677324Y-12652460D01*
X9677324Y-12652460D02*
X9667801Y-12642936D01*
X9667801Y-12642936D02*
X9658277Y-12623888D01*
X9658277Y-12623888D02*
X9648753Y-12585793D01*
X9648753Y-12585793D02*
X9648753Y-12538174D01*
X9648753Y-12538174D02*
X9658277Y-12500079D01*
X9658277Y-12500079D02*
X9667801Y-12481031D01*
X9667801Y-12481031D02*
X9677324Y-12471508D01*
X9677324Y-12471508D02*
X9696372Y-12461984D01*
X9848753Y-12642936D02*
X9858277Y-12652460D01*
X9858277Y-12652460D02*
X9848753Y-12661984D01*
X9848753Y-12661984D02*
X9839229Y-12652460D01*
X9839229Y-12652460D02*
X9848753Y-12642936D01*
X9848753Y-12642936D02*
X9848753Y-12661984D01*
X9972563Y-12547698D02*
X9953515Y-12538174D01*
X9953515Y-12538174D02*
X9943991Y-12528650D01*
X9943991Y-12528650D02*
X9934467Y-12509603D01*
X9934467Y-12509603D02*
X9934467Y-12500079D01*
X9934467Y-12500079D02*
X9943991Y-12481031D01*
X9943991Y-12481031D02*
X9953515Y-12471508D01*
X9953515Y-12471508D02*
X9972563Y-12461984D01*
X9972563Y-12461984D02*
X10010658Y-12461984D01*
X10010658Y-12461984D02*
X10029705Y-12471508D01*
X10029705Y-12471508D02*
X10039229Y-12481031D01*
X10039229Y-12481031D02*
X10048753Y-12500079D01*
X10048753Y-12500079D02*
X10048753Y-12509603D01*
X10048753Y-12509603D02*
X10039229Y-12528650D01*
X10039229Y-12528650D02*
X10029705Y-12538174D01*
X10029705Y-12538174D02*
X10010658Y-12547698D01*
X10010658Y-12547698D02*
X9972563Y-12547698D01*
X9972563Y-12547698D02*
X9953515Y-12557222D01*
X9953515Y-12557222D02*
X9943991Y-12566746D01*
X9943991Y-12566746D02*
X9934467Y-12585793D01*
X9934467Y-12585793D02*
X9934467Y-12623888D01*
X9934467Y-12623888D02*
X9943991Y-12642936D01*
X9943991Y-12642936D02*
X9953515Y-12652460D01*
X9953515Y-12652460D02*
X9972563Y-12661984D01*
X9972563Y-12661984D02*
X10010658Y-12661984D01*
X10010658Y-12661984D02*
X10029705Y-12652460D01*
X10029705Y-12652460D02*
X10039229Y-12642936D01*
X10039229Y-12642936D02*
X10048753Y-12623888D01*
X10048753Y-12623888D02*
X10048753Y-12585793D01*
X10048753Y-12585793D02*
X10039229Y-12566746D01*
X10039229Y-12566746D02*
X10029705Y-12557222D01*
X10029705Y-12557222D02*
X10010658Y-12547698D01*
X10163039Y-12547698D02*
X10143991Y-12538174D01*
X10143991Y-12538174D02*
X10134467Y-12528650D01*
X10134467Y-12528650D02*
X10124944Y-12509603D01*
X10124944Y-12509603D02*
X10124944Y-12500079D01*
X10124944Y-12500079D02*
X10134467Y-12481031D01*
X10134467Y-12481031D02*
X10143991Y-12471508D01*
X10143991Y-12471508D02*
X10163039Y-12461984D01*
X10163039Y-12461984D02*
X10201134Y-12461984D01*
X10201134Y-12461984D02*
X10220182Y-12471508D01*
X10220182Y-12471508D02*
X10229705Y-12481031D01*
X10229705Y-12481031D02*
X10239229Y-12500079D01*
X10239229Y-12500079D02*
X10239229Y-12509603D01*
X10239229Y-12509603D02*
X10229705Y-12528650D01*
X10229705Y-12528650D02*
X10220182Y-12538174D01*
X10220182Y-12538174D02*
X10201134Y-12547698D01*
X10201134Y-12547698D02*
X10163039Y-12547698D01*
X10163039Y-12547698D02*
X10143991Y-12557222D01*
X10143991Y-12557222D02*
X10134467Y-12566746D01*
X10134467Y-12566746D02*
X10124944Y-12585793D01*
X10124944Y-12585793D02*
X10124944Y-12623888D01*
X10124944Y-12623888D02*
X10134467Y-12642936D01*
X10134467Y-12642936D02*
X10143991Y-12652460D01*
X10143991Y-12652460D02*
X10163039Y-12661984D01*
X10163039Y-12661984D02*
X10201134Y-12661984D01*
X10201134Y-12661984D02*
X10220182Y-12652460D01*
X10220182Y-12652460D02*
X10229705Y-12642936D01*
X10229705Y-12642936D02*
X10239229Y-12623888D01*
X10239229Y-12623888D02*
X10239229Y-12585793D01*
X10239229Y-12585793D02*
X10229705Y-12566746D01*
X10229705Y-12566746D02*
X10220182Y-12557222D01*
X10220182Y-12557222D02*
X10201134Y-12547698D01*
X10334467Y-12661984D02*
X10372563Y-12661984D01*
X10372563Y-12661984D02*
X10391610Y-12652460D01*
X10391610Y-12652460D02*
X10401134Y-12642936D01*
X10401134Y-12642936D02*
X10420182Y-12614365D01*
X10420182Y-12614365D02*
X10429705Y-12576269D01*
X10429705Y-12576269D02*
X10429705Y-12500079D01*
X10429705Y-12500079D02*
X10420182Y-12481031D01*
X10420182Y-12481031D02*
X10410658Y-12471508D01*
X10410658Y-12471508D02*
X10391610Y-12461984D01*
X10391610Y-12461984D02*
X10353515Y-12461984D01*
X10353515Y-12461984D02*
X10334467Y-12471508D01*
X10334467Y-12471508D02*
X10324944Y-12481031D01*
X10324944Y-12481031D02*
X10315420Y-12500079D01*
X10315420Y-12500079D02*
X10315420Y-12547698D01*
X10315420Y-12547698D02*
X10324944Y-12566746D01*
X10324944Y-12566746D02*
X10334467Y-12576269D01*
X10334467Y-12576269D02*
X10353515Y-12585793D01*
X10353515Y-12585793D02*
X10391610Y-12585793D01*
X10391610Y-12585793D02*
X10410658Y-12576269D01*
X10410658Y-12576269D02*
X10420182Y-12566746D01*
X10420182Y-12566746D02*
X10429705Y-12547698D01*
X10515420Y-12661984D02*
X10515420Y-12528650D01*
X10515420Y-12547698D02*
X10524944Y-12538174D01*
X10524944Y-12538174D02*
X10543991Y-12528650D01*
X10543991Y-12528650D02*
X10572563Y-12528650D01*
X10572563Y-12528650D02*
X10591610Y-12538174D01*
X10591610Y-12538174D02*
X10601134Y-12557222D01*
X10601134Y-12557222D02*
X10601134Y-12661984D01*
X10601134Y-12557222D02*
X10610658Y-12538174D01*
X10610658Y-12538174D02*
X10629705Y-12528650D01*
X10629705Y-12528650D02*
X10658277Y-12528650D01*
X10658277Y-12528650D02*
X10677325Y-12538174D01*
X10677325Y-12538174D02*
X10686848Y-12557222D01*
X10686848Y-12557222D02*
X10686848Y-12661984D01*
X10782086Y-12661984D02*
X10782086Y-12528650D01*
X10782086Y-12547698D02*
X10791610Y-12538174D01*
X10791610Y-12538174D02*
X10810658Y-12528650D01*
X10810658Y-12528650D02*
X10839229Y-12528650D01*
X10839229Y-12528650D02*
X10858277Y-12538174D01*
X10858277Y-12538174D02*
X10867801Y-12557222D01*
X10867801Y-12557222D02*
X10867801Y-12661984D01*
X10867801Y-12557222D02*
X10877325Y-12538174D01*
X10877325Y-12538174D02*
X10896372Y-12528650D01*
X10896372Y-12528650D02*
X10924944Y-12528650D01*
X10924944Y-12528650D02*
X10943991Y-12538174D01*
X10943991Y-12538174D02*
X10953515Y-12557222D01*
X10953515Y-12557222D02*
X10953515Y-12661984D01*
X11343991Y-12452460D02*
X11172563Y-12709603D01*
X11601134Y-12461984D02*
X11620182Y-12461984D01*
X11620182Y-12461984D02*
X11639229Y-12471508D01*
X11639229Y-12471508D02*
X11648753Y-12481031D01*
X11648753Y-12481031D02*
X11658277Y-12500079D01*
X11658277Y-12500079D02*
X11667801Y-12538174D01*
X11667801Y-12538174D02*
X11667801Y-12585793D01*
X11667801Y-12585793D02*
X11658277Y-12623888D01*
X11658277Y-12623888D02*
X11648753Y-12642936D01*
X11648753Y-12642936D02*
X11639229Y-12652460D01*
X11639229Y-12652460D02*
X11620182Y-12661984D01*
X11620182Y-12661984D02*
X11601134Y-12661984D01*
X11601134Y-12661984D02*
X11582086Y-12652460D01*
X11582086Y-12652460D02*
X11572563Y-12642936D01*
X11572563Y-12642936D02*
X11563039Y-12623888D01*
X11563039Y-12623888D02*
X11553515Y-12585793D01*
X11553515Y-12585793D02*
X11553515Y-12538174D01*
X11553515Y-12538174D02*
X11563039Y-12500079D01*
X11563039Y-12500079D02*
X11572563Y-12481031D01*
X11572563Y-12481031D02*
X11582086Y-12471508D01*
X11582086Y-12471508D02*
X11601134Y-12461984D01*
X11753515Y-12642936D02*
X11763039Y-12652460D01*
X11763039Y-12652460D02*
X11753515Y-12661984D01*
X11753515Y-12661984D02*
X11743991Y-12652460D01*
X11743991Y-12652460D02*
X11753515Y-12642936D01*
X11753515Y-12642936D02*
X11753515Y-12661984D01*
X11886848Y-12461984D02*
X11905896Y-12461984D01*
X11905896Y-12461984D02*
X11924944Y-12471508D01*
X11924944Y-12471508D02*
X11934467Y-12481031D01*
X11934467Y-12481031D02*
X11943991Y-12500079D01*
X11943991Y-12500079D02*
X11953515Y-12538174D01*
X11953515Y-12538174D02*
X11953515Y-12585793D01*
X11953515Y-12585793D02*
X11943991Y-12623888D01*
X11943991Y-12623888D02*
X11934467Y-12642936D01*
X11934467Y-12642936D02*
X11924944Y-12652460D01*
X11924944Y-12652460D02*
X11905896Y-12661984D01*
X11905896Y-12661984D02*
X11886848Y-12661984D01*
X11886848Y-12661984D02*
X11867801Y-12652460D01*
X11867801Y-12652460D02*
X11858277Y-12642936D01*
X11858277Y-12642936D02*
X11848753Y-12623888D01*
X11848753Y-12623888D02*
X11839229Y-12585793D01*
X11839229Y-12585793D02*
X11839229Y-12538174D01*
X11839229Y-12538174D02*
X11848753Y-12500079D01*
X11848753Y-12500079D02*
X11858277Y-12481031D01*
X11858277Y-12481031D02*
X11867801Y-12471508D01*
X11867801Y-12471508D02*
X11886848Y-12461984D01*
X12020182Y-12461984D02*
X12143991Y-12461984D01*
X12143991Y-12461984D02*
X12077325Y-12538174D01*
X12077325Y-12538174D02*
X12105896Y-12538174D01*
X12105896Y-12538174D02*
X12124944Y-12547698D01*
X12124944Y-12547698D02*
X12134467Y-12557222D01*
X12134467Y-12557222D02*
X12143991Y-12576269D01*
X12143991Y-12576269D02*
X12143991Y-12623888D01*
X12143991Y-12623888D02*
X12134467Y-12642936D01*
X12134467Y-12642936D02*
X12124944Y-12652460D01*
X12124944Y-12652460D02*
X12105896Y-12661984D01*
X12105896Y-12661984D02*
X12048753Y-12661984D01*
X12048753Y-12661984D02*
X12029706Y-12652460D01*
X12029706Y-12652460D02*
X12020182Y-12642936D01*
X12324944Y-12461984D02*
X12229706Y-12461984D01*
X12229706Y-12461984D02*
X12220182Y-12557222D01*
X12220182Y-12557222D02*
X12229706Y-12547698D01*
X12229706Y-12547698D02*
X12248753Y-12538174D01*
X12248753Y-12538174D02*
X12296372Y-12538174D01*
X12296372Y-12538174D02*
X12315420Y-12547698D01*
X12315420Y-12547698D02*
X12324944Y-12557222D01*
X12324944Y-12557222D02*
X12334467Y-12576269D01*
X12334467Y-12576269D02*
X12334467Y-12623888D01*
X12334467Y-12623888D02*
X12324944Y-12642936D01*
X12324944Y-12642936D02*
X12315420Y-12652460D01*
X12315420Y-12652460D02*
X12296372Y-12661984D01*
X12296372Y-12661984D02*
X12248753Y-12661984D01*
X12248753Y-12661984D02*
X12229706Y-12652460D01*
X12229706Y-12652460D02*
X12220182Y-12642936D01*
X12458277Y-12461984D02*
X12477325Y-12461984D01*
X12477325Y-12461984D02*
X12496372Y-12471508D01*
X12496372Y-12471508D02*
X12505896Y-12481031D01*
X12505896Y-12481031D02*
X12515420Y-12500079D01*
X12515420Y-12500079D02*
X12524944Y-12538174D01*
X12524944Y-12538174D02*
X12524944Y-12585793D01*
X12524944Y-12585793D02*
X12515420Y-12623888D01*
X12515420Y-12623888D02*
X12505896Y-12642936D01*
X12505896Y-12642936D02*
X12496372Y-12652460D01*
X12496372Y-12652460D02*
X12477325Y-12661984D01*
X12477325Y-12661984D02*
X12458277Y-12661984D01*
X12458277Y-12661984D02*
X12439229Y-12652460D01*
X12439229Y-12652460D02*
X12429706Y-12642936D01*
X12429706Y-12642936D02*
X12420182Y-12623888D01*
X12420182Y-12623888D02*
X12410658Y-12585793D01*
X12410658Y-12585793D02*
X12410658Y-12538174D01*
X12410658Y-12538174D02*
X12420182Y-12500079D01*
X12420182Y-12500079D02*
X12429706Y-12481031D01*
X12429706Y-12481031D02*
X12439229Y-12471508D01*
X12439229Y-12471508D02*
X12458277Y-12461984D01*
X12601134Y-12461984D02*
X12601134Y-12500079D01*
X12677325Y-12461984D02*
X12677325Y-12500079D01*
X12972563Y-12738174D02*
X12963039Y-12728650D01*
X12963039Y-12728650D02*
X12943991Y-12700079D01*
X12943991Y-12700079D02*
X12934468Y-12681031D01*
X12934468Y-12681031D02*
X12924944Y-12652460D01*
X12924944Y-12652460D02*
X12915420Y-12604841D01*
X12915420Y-12604841D02*
X12915420Y-12566746D01*
X12915420Y-12566746D02*
X12924944Y-12519127D01*
X12924944Y-12519127D02*
X12934468Y-12490555D01*
X12934468Y-12490555D02*
X12943991Y-12471508D01*
X12943991Y-12471508D02*
X12963039Y-12442936D01*
X12963039Y-12442936D02*
X12972563Y-12433412D01*
X13153515Y-12661984D02*
X13039229Y-12661984D01*
X13096372Y-12661984D02*
X13096372Y-12461984D01*
X13096372Y-12461984D02*
X13077325Y-12490555D01*
X13077325Y-12490555D02*
X13058277Y-12509603D01*
X13058277Y-12509603D02*
X13039229Y-12519127D01*
X13324944Y-12528650D02*
X13324944Y-12661984D01*
X13277325Y-12452460D02*
X13229706Y-12595317D01*
X13229706Y-12595317D02*
X13353515Y-12595317D01*
X13582087Y-12661984D02*
X13582087Y-12461984D01*
X13667801Y-12661984D02*
X13667801Y-12557222D01*
X13667801Y-12557222D02*
X13658277Y-12538174D01*
X13658277Y-12538174D02*
X13639230Y-12528650D01*
X13639230Y-12528650D02*
X13610658Y-12528650D01*
X13610658Y-12528650D02*
X13591610Y-12538174D01*
X13591610Y-12538174D02*
X13582087Y-12547698D01*
X13791610Y-12661984D02*
X13772563Y-12652460D01*
X13772563Y-12652460D02*
X13763039Y-12642936D01*
X13763039Y-12642936D02*
X13753515Y-12623888D01*
X13753515Y-12623888D02*
X13753515Y-12566746D01*
X13753515Y-12566746D02*
X13763039Y-12547698D01*
X13763039Y-12547698D02*
X13772563Y-12538174D01*
X13772563Y-12538174D02*
X13791610Y-12528650D01*
X13791610Y-12528650D02*
X13820182Y-12528650D01*
X13820182Y-12528650D02*
X13839230Y-12538174D01*
X13839230Y-12538174D02*
X13848753Y-12547698D01*
X13848753Y-12547698D02*
X13858277Y-12566746D01*
X13858277Y-12566746D02*
X13858277Y-12623888D01*
X13858277Y-12623888D02*
X13848753Y-12642936D01*
X13848753Y-12642936D02*
X13839230Y-12652460D01*
X13839230Y-12652460D02*
X13820182Y-12661984D01*
X13820182Y-12661984D02*
X13791610Y-12661984D01*
X13972563Y-12661984D02*
X13953515Y-12652460D01*
X13953515Y-12652460D02*
X13943991Y-12633412D01*
X13943991Y-12633412D02*
X13943991Y-12461984D01*
X14124944Y-12652460D02*
X14105896Y-12661984D01*
X14105896Y-12661984D02*
X14067801Y-12661984D01*
X14067801Y-12661984D02*
X14048753Y-12652460D01*
X14048753Y-12652460D02*
X14039230Y-12633412D01*
X14039230Y-12633412D02*
X14039230Y-12557222D01*
X14039230Y-12557222D02*
X14048753Y-12538174D01*
X14048753Y-12538174D02*
X14067801Y-12528650D01*
X14067801Y-12528650D02*
X14105896Y-12528650D01*
X14105896Y-12528650D02*
X14124944Y-12538174D01*
X14124944Y-12538174D02*
X14134468Y-12557222D01*
X14134468Y-12557222D02*
X14134468Y-12576269D01*
X14134468Y-12576269D02*
X14039230Y-12595317D01*
X14210658Y-12652460D02*
X14229706Y-12661984D01*
X14229706Y-12661984D02*
X14267801Y-12661984D01*
X14267801Y-12661984D02*
X14286849Y-12652460D01*
X14286849Y-12652460D02*
X14296372Y-12633412D01*
X14296372Y-12633412D02*
X14296372Y-12623888D01*
X14296372Y-12623888D02*
X14286849Y-12604841D01*
X14286849Y-12604841D02*
X14267801Y-12595317D01*
X14267801Y-12595317D02*
X14239230Y-12595317D01*
X14239230Y-12595317D02*
X14220182Y-12585793D01*
X14220182Y-12585793D02*
X14210658Y-12566746D01*
X14210658Y-12566746D02*
X14210658Y-12557222D01*
X14210658Y-12557222D02*
X14220182Y-12538174D01*
X14220182Y-12538174D02*
X14239230Y-12528650D01*
X14239230Y-12528650D02*
X14267801Y-12528650D01*
X14267801Y-12528650D02*
X14286849Y-12538174D01*
X14363039Y-12738174D02*
X14372563Y-12728650D01*
X14372563Y-12728650D02*
X14391611Y-12700079D01*
X14391611Y-12700079D02*
X14401134Y-12681031D01*
X14401134Y-12681031D02*
X14410658Y-12652460D01*
X14410658Y-12652460D02*
X14420182Y-12604841D01*
X14420182Y-12604841D02*
X14420182Y-12566746D01*
X14420182Y-12566746D02*
X14410658Y-12519127D01*
X14410658Y-12519127D02*
X14401134Y-12490555D01*
X14401134Y-12490555D02*
X14391611Y-12471508D01*
X14391611Y-12471508D02*
X14372563Y-12442936D01*
X14372563Y-12442936D02*
X14363039Y-12433412D01*
D12*
X9382856Y-12869856D02*
X9382856Y-12799144D01*
X9312144Y-12799144D01*
X9312144Y-12869856D01*
X9382856Y-12869856D01*
D11*
X9763039Y-12925984D02*
X9648753Y-12925984D01*
X9705896Y-12925984D02*
X9705896Y-12725984D01*
X9705896Y-12725984D02*
X9686848Y-12754555D01*
X9686848Y-12754555D02*
X9667801Y-12773603D01*
X9667801Y-12773603D02*
X9648753Y-12783127D01*
X9848753Y-12906936D02*
X9858277Y-12916460D01*
X9858277Y-12916460D02*
X9848753Y-12925984D01*
X9848753Y-12925984D02*
X9839229Y-12916460D01*
X9839229Y-12916460D02*
X9848753Y-12906936D01*
X9848753Y-12906936D02*
X9848753Y-12925984D01*
X9982086Y-12725984D02*
X10001134Y-12725984D01*
X10001134Y-12725984D02*
X10020182Y-12735508D01*
X10020182Y-12735508D02*
X10029705Y-12745031D01*
X10029705Y-12745031D02*
X10039229Y-12764079D01*
X10039229Y-12764079D02*
X10048753Y-12802174D01*
X10048753Y-12802174D02*
X10048753Y-12849793D01*
X10048753Y-12849793D02*
X10039229Y-12887888D01*
X10039229Y-12887888D02*
X10029705Y-12906936D01*
X10029705Y-12906936D02*
X10020182Y-12916460D01*
X10020182Y-12916460D02*
X10001134Y-12925984D01*
X10001134Y-12925984D02*
X9982086Y-12925984D01*
X9982086Y-12925984D02*
X9963039Y-12916460D01*
X9963039Y-12916460D02*
X9953515Y-12906936D01*
X9953515Y-12906936D02*
X9943991Y-12887888D01*
X9943991Y-12887888D02*
X9934467Y-12849793D01*
X9934467Y-12849793D02*
X9934467Y-12802174D01*
X9934467Y-12802174D02*
X9943991Y-12764079D01*
X9943991Y-12764079D02*
X9953515Y-12745031D01*
X9953515Y-12745031D02*
X9963039Y-12735508D01*
X9963039Y-12735508D02*
X9982086Y-12725984D01*
X10172563Y-12725984D02*
X10191610Y-12725984D01*
X10191610Y-12725984D02*
X10210658Y-12735508D01*
X10210658Y-12735508D02*
X10220182Y-12745031D01*
X10220182Y-12745031D02*
X10229705Y-12764079D01*
X10229705Y-12764079D02*
X10239229Y-12802174D01*
X10239229Y-12802174D02*
X10239229Y-12849793D01*
X10239229Y-12849793D02*
X10229705Y-12887888D01*
X10229705Y-12887888D02*
X10220182Y-12906936D01*
X10220182Y-12906936D02*
X10210658Y-12916460D01*
X10210658Y-12916460D02*
X10191610Y-12925984D01*
X10191610Y-12925984D02*
X10172563Y-12925984D01*
X10172563Y-12925984D02*
X10153515Y-12916460D01*
X10153515Y-12916460D02*
X10143991Y-12906936D01*
X10143991Y-12906936D02*
X10134467Y-12887888D01*
X10134467Y-12887888D02*
X10124944Y-12849793D01*
X10124944Y-12849793D02*
X10124944Y-12802174D01*
X10124944Y-12802174D02*
X10134467Y-12764079D01*
X10134467Y-12764079D02*
X10143991Y-12745031D01*
X10143991Y-12745031D02*
X10153515Y-12735508D01*
X10153515Y-12735508D02*
X10172563Y-12725984D01*
X10363039Y-12725984D02*
X10382086Y-12725984D01*
X10382086Y-12725984D02*
X10401134Y-12735508D01*
X10401134Y-12735508D02*
X10410658Y-12745031D01*
X10410658Y-12745031D02*
X10420182Y-12764079D01*
X10420182Y-12764079D02*
X10429705Y-12802174D01*
X10429705Y-12802174D02*
X10429705Y-12849793D01*
X10429705Y-12849793D02*
X10420182Y-12887888D01*
X10420182Y-12887888D02*
X10410658Y-12906936D01*
X10410658Y-12906936D02*
X10401134Y-12916460D01*
X10401134Y-12916460D02*
X10382086Y-12925984D01*
X10382086Y-12925984D02*
X10363039Y-12925984D01*
X10363039Y-12925984D02*
X10343991Y-12916460D01*
X10343991Y-12916460D02*
X10334467Y-12906936D01*
X10334467Y-12906936D02*
X10324944Y-12887888D01*
X10324944Y-12887888D02*
X10315420Y-12849793D01*
X10315420Y-12849793D02*
X10315420Y-12802174D01*
X10315420Y-12802174D02*
X10324944Y-12764079D01*
X10324944Y-12764079D02*
X10334467Y-12745031D01*
X10334467Y-12745031D02*
X10343991Y-12735508D01*
X10343991Y-12735508D02*
X10363039Y-12725984D01*
X10515420Y-12925984D02*
X10515420Y-12792650D01*
X10515420Y-12811698D02*
X10524944Y-12802174D01*
X10524944Y-12802174D02*
X10543991Y-12792650D01*
X10543991Y-12792650D02*
X10572563Y-12792650D01*
X10572563Y-12792650D02*
X10591610Y-12802174D01*
X10591610Y-12802174D02*
X10601134Y-12821222D01*
X10601134Y-12821222D02*
X10601134Y-12925984D01*
X10601134Y-12821222D02*
X10610658Y-12802174D01*
X10610658Y-12802174D02*
X10629705Y-12792650D01*
X10629705Y-12792650D02*
X10658277Y-12792650D01*
X10658277Y-12792650D02*
X10677325Y-12802174D01*
X10677325Y-12802174D02*
X10686848Y-12821222D01*
X10686848Y-12821222D02*
X10686848Y-12925984D01*
X10782086Y-12925984D02*
X10782086Y-12792650D01*
X10782086Y-12811698D02*
X10791610Y-12802174D01*
X10791610Y-12802174D02*
X10810658Y-12792650D01*
X10810658Y-12792650D02*
X10839229Y-12792650D01*
X10839229Y-12792650D02*
X10858277Y-12802174D01*
X10858277Y-12802174D02*
X10867801Y-12821222D01*
X10867801Y-12821222D02*
X10867801Y-12925984D01*
X10867801Y-12821222D02*
X10877325Y-12802174D01*
X10877325Y-12802174D02*
X10896372Y-12792650D01*
X10896372Y-12792650D02*
X10924944Y-12792650D01*
X10924944Y-12792650D02*
X10943991Y-12802174D01*
X10943991Y-12802174D02*
X10953515Y-12821222D01*
X10953515Y-12821222D02*
X10953515Y-12925984D01*
X11343991Y-12716460D02*
X11172563Y-12973603D01*
X11601134Y-12725984D02*
X11620182Y-12725984D01*
X11620182Y-12725984D02*
X11639229Y-12735508D01*
X11639229Y-12735508D02*
X11648753Y-12745031D01*
X11648753Y-12745031D02*
X11658277Y-12764079D01*
X11658277Y-12764079D02*
X11667801Y-12802174D01*
X11667801Y-12802174D02*
X11667801Y-12849793D01*
X11667801Y-12849793D02*
X11658277Y-12887888D01*
X11658277Y-12887888D02*
X11648753Y-12906936D01*
X11648753Y-12906936D02*
X11639229Y-12916460D01*
X11639229Y-12916460D02*
X11620182Y-12925984D01*
X11620182Y-12925984D02*
X11601134Y-12925984D01*
X11601134Y-12925984D02*
X11582086Y-12916460D01*
X11582086Y-12916460D02*
X11572563Y-12906936D01*
X11572563Y-12906936D02*
X11563039Y-12887888D01*
X11563039Y-12887888D02*
X11553515Y-12849793D01*
X11553515Y-12849793D02*
X11553515Y-12802174D01*
X11553515Y-12802174D02*
X11563039Y-12764079D01*
X11563039Y-12764079D02*
X11572563Y-12745031D01*
X11572563Y-12745031D02*
X11582086Y-12735508D01*
X11582086Y-12735508D02*
X11601134Y-12725984D01*
X11753515Y-12906936D02*
X11763039Y-12916460D01*
X11763039Y-12916460D02*
X11753515Y-12925984D01*
X11753515Y-12925984D02*
X11743991Y-12916460D01*
X11743991Y-12916460D02*
X11753515Y-12906936D01*
X11753515Y-12906936D02*
X11753515Y-12925984D01*
X11886848Y-12725984D02*
X11905896Y-12725984D01*
X11905896Y-12725984D02*
X11924944Y-12735508D01*
X11924944Y-12735508D02*
X11934467Y-12745031D01*
X11934467Y-12745031D02*
X11943991Y-12764079D01*
X11943991Y-12764079D02*
X11953515Y-12802174D01*
X11953515Y-12802174D02*
X11953515Y-12849793D01*
X11953515Y-12849793D02*
X11943991Y-12887888D01*
X11943991Y-12887888D02*
X11934467Y-12906936D01*
X11934467Y-12906936D02*
X11924944Y-12916460D01*
X11924944Y-12916460D02*
X11905896Y-12925984D01*
X11905896Y-12925984D02*
X11886848Y-12925984D01*
X11886848Y-12925984D02*
X11867801Y-12916460D01*
X11867801Y-12916460D02*
X11858277Y-12906936D01*
X11858277Y-12906936D02*
X11848753Y-12887888D01*
X11848753Y-12887888D02*
X11839229Y-12849793D01*
X11839229Y-12849793D02*
X11839229Y-12802174D01*
X11839229Y-12802174D02*
X11848753Y-12764079D01*
X11848753Y-12764079D02*
X11858277Y-12745031D01*
X11858277Y-12745031D02*
X11867801Y-12735508D01*
X11867801Y-12735508D02*
X11886848Y-12725984D01*
X12020182Y-12725984D02*
X12143991Y-12725984D01*
X12143991Y-12725984D02*
X12077325Y-12802174D01*
X12077325Y-12802174D02*
X12105896Y-12802174D01*
X12105896Y-12802174D02*
X12124944Y-12811698D01*
X12124944Y-12811698D02*
X12134467Y-12821222D01*
X12134467Y-12821222D02*
X12143991Y-12840269D01*
X12143991Y-12840269D02*
X12143991Y-12887888D01*
X12143991Y-12887888D02*
X12134467Y-12906936D01*
X12134467Y-12906936D02*
X12124944Y-12916460D01*
X12124944Y-12916460D02*
X12105896Y-12925984D01*
X12105896Y-12925984D02*
X12048753Y-12925984D01*
X12048753Y-12925984D02*
X12029706Y-12916460D01*
X12029706Y-12916460D02*
X12020182Y-12906936D01*
X12239229Y-12925984D02*
X12277325Y-12925984D01*
X12277325Y-12925984D02*
X12296372Y-12916460D01*
X12296372Y-12916460D02*
X12305896Y-12906936D01*
X12305896Y-12906936D02*
X12324944Y-12878365D01*
X12324944Y-12878365D02*
X12334467Y-12840269D01*
X12334467Y-12840269D02*
X12334467Y-12764079D01*
X12334467Y-12764079D02*
X12324944Y-12745031D01*
X12324944Y-12745031D02*
X12315420Y-12735508D01*
X12315420Y-12735508D02*
X12296372Y-12725984D01*
X12296372Y-12725984D02*
X12258277Y-12725984D01*
X12258277Y-12725984D02*
X12239229Y-12735508D01*
X12239229Y-12735508D02*
X12229706Y-12745031D01*
X12229706Y-12745031D02*
X12220182Y-12764079D01*
X12220182Y-12764079D02*
X12220182Y-12811698D01*
X12220182Y-12811698D02*
X12229706Y-12830746D01*
X12229706Y-12830746D02*
X12239229Y-12840269D01*
X12239229Y-12840269D02*
X12258277Y-12849793D01*
X12258277Y-12849793D02*
X12296372Y-12849793D01*
X12296372Y-12849793D02*
X12315420Y-12840269D01*
X12315420Y-12840269D02*
X12324944Y-12830746D01*
X12324944Y-12830746D02*
X12334467Y-12811698D01*
X12505896Y-12792650D02*
X12505896Y-12925984D01*
X12458277Y-12716460D02*
X12410658Y-12859317D01*
X12410658Y-12859317D02*
X12534467Y-12859317D01*
X12601134Y-12725984D02*
X12601134Y-12764079D01*
X12677325Y-12725984D02*
X12677325Y-12764079D01*
X12972563Y-13002174D02*
X12963039Y-12992650D01*
X12963039Y-12992650D02*
X12943991Y-12964079D01*
X12943991Y-12964079D02*
X12934468Y-12945031D01*
X12934468Y-12945031D02*
X12924944Y-12916460D01*
X12924944Y-12916460D02*
X12915420Y-12868841D01*
X12915420Y-12868841D02*
X12915420Y-12830746D01*
X12915420Y-12830746D02*
X12924944Y-12783127D01*
X12924944Y-12783127D02*
X12934468Y-12754555D01*
X12934468Y-12754555D02*
X12943991Y-12735508D01*
X12943991Y-12735508D02*
X12963039Y-12706936D01*
X12963039Y-12706936D02*
X12972563Y-12697412D01*
X13058277Y-12925984D02*
X13096372Y-12925984D01*
X13096372Y-12925984D02*
X13115420Y-12916460D01*
X13115420Y-12916460D02*
X13124944Y-12906936D01*
X13124944Y-12906936D02*
X13143991Y-12878365D01*
X13143991Y-12878365D02*
X13153515Y-12840269D01*
X13153515Y-12840269D02*
X13153515Y-12764079D01*
X13153515Y-12764079D02*
X13143991Y-12745031D01*
X13143991Y-12745031D02*
X13134468Y-12735508D01*
X13134468Y-12735508D02*
X13115420Y-12725984D01*
X13115420Y-12725984D02*
X13077325Y-12725984D01*
X13077325Y-12725984D02*
X13058277Y-12735508D01*
X13058277Y-12735508D02*
X13048753Y-12745031D01*
X13048753Y-12745031D02*
X13039229Y-12764079D01*
X13039229Y-12764079D02*
X13039229Y-12811698D01*
X13039229Y-12811698D02*
X13048753Y-12830746D01*
X13048753Y-12830746D02*
X13058277Y-12840269D01*
X13058277Y-12840269D02*
X13077325Y-12849793D01*
X13077325Y-12849793D02*
X13115420Y-12849793D01*
X13115420Y-12849793D02*
X13134468Y-12840269D01*
X13134468Y-12840269D02*
X13143991Y-12830746D01*
X13143991Y-12830746D02*
X13153515Y-12811698D01*
X13391610Y-12925984D02*
X13391610Y-12725984D01*
X13477325Y-12925984D02*
X13477325Y-12821222D01*
X13477325Y-12821222D02*
X13467801Y-12802174D01*
X13467801Y-12802174D02*
X13448753Y-12792650D01*
X13448753Y-12792650D02*
X13420182Y-12792650D01*
X13420182Y-12792650D02*
X13401134Y-12802174D01*
X13401134Y-12802174D02*
X13391610Y-12811698D01*
X13601134Y-12925984D02*
X13582087Y-12916460D01*
X13582087Y-12916460D02*
X13572563Y-12906936D01*
X13572563Y-12906936D02*
X13563039Y-12887888D01*
X13563039Y-12887888D02*
X13563039Y-12830746D01*
X13563039Y-12830746D02*
X13572563Y-12811698D01*
X13572563Y-12811698D02*
X13582087Y-12802174D01*
X13582087Y-12802174D02*
X13601134Y-12792650D01*
X13601134Y-12792650D02*
X13629706Y-12792650D01*
X13629706Y-12792650D02*
X13648753Y-12802174D01*
X13648753Y-12802174D02*
X13658277Y-12811698D01*
X13658277Y-12811698D02*
X13667801Y-12830746D01*
X13667801Y-12830746D02*
X13667801Y-12887888D01*
X13667801Y-12887888D02*
X13658277Y-12906936D01*
X13658277Y-12906936D02*
X13648753Y-12916460D01*
X13648753Y-12916460D02*
X13629706Y-12925984D01*
X13629706Y-12925984D02*
X13601134Y-12925984D01*
X13782087Y-12925984D02*
X13763039Y-12916460D01*
X13763039Y-12916460D02*
X13753515Y-12897412D01*
X13753515Y-12897412D02*
X13753515Y-12725984D01*
X13934468Y-12916460D02*
X13915420Y-12925984D01*
X13915420Y-12925984D02*
X13877325Y-12925984D01*
X13877325Y-12925984D02*
X13858277Y-12916460D01*
X13858277Y-12916460D02*
X13848753Y-12897412D01*
X13848753Y-12897412D02*
X13848753Y-12821222D01*
X13848753Y-12821222D02*
X13858277Y-12802174D01*
X13858277Y-12802174D02*
X13877325Y-12792650D01*
X13877325Y-12792650D02*
X13915420Y-12792650D01*
X13915420Y-12792650D02*
X13934468Y-12802174D01*
X13934468Y-12802174D02*
X13943991Y-12821222D01*
X13943991Y-12821222D02*
X13943991Y-12840269D01*
X13943991Y-12840269D02*
X13848753Y-12859317D01*
X14020182Y-12916460D02*
X14039230Y-12925984D01*
X14039230Y-12925984D02*
X14077325Y-12925984D01*
X14077325Y-12925984D02*
X14096372Y-12916460D01*
X14096372Y-12916460D02*
X14105896Y-12897412D01*
X14105896Y-12897412D02*
X14105896Y-12887888D01*
X14105896Y-12887888D02*
X14096372Y-12868841D01*
X14096372Y-12868841D02*
X14077325Y-12859317D01*
X14077325Y-12859317D02*
X14048753Y-12859317D01*
X14048753Y-12859317D02*
X14029706Y-12849793D01*
X14029706Y-12849793D02*
X14020182Y-12830746D01*
X14020182Y-12830746D02*
X14020182Y-12821222D01*
X14020182Y-12821222D02*
X14029706Y-12802174D01*
X14029706Y-12802174D02*
X14048753Y-12792650D01*
X14048753Y-12792650D02*
X14077325Y-12792650D01*
X14077325Y-12792650D02*
X14096372Y-12802174D01*
X14172563Y-13002174D02*
X14182087Y-12992650D01*
X14182087Y-12992650D02*
X14201134Y-12964079D01*
X14201134Y-12964079D02*
X14210658Y-12945031D01*
X14210658Y-12945031D02*
X14220182Y-12916460D01*
X14220182Y-12916460D02*
X14229706Y-12868841D01*
X14229706Y-12868841D02*
X14229706Y-12830746D01*
X14229706Y-12830746D02*
X14220182Y-12783127D01*
X14220182Y-12783127D02*
X14210658Y-12754555D01*
X14210658Y-12754555D02*
X14201134Y-12735508D01*
X14201134Y-12735508D02*
X14182087Y-12706936D01*
X14182087Y-12706936D02*
X14172563Y-12697412D01*
D13*
X9322500Y-13173500D02*
X9397500Y-13098500D01*
X9322500Y-13023500D01*
X9247500Y-13098500D01*
X9322500Y-13173500D01*
D11*
X9763039Y-13189984D02*
X9648753Y-13189984D01*
X9705896Y-13189984D02*
X9705896Y-12989984D01*
X9705896Y-12989984D02*
X9686848Y-13018555D01*
X9686848Y-13018555D02*
X9667801Y-13037603D01*
X9667801Y-13037603D02*
X9648753Y-13047127D01*
X9848753Y-13170936D02*
X9858277Y-13180460D01*
X9858277Y-13180460D02*
X9848753Y-13189984D01*
X9848753Y-13189984D02*
X9839229Y-13180460D01*
X9839229Y-13180460D02*
X9848753Y-13170936D01*
X9848753Y-13170936D02*
X9848753Y-13189984D01*
X10039229Y-12989984D02*
X9943991Y-12989984D01*
X9943991Y-12989984D02*
X9934467Y-13085222D01*
X9934467Y-13085222D02*
X9943991Y-13075698D01*
X9943991Y-13075698D02*
X9963039Y-13066174D01*
X9963039Y-13066174D02*
X10010658Y-13066174D01*
X10010658Y-13066174D02*
X10029705Y-13075698D01*
X10029705Y-13075698D02*
X10039229Y-13085222D01*
X10039229Y-13085222D02*
X10048753Y-13104269D01*
X10048753Y-13104269D02*
X10048753Y-13151888D01*
X10048753Y-13151888D02*
X10039229Y-13170936D01*
X10039229Y-13170936D02*
X10029705Y-13180460D01*
X10029705Y-13180460D02*
X10010658Y-13189984D01*
X10010658Y-13189984D02*
X9963039Y-13189984D01*
X9963039Y-13189984D02*
X9943991Y-13180460D01*
X9943991Y-13180460D02*
X9934467Y-13170936D01*
X10172563Y-12989984D02*
X10191610Y-12989984D01*
X10191610Y-12989984D02*
X10210658Y-12999508D01*
X10210658Y-12999508D02*
X10220182Y-13009031D01*
X10220182Y-13009031D02*
X10229705Y-13028079D01*
X10229705Y-13028079D02*
X10239229Y-13066174D01*
X10239229Y-13066174D02*
X10239229Y-13113793D01*
X10239229Y-13113793D02*
X10229705Y-13151888D01*
X10229705Y-13151888D02*
X10220182Y-13170936D01*
X10220182Y-13170936D02*
X10210658Y-13180460D01*
X10210658Y-13180460D02*
X10191610Y-13189984D01*
X10191610Y-13189984D02*
X10172563Y-13189984D01*
X10172563Y-13189984D02*
X10153515Y-13180460D01*
X10153515Y-13180460D02*
X10143991Y-13170936D01*
X10143991Y-13170936D02*
X10134467Y-13151888D01*
X10134467Y-13151888D02*
X10124944Y-13113793D01*
X10124944Y-13113793D02*
X10124944Y-13066174D01*
X10124944Y-13066174D02*
X10134467Y-13028079D01*
X10134467Y-13028079D02*
X10143991Y-13009031D01*
X10143991Y-13009031D02*
X10153515Y-12999508D01*
X10153515Y-12999508D02*
X10172563Y-12989984D01*
X10363039Y-12989984D02*
X10382086Y-12989984D01*
X10382086Y-12989984D02*
X10401134Y-12999508D01*
X10401134Y-12999508D02*
X10410658Y-13009031D01*
X10410658Y-13009031D02*
X10420182Y-13028079D01*
X10420182Y-13028079D02*
X10429705Y-13066174D01*
X10429705Y-13066174D02*
X10429705Y-13113793D01*
X10429705Y-13113793D02*
X10420182Y-13151888D01*
X10420182Y-13151888D02*
X10410658Y-13170936D01*
X10410658Y-13170936D02*
X10401134Y-13180460D01*
X10401134Y-13180460D02*
X10382086Y-13189984D01*
X10382086Y-13189984D02*
X10363039Y-13189984D01*
X10363039Y-13189984D02*
X10343991Y-13180460D01*
X10343991Y-13180460D02*
X10334467Y-13170936D01*
X10334467Y-13170936D02*
X10324944Y-13151888D01*
X10324944Y-13151888D02*
X10315420Y-13113793D01*
X10315420Y-13113793D02*
X10315420Y-13066174D01*
X10315420Y-13066174D02*
X10324944Y-13028079D01*
X10324944Y-13028079D02*
X10334467Y-13009031D01*
X10334467Y-13009031D02*
X10343991Y-12999508D01*
X10343991Y-12999508D02*
X10363039Y-12989984D01*
X10515420Y-13189984D02*
X10515420Y-13056650D01*
X10515420Y-13075698D02*
X10524944Y-13066174D01*
X10524944Y-13066174D02*
X10543991Y-13056650D01*
X10543991Y-13056650D02*
X10572563Y-13056650D01*
X10572563Y-13056650D02*
X10591610Y-13066174D01*
X10591610Y-13066174D02*
X10601134Y-13085222D01*
X10601134Y-13085222D02*
X10601134Y-13189984D01*
X10601134Y-13085222D02*
X10610658Y-13066174D01*
X10610658Y-13066174D02*
X10629705Y-13056650D01*
X10629705Y-13056650D02*
X10658277Y-13056650D01*
X10658277Y-13056650D02*
X10677325Y-13066174D01*
X10677325Y-13066174D02*
X10686848Y-13085222D01*
X10686848Y-13085222D02*
X10686848Y-13189984D01*
X10782086Y-13189984D02*
X10782086Y-13056650D01*
X10782086Y-13075698D02*
X10791610Y-13066174D01*
X10791610Y-13066174D02*
X10810658Y-13056650D01*
X10810658Y-13056650D02*
X10839229Y-13056650D01*
X10839229Y-13056650D02*
X10858277Y-13066174D01*
X10858277Y-13066174D02*
X10867801Y-13085222D01*
X10867801Y-13085222D02*
X10867801Y-13189984D01*
X10867801Y-13085222D02*
X10877325Y-13066174D01*
X10877325Y-13066174D02*
X10896372Y-13056650D01*
X10896372Y-13056650D02*
X10924944Y-13056650D01*
X10924944Y-13056650D02*
X10943991Y-13066174D01*
X10943991Y-13066174D02*
X10953515Y-13085222D01*
X10953515Y-13085222D02*
X10953515Y-13189984D01*
X11343991Y-12980460D02*
X11172563Y-13237603D01*
X11601134Y-12989984D02*
X11620182Y-12989984D01*
X11620182Y-12989984D02*
X11639229Y-12999508D01*
X11639229Y-12999508D02*
X11648753Y-13009031D01*
X11648753Y-13009031D02*
X11658277Y-13028079D01*
X11658277Y-13028079D02*
X11667801Y-13066174D01*
X11667801Y-13066174D02*
X11667801Y-13113793D01*
X11667801Y-13113793D02*
X11658277Y-13151888D01*
X11658277Y-13151888D02*
X11648753Y-13170936D01*
X11648753Y-13170936D02*
X11639229Y-13180460D01*
X11639229Y-13180460D02*
X11620182Y-13189984D01*
X11620182Y-13189984D02*
X11601134Y-13189984D01*
X11601134Y-13189984D02*
X11582086Y-13180460D01*
X11582086Y-13180460D02*
X11572563Y-13170936D01*
X11572563Y-13170936D02*
X11563039Y-13151888D01*
X11563039Y-13151888D02*
X11553515Y-13113793D01*
X11553515Y-13113793D02*
X11553515Y-13066174D01*
X11553515Y-13066174D02*
X11563039Y-13028079D01*
X11563039Y-13028079D02*
X11572563Y-13009031D01*
X11572563Y-13009031D02*
X11582086Y-12999508D01*
X11582086Y-12999508D02*
X11601134Y-12989984D01*
X11753515Y-13170936D02*
X11763039Y-13180460D01*
X11763039Y-13180460D02*
X11753515Y-13189984D01*
X11753515Y-13189984D02*
X11743991Y-13180460D01*
X11743991Y-13180460D02*
X11753515Y-13170936D01*
X11753515Y-13170936D02*
X11753515Y-13189984D01*
X11886848Y-12989984D02*
X11905896Y-12989984D01*
X11905896Y-12989984D02*
X11924944Y-12999508D01*
X11924944Y-12999508D02*
X11934467Y-13009031D01*
X11934467Y-13009031D02*
X11943991Y-13028079D01*
X11943991Y-13028079D02*
X11953515Y-13066174D01*
X11953515Y-13066174D02*
X11953515Y-13113793D01*
X11953515Y-13113793D02*
X11943991Y-13151888D01*
X11943991Y-13151888D02*
X11934467Y-13170936D01*
X11934467Y-13170936D02*
X11924944Y-13180460D01*
X11924944Y-13180460D02*
X11905896Y-13189984D01*
X11905896Y-13189984D02*
X11886848Y-13189984D01*
X11886848Y-13189984D02*
X11867801Y-13180460D01*
X11867801Y-13180460D02*
X11858277Y-13170936D01*
X11858277Y-13170936D02*
X11848753Y-13151888D01*
X11848753Y-13151888D02*
X11839229Y-13113793D01*
X11839229Y-13113793D02*
X11839229Y-13066174D01*
X11839229Y-13066174D02*
X11848753Y-13028079D01*
X11848753Y-13028079D02*
X11858277Y-13009031D01*
X11858277Y-13009031D02*
X11867801Y-12999508D01*
X11867801Y-12999508D02*
X11886848Y-12989984D01*
X12134467Y-12989984D02*
X12039229Y-12989984D01*
X12039229Y-12989984D02*
X12029706Y-13085222D01*
X12029706Y-13085222D02*
X12039229Y-13075698D01*
X12039229Y-13075698D02*
X12058277Y-13066174D01*
X12058277Y-13066174D02*
X12105896Y-13066174D01*
X12105896Y-13066174D02*
X12124944Y-13075698D01*
X12124944Y-13075698D02*
X12134467Y-13085222D01*
X12134467Y-13085222D02*
X12143991Y-13104269D01*
X12143991Y-13104269D02*
X12143991Y-13151888D01*
X12143991Y-13151888D02*
X12134467Y-13170936D01*
X12134467Y-13170936D02*
X12124944Y-13180460D01*
X12124944Y-13180460D02*
X12105896Y-13189984D01*
X12105896Y-13189984D02*
X12058277Y-13189984D01*
X12058277Y-13189984D02*
X12039229Y-13180460D01*
X12039229Y-13180460D02*
X12029706Y-13170936D01*
X12239229Y-13189984D02*
X12277325Y-13189984D01*
X12277325Y-13189984D02*
X12296372Y-13180460D01*
X12296372Y-13180460D02*
X12305896Y-13170936D01*
X12305896Y-13170936D02*
X12324944Y-13142365D01*
X12324944Y-13142365D02*
X12334467Y-13104269D01*
X12334467Y-13104269D02*
X12334467Y-13028079D01*
X12334467Y-13028079D02*
X12324944Y-13009031D01*
X12324944Y-13009031D02*
X12315420Y-12999508D01*
X12315420Y-12999508D02*
X12296372Y-12989984D01*
X12296372Y-12989984D02*
X12258277Y-12989984D01*
X12258277Y-12989984D02*
X12239229Y-12999508D01*
X12239229Y-12999508D02*
X12229706Y-13009031D01*
X12229706Y-13009031D02*
X12220182Y-13028079D01*
X12220182Y-13028079D02*
X12220182Y-13075698D01*
X12220182Y-13075698D02*
X12229706Y-13094746D01*
X12229706Y-13094746D02*
X12239229Y-13104269D01*
X12239229Y-13104269D02*
X12258277Y-13113793D01*
X12258277Y-13113793D02*
X12296372Y-13113793D01*
X12296372Y-13113793D02*
X12315420Y-13104269D01*
X12315420Y-13104269D02*
X12324944Y-13094746D01*
X12324944Y-13094746D02*
X12334467Y-13075698D01*
X12524944Y-13189984D02*
X12410658Y-13189984D01*
X12467801Y-13189984D02*
X12467801Y-12989984D01*
X12467801Y-12989984D02*
X12448753Y-13018555D01*
X12448753Y-13018555D02*
X12429706Y-13037603D01*
X12429706Y-13037603D02*
X12410658Y-13047127D01*
X12601134Y-12989984D02*
X12601134Y-13028079D01*
X12677325Y-12989984D02*
X12677325Y-13028079D01*
X12972563Y-13266174D02*
X12963039Y-13256650D01*
X12963039Y-13256650D02*
X12943991Y-13228079D01*
X12943991Y-13228079D02*
X12934468Y-13209031D01*
X12934468Y-13209031D02*
X12924944Y-13180460D01*
X12924944Y-13180460D02*
X12915420Y-13132841D01*
X12915420Y-13132841D02*
X12915420Y-13094746D01*
X12915420Y-13094746D02*
X12924944Y-13047127D01*
X12924944Y-13047127D02*
X12934468Y-13018555D01*
X12934468Y-13018555D02*
X12943991Y-12999508D01*
X12943991Y-12999508D02*
X12963039Y-12970936D01*
X12963039Y-12970936D02*
X12972563Y-12961412D01*
X13039229Y-13009031D02*
X13048753Y-12999508D01*
X13048753Y-12999508D02*
X13067801Y-12989984D01*
X13067801Y-12989984D02*
X13115420Y-12989984D01*
X13115420Y-12989984D02*
X13134468Y-12999508D01*
X13134468Y-12999508D02*
X13143991Y-13009031D01*
X13143991Y-13009031D02*
X13153515Y-13028079D01*
X13153515Y-13028079D02*
X13153515Y-13047127D01*
X13153515Y-13047127D02*
X13143991Y-13075698D01*
X13143991Y-13075698D02*
X13029706Y-13189984D01*
X13029706Y-13189984D02*
X13153515Y-13189984D01*
X13324944Y-13056650D02*
X13324944Y-13189984D01*
X13277325Y-12980460D02*
X13229706Y-13123317D01*
X13229706Y-13123317D02*
X13353515Y-13123317D01*
X13582087Y-13189984D02*
X13582087Y-12989984D01*
X13667801Y-13189984D02*
X13667801Y-13085222D01*
X13667801Y-13085222D02*
X13658277Y-13066174D01*
X13658277Y-13066174D02*
X13639230Y-13056650D01*
X13639230Y-13056650D02*
X13610658Y-13056650D01*
X13610658Y-13056650D02*
X13591610Y-13066174D01*
X13591610Y-13066174D02*
X13582087Y-13075698D01*
X13791610Y-13189984D02*
X13772563Y-13180460D01*
X13772563Y-13180460D02*
X13763039Y-13170936D01*
X13763039Y-13170936D02*
X13753515Y-13151888D01*
X13753515Y-13151888D02*
X13753515Y-13094746D01*
X13753515Y-13094746D02*
X13763039Y-13075698D01*
X13763039Y-13075698D02*
X13772563Y-13066174D01*
X13772563Y-13066174D02*
X13791610Y-13056650D01*
X13791610Y-13056650D02*
X13820182Y-13056650D01*
X13820182Y-13056650D02*
X13839230Y-13066174D01*
X13839230Y-13066174D02*
X13848753Y-13075698D01*
X13848753Y-13075698D02*
X13858277Y-13094746D01*
X13858277Y-13094746D02*
X13858277Y-13151888D01*
X13858277Y-13151888D02*
X13848753Y-13170936D01*
X13848753Y-13170936D02*
X13839230Y-13180460D01*
X13839230Y-13180460D02*
X13820182Y-13189984D01*
X13820182Y-13189984D02*
X13791610Y-13189984D01*
X13972563Y-13189984D02*
X13953515Y-13180460D01*
X13953515Y-13180460D02*
X13943991Y-13161412D01*
X13943991Y-13161412D02*
X13943991Y-12989984D01*
X14124944Y-13180460D02*
X14105896Y-13189984D01*
X14105896Y-13189984D02*
X14067801Y-13189984D01*
X14067801Y-13189984D02*
X14048753Y-13180460D01*
X14048753Y-13180460D02*
X14039230Y-13161412D01*
X14039230Y-13161412D02*
X14039230Y-13085222D01*
X14039230Y-13085222D02*
X14048753Y-13066174D01*
X14048753Y-13066174D02*
X14067801Y-13056650D01*
X14067801Y-13056650D02*
X14105896Y-13056650D01*
X14105896Y-13056650D02*
X14124944Y-13066174D01*
X14124944Y-13066174D02*
X14134468Y-13085222D01*
X14134468Y-13085222D02*
X14134468Y-13104269D01*
X14134468Y-13104269D02*
X14039230Y-13123317D01*
X14210658Y-13180460D02*
X14229706Y-13189984D01*
X14229706Y-13189984D02*
X14267801Y-13189984D01*
X14267801Y-13189984D02*
X14286849Y-13180460D01*
X14286849Y-13180460D02*
X14296372Y-13161412D01*
X14296372Y-13161412D02*
X14296372Y-13151888D01*
X14296372Y-13151888D02*
X14286849Y-13132841D01*
X14286849Y-13132841D02*
X14267801Y-13123317D01*
X14267801Y-13123317D02*
X14239230Y-13123317D01*
X14239230Y-13123317D02*
X14220182Y-13113793D01*
X14220182Y-13113793D02*
X14210658Y-13094746D01*
X14210658Y-13094746D02*
X14210658Y-13085222D01*
X14210658Y-13085222D02*
X14220182Y-13066174D01*
X14220182Y-13066174D02*
X14239230Y-13056650D01*
X14239230Y-13056650D02*
X14267801Y-13056650D01*
X14267801Y-13056650D02*
X14286849Y-13066174D01*
X14363039Y-13266174D02*
X14372563Y-13256650D01*
X14372563Y-13256650D02*
X14391611Y-13228079D01*
X14391611Y-13228079D02*
X14401134Y-13209031D01*
X14401134Y-13209031D02*
X14410658Y-13180460D01*
X14410658Y-13180460D02*
X14420182Y-13132841D01*
X14420182Y-13132841D02*
X14420182Y-13094746D01*
X14420182Y-13094746D02*
X14410658Y-13047127D01*
X14410658Y-13047127D02*
X14401134Y-13018555D01*
X14401134Y-13018555D02*
X14391611Y-12999508D01*
X14391611Y-12999508D02*
X14372563Y-12970936D01*
X14372563Y-12970936D02*
X14363039Y-12961412D01*
X9197500Y-13268500D02*
X9397500Y-13468500D01*
X9397500Y-13268500D02*
X9197500Y-13468500D01*
X9397500Y-13368500D02*
G75*
G02*
X9197500Y-13368500I-100000J0D01*
G01*
X9197500Y-13368500D02*
G75*
G02*
X9397500Y-13368500I100000J0D01*
G01*
X9648753Y-13279031D02*
X9658277Y-13269508D01*
X9658277Y-13269508D02*
X9677324Y-13259984D01*
X9677324Y-13259984D02*
X9724944Y-13259984D01*
X9724944Y-13259984D02*
X9743991Y-13269508D01*
X9743991Y-13269508D02*
X9753515Y-13279031D01*
X9753515Y-13279031D02*
X9763039Y-13298079D01*
X9763039Y-13298079D02*
X9763039Y-13317127D01*
X9763039Y-13317127D02*
X9753515Y-13345698D01*
X9753515Y-13345698D02*
X9639229Y-13459984D01*
X9639229Y-13459984D02*
X9763039Y-13459984D01*
X9848753Y-13440936D02*
X9858277Y-13450460D01*
X9858277Y-13450460D02*
X9848753Y-13459984D01*
X9848753Y-13459984D02*
X9839229Y-13450460D01*
X9839229Y-13450460D02*
X9848753Y-13440936D01*
X9848753Y-13440936D02*
X9848753Y-13459984D01*
X10029705Y-13259984D02*
X9991610Y-13259984D01*
X9991610Y-13259984D02*
X9972563Y-13269508D01*
X9972563Y-13269508D02*
X9963039Y-13279031D01*
X9963039Y-13279031D02*
X9943991Y-13307603D01*
X9943991Y-13307603D02*
X9934467Y-13345698D01*
X9934467Y-13345698D02*
X9934467Y-13421888D01*
X9934467Y-13421888D02*
X9943991Y-13440936D01*
X9943991Y-13440936D02*
X9953515Y-13450460D01*
X9953515Y-13450460D02*
X9972563Y-13459984D01*
X9972563Y-13459984D02*
X10010658Y-13459984D01*
X10010658Y-13459984D02*
X10029705Y-13450460D01*
X10029705Y-13450460D02*
X10039229Y-13440936D01*
X10039229Y-13440936D02*
X10048753Y-13421888D01*
X10048753Y-13421888D02*
X10048753Y-13374269D01*
X10048753Y-13374269D02*
X10039229Y-13355222D01*
X10039229Y-13355222D02*
X10029705Y-13345698D01*
X10029705Y-13345698D02*
X10010658Y-13336174D01*
X10010658Y-13336174D02*
X9972563Y-13336174D01*
X9972563Y-13336174D02*
X9953515Y-13345698D01*
X9953515Y-13345698D02*
X9943991Y-13355222D01*
X9943991Y-13355222D02*
X9934467Y-13374269D01*
X10172563Y-13259984D02*
X10191610Y-13259984D01*
X10191610Y-13259984D02*
X10210658Y-13269508D01*
X10210658Y-13269508D02*
X10220182Y-13279031D01*
X10220182Y-13279031D02*
X10229705Y-13298079D01*
X10229705Y-13298079D02*
X10239229Y-13336174D01*
X10239229Y-13336174D02*
X10239229Y-13383793D01*
X10239229Y-13383793D02*
X10229705Y-13421888D01*
X10229705Y-13421888D02*
X10220182Y-13440936D01*
X10220182Y-13440936D02*
X10210658Y-13450460D01*
X10210658Y-13450460D02*
X10191610Y-13459984D01*
X10191610Y-13459984D02*
X10172563Y-13459984D01*
X10172563Y-13459984D02*
X10153515Y-13450460D01*
X10153515Y-13450460D02*
X10143991Y-13440936D01*
X10143991Y-13440936D02*
X10134467Y-13421888D01*
X10134467Y-13421888D02*
X10124944Y-13383793D01*
X10124944Y-13383793D02*
X10124944Y-13336174D01*
X10124944Y-13336174D02*
X10134467Y-13298079D01*
X10134467Y-13298079D02*
X10143991Y-13279031D01*
X10143991Y-13279031D02*
X10153515Y-13269508D01*
X10153515Y-13269508D02*
X10172563Y-13259984D01*
X10363039Y-13259984D02*
X10382086Y-13259984D01*
X10382086Y-13259984D02*
X10401134Y-13269508D01*
X10401134Y-13269508D02*
X10410658Y-13279031D01*
X10410658Y-13279031D02*
X10420182Y-13298079D01*
X10420182Y-13298079D02*
X10429705Y-13336174D01*
X10429705Y-13336174D02*
X10429705Y-13383793D01*
X10429705Y-13383793D02*
X10420182Y-13421888D01*
X10420182Y-13421888D02*
X10410658Y-13440936D01*
X10410658Y-13440936D02*
X10401134Y-13450460D01*
X10401134Y-13450460D02*
X10382086Y-13459984D01*
X10382086Y-13459984D02*
X10363039Y-13459984D01*
X10363039Y-13459984D02*
X10343991Y-13450460D01*
X10343991Y-13450460D02*
X10334467Y-13440936D01*
X10334467Y-13440936D02*
X10324944Y-13421888D01*
X10324944Y-13421888D02*
X10315420Y-13383793D01*
X10315420Y-13383793D02*
X10315420Y-13336174D01*
X10315420Y-13336174D02*
X10324944Y-13298079D01*
X10324944Y-13298079D02*
X10334467Y-13279031D01*
X10334467Y-13279031D02*
X10343991Y-13269508D01*
X10343991Y-13269508D02*
X10363039Y-13259984D01*
X10515420Y-13459984D02*
X10515420Y-13326650D01*
X10515420Y-13345698D02*
X10524944Y-13336174D01*
X10524944Y-13336174D02*
X10543991Y-13326650D01*
X10543991Y-13326650D02*
X10572563Y-13326650D01*
X10572563Y-13326650D02*
X10591610Y-13336174D01*
X10591610Y-13336174D02*
X10601134Y-13355222D01*
X10601134Y-13355222D02*
X10601134Y-13459984D01*
X10601134Y-13355222D02*
X10610658Y-13336174D01*
X10610658Y-13336174D02*
X10629705Y-13326650D01*
X10629705Y-13326650D02*
X10658277Y-13326650D01*
X10658277Y-13326650D02*
X10677325Y-13336174D01*
X10677325Y-13336174D02*
X10686848Y-13355222D01*
X10686848Y-13355222D02*
X10686848Y-13459984D01*
X10782086Y-13459984D02*
X10782086Y-13326650D01*
X10782086Y-13345698D02*
X10791610Y-13336174D01*
X10791610Y-13336174D02*
X10810658Y-13326650D01*
X10810658Y-13326650D02*
X10839229Y-13326650D01*
X10839229Y-13326650D02*
X10858277Y-13336174D01*
X10858277Y-13336174D02*
X10867801Y-13355222D01*
X10867801Y-13355222D02*
X10867801Y-13459984D01*
X10867801Y-13355222D02*
X10877325Y-13336174D01*
X10877325Y-13336174D02*
X10896372Y-13326650D01*
X10896372Y-13326650D02*
X10924944Y-13326650D01*
X10924944Y-13326650D02*
X10943991Y-13336174D01*
X10943991Y-13336174D02*
X10953515Y-13355222D01*
X10953515Y-13355222D02*
X10953515Y-13459984D01*
X11343991Y-13250460D02*
X11172563Y-13507603D01*
X11601134Y-13259984D02*
X11620182Y-13259984D01*
X11620182Y-13259984D02*
X11639229Y-13269508D01*
X11639229Y-13269508D02*
X11648753Y-13279031D01*
X11648753Y-13279031D02*
X11658277Y-13298079D01*
X11658277Y-13298079D02*
X11667801Y-13336174D01*
X11667801Y-13336174D02*
X11667801Y-13383793D01*
X11667801Y-13383793D02*
X11658277Y-13421888D01*
X11658277Y-13421888D02*
X11648753Y-13440936D01*
X11648753Y-13440936D02*
X11639229Y-13450460D01*
X11639229Y-13450460D02*
X11620182Y-13459984D01*
X11620182Y-13459984D02*
X11601134Y-13459984D01*
X11601134Y-13459984D02*
X11582086Y-13450460D01*
X11582086Y-13450460D02*
X11572563Y-13440936D01*
X11572563Y-13440936D02*
X11563039Y-13421888D01*
X11563039Y-13421888D02*
X11553515Y-13383793D01*
X11553515Y-13383793D02*
X11553515Y-13336174D01*
X11553515Y-13336174D02*
X11563039Y-13298079D01*
X11563039Y-13298079D02*
X11572563Y-13279031D01*
X11572563Y-13279031D02*
X11582086Y-13269508D01*
X11582086Y-13269508D02*
X11601134Y-13259984D01*
X11753515Y-13440936D02*
X11763039Y-13450460D01*
X11763039Y-13450460D02*
X11753515Y-13459984D01*
X11753515Y-13459984D02*
X11743991Y-13450460D01*
X11743991Y-13450460D02*
X11753515Y-13440936D01*
X11753515Y-13440936D02*
X11753515Y-13459984D01*
X11953515Y-13459984D02*
X11839229Y-13459984D01*
X11896372Y-13459984D02*
X11896372Y-13259984D01*
X11896372Y-13259984D02*
X11877325Y-13288555D01*
X11877325Y-13288555D02*
X11858277Y-13307603D01*
X11858277Y-13307603D02*
X11839229Y-13317127D01*
X12077325Y-13259984D02*
X12096372Y-13259984D01*
X12096372Y-13259984D02*
X12115420Y-13269508D01*
X12115420Y-13269508D02*
X12124944Y-13279031D01*
X12124944Y-13279031D02*
X12134467Y-13298079D01*
X12134467Y-13298079D02*
X12143991Y-13336174D01*
X12143991Y-13336174D02*
X12143991Y-13383793D01*
X12143991Y-13383793D02*
X12134467Y-13421888D01*
X12134467Y-13421888D02*
X12124944Y-13440936D01*
X12124944Y-13440936D02*
X12115420Y-13450460D01*
X12115420Y-13450460D02*
X12096372Y-13459984D01*
X12096372Y-13459984D02*
X12077325Y-13459984D01*
X12077325Y-13459984D02*
X12058277Y-13450460D01*
X12058277Y-13450460D02*
X12048753Y-13440936D01*
X12048753Y-13440936D02*
X12039229Y-13421888D01*
X12039229Y-13421888D02*
X12029706Y-13383793D01*
X12029706Y-13383793D02*
X12029706Y-13336174D01*
X12029706Y-13336174D02*
X12039229Y-13298079D01*
X12039229Y-13298079D02*
X12048753Y-13279031D01*
X12048753Y-13279031D02*
X12058277Y-13269508D01*
X12058277Y-13269508D02*
X12077325Y-13259984D01*
X12220182Y-13279031D02*
X12229706Y-13269508D01*
X12229706Y-13269508D02*
X12248753Y-13259984D01*
X12248753Y-13259984D02*
X12296372Y-13259984D01*
X12296372Y-13259984D02*
X12315420Y-13269508D01*
X12315420Y-13269508D02*
X12324944Y-13279031D01*
X12324944Y-13279031D02*
X12334467Y-13298079D01*
X12334467Y-13298079D02*
X12334467Y-13317127D01*
X12334467Y-13317127D02*
X12324944Y-13345698D01*
X12324944Y-13345698D02*
X12210658Y-13459984D01*
X12210658Y-13459984D02*
X12334467Y-13459984D01*
X12505896Y-13326650D02*
X12505896Y-13459984D01*
X12458277Y-13250460D02*
X12410658Y-13393317D01*
X12410658Y-13393317D02*
X12534467Y-13393317D01*
X12601134Y-13259984D02*
X12601134Y-13298079D01*
X12677325Y-13259984D02*
X12677325Y-13298079D01*
X12972563Y-13536174D02*
X12963039Y-13526650D01*
X12963039Y-13526650D02*
X12943991Y-13498079D01*
X12943991Y-13498079D02*
X12934468Y-13479031D01*
X12934468Y-13479031D02*
X12924944Y-13450460D01*
X12924944Y-13450460D02*
X12915420Y-13402841D01*
X12915420Y-13402841D02*
X12915420Y-13364746D01*
X12915420Y-13364746D02*
X12924944Y-13317127D01*
X12924944Y-13317127D02*
X12934468Y-13288555D01*
X12934468Y-13288555D02*
X12943991Y-13269508D01*
X12943991Y-13269508D02*
X12963039Y-13240936D01*
X12963039Y-13240936D02*
X12972563Y-13231412D01*
X13039229Y-13279031D02*
X13048753Y-13269508D01*
X13048753Y-13269508D02*
X13067801Y-13259984D01*
X13067801Y-13259984D02*
X13115420Y-13259984D01*
X13115420Y-13259984D02*
X13134468Y-13269508D01*
X13134468Y-13269508D02*
X13143991Y-13279031D01*
X13143991Y-13279031D02*
X13153515Y-13298079D01*
X13153515Y-13298079D02*
X13153515Y-13317127D01*
X13153515Y-13317127D02*
X13143991Y-13345698D01*
X13143991Y-13345698D02*
X13029706Y-13459984D01*
X13029706Y-13459984D02*
X13153515Y-13459984D01*
X13391610Y-13459984D02*
X13391610Y-13259984D01*
X13477325Y-13459984D02*
X13477325Y-13355222D01*
X13477325Y-13355222D02*
X13467801Y-13336174D01*
X13467801Y-13336174D02*
X13448753Y-13326650D01*
X13448753Y-13326650D02*
X13420182Y-13326650D01*
X13420182Y-13326650D02*
X13401134Y-13336174D01*
X13401134Y-13336174D02*
X13391610Y-13345698D01*
X13601134Y-13459984D02*
X13582087Y-13450460D01*
X13582087Y-13450460D02*
X13572563Y-13440936D01*
X13572563Y-13440936D02*
X13563039Y-13421888D01*
X13563039Y-13421888D02*
X13563039Y-13364746D01*
X13563039Y-13364746D02*
X13572563Y-13345698D01*
X13572563Y-13345698D02*
X13582087Y-13336174D01*
X13582087Y-13336174D02*
X13601134Y-13326650D01*
X13601134Y-13326650D02*
X13629706Y-13326650D01*
X13629706Y-13326650D02*
X13648753Y-13336174D01*
X13648753Y-13336174D02*
X13658277Y-13345698D01*
X13658277Y-13345698D02*
X13667801Y-13364746D01*
X13667801Y-13364746D02*
X13667801Y-13421888D01*
X13667801Y-13421888D02*
X13658277Y-13440936D01*
X13658277Y-13440936D02*
X13648753Y-13450460D01*
X13648753Y-13450460D02*
X13629706Y-13459984D01*
X13629706Y-13459984D02*
X13601134Y-13459984D01*
X13782087Y-13459984D02*
X13763039Y-13450460D01*
X13763039Y-13450460D02*
X13753515Y-13431412D01*
X13753515Y-13431412D02*
X13753515Y-13259984D01*
X13934468Y-13450460D02*
X13915420Y-13459984D01*
X13915420Y-13459984D02*
X13877325Y-13459984D01*
X13877325Y-13459984D02*
X13858277Y-13450460D01*
X13858277Y-13450460D02*
X13848753Y-13431412D01*
X13848753Y-13431412D02*
X13848753Y-13355222D01*
X13848753Y-13355222D02*
X13858277Y-13336174D01*
X13858277Y-13336174D02*
X13877325Y-13326650D01*
X13877325Y-13326650D02*
X13915420Y-13326650D01*
X13915420Y-13326650D02*
X13934468Y-13336174D01*
X13934468Y-13336174D02*
X13943991Y-13355222D01*
X13943991Y-13355222D02*
X13943991Y-13374269D01*
X13943991Y-13374269D02*
X13848753Y-13393317D01*
X14020182Y-13450460D02*
X14039230Y-13459984D01*
X14039230Y-13459984D02*
X14077325Y-13459984D01*
X14077325Y-13459984D02*
X14096372Y-13450460D01*
X14096372Y-13450460D02*
X14105896Y-13431412D01*
X14105896Y-13431412D02*
X14105896Y-13421888D01*
X14105896Y-13421888D02*
X14096372Y-13402841D01*
X14096372Y-13402841D02*
X14077325Y-13393317D01*
X14077325Y-13393317D02*
X14048753Y-13393317D01*
X14048753Y-13393317D02*
X14029706Y-13383793D01*
X14029706Y-13383793D02*
X14020182Y-13364746D01*
X14020182Y-13364746D02*
X14020182Y-13355222D01*
X14020182Y-13355222D02*
X14029706Y-13336174D01*
X14029706Y-13336174D02*
X14048753Y-13326650D01*
X14048753Y-13326650D02*
X14077325Y-13326650D01*
X14077325Y-13326650D02*
X14096372Y-13336174D01*
X14172563Y-13536174D02*
X14182087Y-13526650D01*
X14182087Y-13526650D02*
X14201134Y-13498079D01*
X14201134Y-13498079D02*
X14210658Y-13479031D01*
X14210658Y-13479031D02*
X14220182Y-13450460D01*
X14220182Y-13450460D02*
X14229706Y-13402841D01*
X14229706Y-13402841D02*
X14229706Y-13364746D01*
X14229706Y-13364746D02*
X14220182Y-13317127D01*
X14220182Y-13317127D02*
X14210658Y-13288555D01*
X14210658Y-13288555D02*
X14201134Y-13269508D01*
X14201134Y-13269508D02*
X14182087Y-13240936D01*
X14182087Y-13240936D02*
X14172563Y-13231412D01*
D15*
X9227500Y-13603500D02*
X9397500Y-13773500D01*
X9397500Y-13603500D02*
X9227500Y-13773500D01*
X9312500Y-13603500D02*
X9312500Y-13773500D01*
X9227500Y-13688500D02*
X9397500Y-13688500D01*
D11*
X9763039Y-13779984D02*
X9648753Y-13779984D01*
X9705896Y-13779984D02*
X9705896Y-13579984D01*
X9705896Y-13579984D02*
X9686848Y-13608555D01*
X9686848Y-13608555D02*
X9667801Y-13627603D01*
X9667801Y-13627603D02*
X9648753Y-13637127D01*
X9848753Y-13760936D02*
X9858277Y-13770460D01*
X9858277Y-13770460D02*
X9848753Y-13779984D01*
X9848753Y-13779984D02*
X9839229Y-13770460D01*
X9839229Y-13770460D02*
X9848753Y-13760936D01*
X9848753Y-13760936D02*
X9848753Y-13779984D01*
X9924944Y-13579984D02*
X10058277Y-13579984D01*
X10058277Y-13579984D02*
X9972563Y-13779984D01*
X10172563Y-13579984D02*
X10191610Y-13579984D01*
X10191610Y-13579984D02*
X10210658Y-13589508D01*
X10210658Y-13589508D02*
X10220182Y-13599031D01*
X10220182Y-13599031D02*
X10229705Y-13618079D01*
X10229705Y-13618079D02*
X10239229Y-13656174D01*
X10239229Y-13656174D02*
X10239229Y-13703793D01*
X10239229Y-13703793D02*
X10229705Y-13741888D01*
X10229705Y-13741888D02*
X10220182Y-13760936D01*
X10220182Y-13760936D02*
X10210658Y-13770460D01*
X10210658Y-13770460D02*
X10191610Y-13779984D01*
X10191610Y-13779984D02*
X10172563Y-13779984D01*
X10172563Y-13779984D02*
X10153515Y-13770460D01*
X10153515Y-13770460D02*
X10143991Y-13760936D01*
X10143991Y-13760936D02*
X10134467Y-13741888D01*
X10134467Y-13741888D02*
X10124944Y-13703793D01*
X10124944Y-13703793D02*
X10124944Y-13656174D01*
X10124944Y-13656174D02*
X10134467Y-13618079D01*
X10134467Y-13618079D02*
X10143991Y-13599031D01*
X10143991Y-13599031D02*
X10153515Y-13589508D01*
X10153515Y-13589508D02*
X10172563Y-13579984D01*
X10363039Y-13579984D02*
X10382086Y-13579984D01*
X10382086Y-13579984D02*
X10401134Y-13589508D01*
X10401134Y-13589508D02*
X10410658Y-13599031D01*
X10410658Y-13599031D02*
X10420182Y-13618079D01*
X10420182Y-13618079D02*
X10429705Y-13656174D01*
X10429705Y-13656174D02*
X10429705Y-13703793D01*
X10429705Y-13703793D02*
X10420182Y-13741888D01*
X10420182Y-13741888D02*
X10410658Y-13760936D01*
X10410658Y-13760936D02*
X10401134Y-13770460D01*
X10401134Y-13770460D02*
X10382086Y-13779984D01*
X10382086Y-13779984D02*
X10363039Y-13779984D01*
X10363039Y-13779984D02*
X10343991Y-13770460D01*
X10343991Y-13770460D02*
X10334467Y-13760936D01*
X10334467Y-13760936D02*
X10324944Y-13741888D01*
X10324944Y-13741888D02*
X10315420Y-13703793D01*
X10315420Y-13703793D02*
X10315420Y-13656174D01*
X10315420Y-13656174D02*
X10324944Y-13618079D01*
X10324944Y-13618079D02*
X10334467Y-13599031D01*
X10334467Y-13599031D02*
X10343991Y-13589508D01*
X10343991Y-13589508D02*
X10363039Y-13579984D01*
X10515420Y-13779984D02*
X10515420Y-13646650D01*
X10515420Y-13665698D02*
X10524944Y-13656174D01*
X10524944Y-13656174D02*
X10543991Y-13646650D01*
X10543991Y-13646650D02*
X10572563Y-13646650D01*
X10572563Y-13646650D02*
X10591610Y-13656174D01*
X10591610Y-13656174D02*
X10601134Y-13675222D01*
X10601134Y-13675222D02*
X10601134Y-13779984D01*
X10601134Y-13675222D02*
X10610658Y-13656174D01*
X10610658Y-13656174D02*
X10629705Y-13646650D01*
X10629705Y-13646650D02*
X10658277Y-13646650D01*
X10658277Y-13646650D02*
X10677325Y-13656174D01*
X10677325Y-13656174D02*
X10686848Y-13675222D01*
X10686848Y-13675222D02*
X10686848Y-13779984D01*
X10782086Y-13779984D02*
X10782086Y-13646650D01*
X10782086Y-13665698D02*
X10791610Y-13656174D01*
X10791610Y-13656174D02*
X10810658Y-13646650D01*
X10810658Y-13646650D02*
X10839229Y-13646650D01*
X10839229Y-13646650D02*
X10858277Y-13656174D01*
X10858277Y-13656174D02*
X10867801Y-13675222D01*
X10867801Y-13675222D02*
X10867801Y-13779984D01*
X10867801Y-13675222D02*
X10877325Y-13656174D01*
X10877325Y-13656174D02*
X10896372Y-13646650D01*
X10896372Y-13646650D02*
X10924944Y-13646650D01*
X10924944Y-13646650D02*
X10943991Y-13656174D01*
X10943991Y-13656174D02*
X10953515Y-13675222D01*
X10953515Y-13675222D02*
X10953515Y-13779984D01*
X11343991Y-13570460D02*
X11172563Y-13827603D01*
X11601134Y-13579984D02*
X11620182Y-13579984D01*
X11620182Y-13579984D02*
X11639229Y-13589508D01*
X11639229Y-13589508D02*
X11648753Y-13599031D01*
X11648753Y-13599031D02*
X11658277Y-13618079D01*
X11658277Y-13618079D02*
X11667801Y-13656174D01*
X11667801Y-13656174D02*
X11667801Y-13703793D01*
X11667801Y-13703793D02*
X11658277Y-13741888D01*
X11658277Y-13741888D02*
X11648753Y-13760936D01*
X11648753Y-13760936D02*
X11639229Y-13770460D01*
X11639229Y-13770460D02*
X11620182Y-13779984D01*
X11620182Y-13779984D02*
X11601134Y-13779984D01*
X11601134Y-13779984D02*
X11582086Y-13770460D01*
X11582086Y-13770460D02*
X11572563Y-13760936D01*
X11572563Y-13760936D02*
X11563039Y-13741888D01*
X11563039Y-13741888D02*
X11553515Y-13703793D01*
X11553515Y-13703793D02*
X11553515Y-13656174D01*
X11553515Y-13656174D02*
X11563039Y-13618079D01*
X11563039Y-13618079D02*
X11572563Y-13599031D01*
X11572563Y-13599031D02*
X11582086Y-13589508D01*
X11582086Y-13589508D02*
X11601134Y-13579984D01*
X11753515Y-13760936D02*
X11763039Y-13770460D01*
X11763039Y-13770460D02*
X11753515Y-13779984D01*
X11753515Y-13779984D02*
X11743991Y-13770460D01*
X11743991Y-13770460D02*
X11753515Y-13760936D01*
X11753515Y-13760936D02*
X11753515Y-13779984D01*
X11886848Y-13579984D02*
X11905896Y-13579984D01*
X11905896Y-13579984D02*
X11924944Y-13589508D01*
X11924944Y-13589508D02*
X11934467Y-13599031D01*
X11934467Y-13599031D02*
X11943991Y-13618079D01*
X11943991Y-13618079D02*
X11953515Y-13656174D01*
X11953515Y-13656174D02*
X11953515Y-13703793D01*
X11953515Y-13703793D02*
X11943991Y-13741888D01*
X11943991Y-13741888D02*
X11934467Y-13760936D01*
X11934467Y-13760936D02*
X11924944Y-13770460D01*
X11924944Y-13770460D02*
X11905896Y-13779984D01*
X11905896Y-13779984D02*
X11886848Y-13779984D01*
X11886848Y-13779984D02*
X11867801Y-13770460D01*
X11867801Y-13770460D02*
X11858277Y-13760936D01*
X11858277Y-13760936D02*
X11848753Y-13741888D01*
X11848753Y-13741888D02*
X11839229Y-13703793D01*
X11839229Y-13703793D02*
X11839229Y-13656174D01*
X11839229Y-13656174D02*
X11848753Y-13618079D01*
X11848753Y-13618079D02*
X11858277Y-13599031D01*
X11858277Y-13599031D02*
X11867801Y-13589508D01*
X11867801Y-13589508D02*
X11886848Y-13579984D01*
X12124944Y-13579984D02*
X12086848Y-13579984D01*
X12086848Y-13579984D02*
X12067801Y-13589508D01*
X12067801Y-13589508D02*
X12058277Y-13599031D01*
X12058277Y-13599031D02*
X12039229Y-13627603D01*
X12039229Y-13627603D02*
X12029706Y-13665698D01*
X12029706Y-13665698D02*
X12029706Y-13741888D01*
X12029706Y-13741888D02*
X12039229Y-13760936D01*
X12039229Y-13760936D02*
X12048753Y-13770460D01*
X12048753Y-13770460D02*
X12067801Y-13779984D01*
X12067801Y-13779984D02*
X12105896Y-13779984D01*
X12105896Y-13779984D02*
X12124944Y-13770460D01*
X12124944Y-13770460D02*
X12134467Y-13760936D01*
X12134467Y-13760936D02*
X12143991Y-13741888D01*
X12143991Y-13741888D02*
X12143991Y-13694269D01*
X12143991Y-13694269D02*
X12134467Y-13675222D01*
X12134467Y-13675222D02*
X12124944Y-13665698D01*
X12124944Y-13665698D02*
X12105896Y-13656174D01*
X12105896Y-13656174D02*
X12067801Y-13656174D01*
X12067801Y-13656174D02*
X12048753Y-13665698D01*
X12048753Y-13665698D02*
X12039229Y-13675222D01*
X12039229Y-13675222D02*
X12029706Y-13694269D01*
X12315420Y-13579984D02*
X12277325Y-13579984D01*
X12277325Y-13579984D02*
X12258277Y-13589508D01*
X12258277Y-13589508D02*
X12248753Y-13599031D01*
X12248753Y-13599031D02*
X12229706Y-13627603D01*
X12229706Y-13627603D02*
X12220182Y-13665698D01*
X12220182Y-13665698D02*
X12220182Y-13741888D01*
X12220182Y-13741888D02*
X12229706Y-13760936D01*
X12229706Y-13760936D02*
X12239229Y-13770460D01*
X12239229Y-13770460D02*
X12258277Y-13779984D01*
X12258277Y-13779984D02*
X12296372Y-13779984D01*
X12296372Y-13779984D02*
X12315420Y-13770460D01*
X12315420Y-13770460D02*
X12324944Y-13760936D01*
X12324944Y-13760936D02*
X12334467Y-13741888D01*
X12334467Y-13741888D02*
X12334467Y-13694269D01*
X12334467Y-13694269D02*
X12324944Y-13675222D01*
X12324944Y-13675222D02*
X12315420Y-13665698D01*
X12315420Y-13665698D02*
X12296372Y-13656174D01*
X12296372Y-13656174D02*
X12258277Y-13656174D01*
X12258277Y-13656174D02*
X12239229Y-13665698D01*
X12239229Y-13665698D02*
X12229706Y-13675222D01*
X12229706Y-13675222D02*
X12220182Y-13694269D01*
X12429706Y-13779984D02*
X12467801Y-13779984D01*
X12467801Y-13779984D02*
X12486848Y-13770460D01*
X12486848Y-13770460D02*
X12496372Y-13760936D01*
X12496372Y-13760936D02*
X12515420Y-13732365D01*
X12515420Y-13732365D02*
X12524944Y-13694269D01*
X12524944Y-13694269D02*
X12524944Y-13618079D01*
X12524944Y-13618079D02*
X12515420Y-13599031D01*
X12515420Y-13599031D02*
X12505896Y-13589508D01*
X12505896Y-13589508D02*
X12486848Y-13579984D01*
X12486848Y-13579984D02*
X12448753Y-13579984D01*
X12448753Y-13579984D02*
X12429706Y-13589508D01*
X12429706Y-13589508D02*
X12420182Y-13599031D01*
X12420182Y-13599031D02*
X12410658Y-13618079D01*
X12410658Y-13618079D02*
X12410658Y-13665698D01*
X12410658Y-13665698D02*
X12420182Y-13684746D01*
X12420182Y-13684746D02*
X12429706Y-13694269D01*
X12429706Y-13694269D02*
X12448753Y-13703793D01*
X12448753Y-13703793D02*
X12486848Y-13703793D01*
X12486848Y-13703793D02*
X12505896Y-13694269D01*
X12505896Y-13694269D02*
X12515420Y-13684746D01*
X12515420Y-13684746D02*
X12524944Y-13665698D01*
X12601134Y-13579984D02*
X12601134Y-13618079D01*
X12677325Y-13579984D02*
X12677325Y-13618079D01*
X12972563Y-13856174D02*
X12963039Y-13846650D01*
X12963039Y-13846650D02*
X12943991Y-13818079D01*
X12943991Y-13818079D02*
X12934468Y-13799031D01*
X12934468Y-13799031D02*
X12924944Y-13770460D01*
X12924944Y-13770460D02*
X12915420Y-13722841D01*
X12915420Y-13722841D02*
X12915420Y-13684746D01*
X12915420Y-13684746D02*
X12924944Y-13637127D01*
X12924944Y-13637127D02*
X12934468Y-13608555D01*
X12934468Y-13608555D02*
X12943991Y-13589508D01*
X12943991Y-13589508D02*
X12963039Y-13560936D01*
X12963039Y-13560936D02*
X12972563Y-13551412D01*
X13039229Y-13599031D02*
X13048753Y-13589508D01*
X13048753Y-13589508D02*
X13067801Y-13579984D01*
X13067801Y-13579984D02*
X13115420Y-13579984D01*
X13115420Y-13579984D02*
X13134468Y-13589508D01*
X13134468Y-13589508D02*
X13143991Y-13599031D01*
X13143991Y-13599031D02*
X13153515Y-13618079D01*
X13153515Y-13618079D02*
X13153515Y-13637127D01*
X13153515Y-13637127D02*
X13143991Y-13665698D01*
X13143991Y-13665698D02*
X13029706Y-13779984D01*
X13029706Y-13779984D02*
X13153515Y-13779984D01*
X13324944Y-13646650D02*
X13324944Y-13779984D01*
X13277325Y-13570460D02*
X13229706Y-13713317D01*
X13229706Y-13713317D02*
X13353515Y-13713317D01*
X13582087Y-13779984D02*
X13582087Y-13579984D01*
X13667801Y-13779984D02*
X13667801Y-13675222D01*
X13667801Y-13675222D02*
X13658277Y-13656174D01*
X13658277Y-13656174D02*
X13639230Y-13646650D01*
X13639230Y-13646650D02*
X13610658Y-13646650D01*
X13610658Y-13646650D02*
X13591610Y-13656174D01*
X13591610Y-13656174D02*
X13582087Y-13665698D01*
X13791610Y-13779984D02*
X13772563Y-13770460D01*
X13772563Y-13770460D02*
X13763039Y-13760936D01*
X13763039Y-13760936D02*
X13753515Y-13741888D01*
X13753515Y-13741888D02*
X13753515Y-13684746D01*
X13753515Y-13684746D02*
X13763039Y-13665698D01*
X13763039Y-13665698D02*
X13772563Y-13656174D01*
X13772563Y-13656174D02*
X13791610Y-13646650D01*
X13791610Y-13646650D02*
X13820182Y-13646650D01*
X13820182Y-13646650D02*
X13839230Y-13656174D01*
X13839230Y-13656174D02*
X13848753Y-13665698D01*
X13848753Y-13665698D02*
X13858277Y-13684746D01*
X13858277Y-13684746D02*
X13858277Y-13741888D01*
X13858277Y-13741888D02*
X13848753Y-13760936D01*
X13848753Y-13760936D02*
X13839230Y-13770460D01*
X13839230Y-13770460D02*
X13820182Y-13779984D01*
X13820182Y-13779984D02*
X13791610Y-13779984D01*
X13972563Y-13779984D02*
X13953515Y-13770460D01*
X13953515Y-13770460D02*
X13943991Y-13751412D01*
X13943991Y-13751412D02*
X13943991Y-13579984D01*
X14124944Y-13770460D02*
X14105896Y-13779984D01*
X14105896Y-13779984D02*
X14067801Y-13779984D01*
X14067801Y-13779984D02*
X14048753Y-13770460D01*
X14048753Y-13770460D02*
X14039230Y-13751412D01*
X14039230Y-13751412D02*
X14039230Y-13675222D01*
X14039230Y-13675222D02*
X14048753Y-13656174D01*
X14048753Y-13656174D02*
X14067801Y-13646650D01*
X14067801Y-13646650D02*
X14105896Y-13646650D01*
X14105896Y-13646650D02*
X14124944Y-13656174D01*
X14124944Y-13656174D02*
X14134468Y-13675222D01*
X14134468Y-13675222D02*
X14134468Y-13694269D01*
X14134468Y-13694269D02*
X14039230Y-13713317D01*
X14210658Y-13770460D02*
X14229706Y-13779984D01*
X14229706Y-13779984D02*
X14267801Y-13779984D01*
X14267801Y-13779984D02*
X14286849Y-13770460D01*
X14286849Y-13770460D02*
X14296372Y-13751412D01*
X14296372Y-13751412D02*
X14296372Y-13741888D01*
X14296372Y-13741888D02*
X14286849Y-13722841D01*
X14286849Y-13722841D02*
X14267801Y-13713317D01*
X14267801Y-13713317D02*
X14239230Y-13713317D01*
X14239230Y-13713317D02*
X14220182Y-13703793D01*
X14220182Y-13703793D02*
X14210658Y-13684746D01*
X14210658Y-13684746D02*
X14210658Y-13675222D01*
X14210658Y-13675222D02*
X14220182Y-13656174D01*
X14220182Y-13656174D02*
X14239230Y-13646650D01*
X14239230Y-13646650D02*
X14267801Y-13646650D01*
X14267801Y-13646650D02*
X14286849Y-13656174D01*
X14363039Y-13856174D02*
X14372563Y-13846650D01*
X14372563Y-13846650D02*
X14391611Y-13818079D01*
X14391611Y-13818079D02*
X14401134Y-13799031D01*
X14401134Y-13799031D02*
X14410658Y-13770460D01*
X14410658Y-13770460D02*
X14420182Y-13722841D01*
X14420182Y-13722841D02*
X14420182Y-13684746D01*
X14420182Y-13684746D02*
X14410658Y-13637127D01*
X14410658Y-13637127D02*
X14401134Y-13608555D01*
X14401134Y-13608555D02*
X14391611Y-13589508D01*
X14391611Y-13589508D02*
X14372563Y-13560936D01*
X14372563Y-13560936D02*
X14363039Y-13551412D01*
X14724944Y-13856174D02*
X14715420Y-13846650D01*
X14715420Y-13846650D02*
X14696372Y-13818079D01*
X14696372Y-13818079D02*
X14686849Y-13799031D01*
X14686849Y-13799031D02*
X14677325Y-13770460D01*
X14677325Y-13770460D02*
X14667801Y-13722841D01*
X14667801Y-13722841D02*
X14667801Y-13684746D01*
X14667801Y-13684746D02*
X14677325Y-13637127D01*
X14677325Y-13637127D02*
X14686849Y-13608555D01*
X14686849Y-13608555D02*
X14696372Y-13589508D01*
X14696372Y-13589508D02*
X14715420Y-13560936D01*
X14715420Y-13560936D02*
X14724944Y-13551412D01*
X14801134Y-13646650D02*
X14801134Y-13779984D01*
X14801134Y-13665698D02*
X14810658Y-13656174D01*
X14810658Y-13656174D02*
X14829706Y-13646650D01*
X14829706Y-13646650D02*
X14858277Y-13646650D01*
X14858277Y-13646650D02*
X14877325Y-13656174D01*
X14877325Y-13656174D02*
X14886849Y-13675222D01*
X14886849Y-13675222D02*
X14886849Y-13779984D01*
X15010658Y-13779984D02*
X14991611Y-13770460D01*
X14991611Y-13770460D02*
X14982087Y-13760936D01*
X14982087Y-13760936D02*
X14972563Y-13741888D01*
X14972563Y-13741888D02*
X14972563Y-13684746D01*
X14972563Y-13684746D02*
X14982087Y-13665698D01*
X14982087Y-13665698D02*
X14991611Y-13656174D01*
X14991611Y-13656174D02*
X15010658Y-13646650D01*
X15010658Y-13646650D02*
X15039230Y-13646650D01*
X15039230Y-13646650D02*
X15058277Y-13656174D01*
X15058277Y-13656174D02*
X15067801Y-13665698D01*
X15067801Y-13665698D02*
X15077325Y-13684746D01*
X15077325Y-13684746D02*
X15077325Y-13741888D01*
X15077325Y-13741888D02*
X15067801Y-13760936D01*
X15067801Y-13760936D02*
X15058277Y-13770460D01*
X15058277Y-13770460D02*
X15039230Y-13779984D01*
X15039230Y-13779984D02*
X15010658Y-13779984D01*
X15134468Y-13646650D02*
X15210658Y-13646650D01*
X15163039Y-13579984D02*
X15163039Y-13751412D01*
X15163039Y-13751412D02*
X15172563Y-13770460D01*
X15172563Y-13770460D02*
X15191611Y-13779984D01*
X15191611Y-13779984D02*
X15210658Y-13779984D01*
X15429706Y-13646650D02*
X15429706Y-13846650D01*
X15429706Y-13656174D02*
X15448753Y-13646650D01*
X15448753Y-13646650D02*
X15486849Y-13646650D01*
X15486849Y-13646650D02*
X15505896Y-13656174D01*
X15505896Y-13656174D02*
X15515420Y-13665698D01*
X15515420Y-13665698D02*
X15524944Y-13684746D01*
X15524944Y-13684746D02*
X15524944Y-13741888D01*
X15524944Y-13741888D02*
X15515420Y-13760936D01*
X15515420Y-13760936D02*
X15505896Y-13770460D01*
X15505896Y-13770460D02*
X15486849Y-13779984D01*
X15486849Y-13779984D02*
X15448753Y-13779984D01*
X15448753Y-13779984D02*
X15429706Y-13770460D01*
X15639230Y-13779984D02*
X15620182Y-13770460D01*
X15620182Y-13770460D02*
X15610658Y-13751412D01*
X15610658Y-13751412D02*
X15610658Y-13579984D01*
X15801134Y-13779984D02*
X15801134Y-13675222D01*
X15801134Y-13675222D02*
X15791611Y-13656174D01*
X15791611Y-13656174D02*
X15772563Y-13646650D01*
X15772563Y-13646650D02*
X15734468Y-13646650D01*
X15734468Y-13646650D02*
X15715420Y-13656174D01*
X15801134Y-13770460D02*
X15782087Y-13779984D01*
X15782087Y-13779984D02*
X15734468Y-13779984D01*
X15734468Y-13779984D02*
X15715420Y-13770460D01*
X15715420Y-13770460D02*
X15705896Y-13751412D01*
X15705896Y-13751412D02*
X15705896Y-13732365D01*
X15705896Y-13732365D02*
X15715420Y-13713317D01*
X15715420Y-13713317D02*
X15734468Y-13703793D01*
X15734468Y-13703793D02*
X15782087Y-13703793D01*
X15782087Y-13703793D02*
X15801134Y-13694269D01*
X15867801Y-13646650D02*
X15943992Y-13646650D01*
X15896373Y-13579984D02*
X15896373Y-13751412D01*
X15896373Y-13751412D02*
X15905896Y-13770460D01*
X15905896Y-13770460D02*
X15924944Y-13779984D01*
X15924944Y-13779984D02*
X15943992Y-13779984D01*
X16086849Y-13770460D02*
X16067801Y-13779984D01*
X16067801Y-13779984D02*
X16029706Y-13779984D01*
X16029706Y-13779984D02*
X16010658Y-13770460D01*
X16010658Y-13770460D02*
X16001134Y-13751412D01*
X16001134Y-13751412D02*
X16001134Y-13675222D01*
X16001134Y-13675222D02*
X16010658Y-13656174D01*
X16010658Y-13656174D02*
X16029706Y-13646650D01*
X16029706Y-13646650D02*
X16067801Y-13646650D01*
X16067801Y-13646650D02*
X16086849Y-13656174D01*
X16086849Y-13656174D02*
X16096373Y-13675222D01*
X16096373Y-13675222D02*
X16096373Y-13694269D01*
X16096373Y-13694269D02*
X16001134Y-13713317D01*
X16267801Y-13779984D02*
X16267801Y-13579984D01*
X16267801Y-13770460D02*
X16248754Y-13779984D01*
X16248754Y-13779984D02*
X16210658Y-13779984D01*
X16210658Y-13779984D02*
X16191611Y-13770460D01*
X16191611Y-13770460D02*
X16182087Y-13760936D01*
X16182087Y-13760936D02*
X16172563Y-13741888D01*
X16172563Y-13741888D02*
X16172563Y-13684746D01*
X16172563Y-13684746D02*
X16182087Y-13665698D01*
X16182087Y-13665698D02*
X16191611Y-13656174D01*
X16191611Y-13656174D02*
X16210658Y-13646650D01*
X16210658Y-13646650D02*
X16248754Y-13646650D01*
X16248754Y-13646650D02*
X16267801Y-13656174D01*
X16343992Y-13856174D02*
X16353515Y-13846650D01*
X16353515Y-13846650D02*
X16372563Y-13818079D01*
X16372563Y-13818079D02*
X16382087Y-13799031D01*
X16382087Y-13799031D02*
X16391611Y-13770460D01*
X16391611Y-13770460D02*
X16401134Y-13722841D01*
X16401134Y-13722841D02*
X16401134Y-13684746D01*
X16401134Y-13684746D02*
X16391611Y-13637127D01*
X16391611Y-13637127D02*
X16382087Y-13608555D01*
X16382087Y-13608555D02*
X16372563Y-13589508D01*
X16372563Y-13589508D02*
X16353515Y-13560936D01*
X16353515Y-13560936D02*
X16343992Y-13551412D01*
X9197500Y-13878500D02*
X9397500Y-14078500D01*
X9397500Y-13878500D02*
X9197500Y-14078500D01*
X9368211Y-14049211D02*
X9368211Y-13907789D01*
X9226789Y-13907789D01*
X9226789Y-14049211D01*
X9368211Y-14049211D01*
X9743991Y-13936650D02*
X9743991Y-14069984D01*
X9696372Y-13860460D02*
X9648753Y-14003317D01*
X9648753Y-14003317D02*
X9772563Y-14003317D01*
X9848753Y-14050936D02*
X9858277Y-14060460D01*
X9858277Y-14060460D02*
X9848753Y-14069984D01*
X9848753Y-14069984D02*
X9839229Y-14060460D01*
X9839229Y-14060460D02*
X9848753Y-14050936D01*
X9848753Y-14050936D02*
X9848753Y-14069984D01*
X9982086Y-13869984D02*
X10001134Y-13869984D01*
X10001134Y-13869984D02*
X10020182Y-13879508D01*
X10020182Y-13879508D02*
X10029705Y-13889031D01*
X10029705Y-13889031D02*
X10039229Y-13908079D01*
X10039229Y-13908079D02*
X10048753Y-13946174D01*
X10048753Y-13946174D02*
X10048753Y-13993793D01*
X10048753Y-13993793D02*
X10039229Y-14031888D01*
X10039229Y-14031888D02*
X10029705Y-14050936D01*
X10029705Y-14050936D02*
X10020182Y-14060460D01*
X10020182Y-14060460D02*
X10001134Y-14069984D01*
X10001134Y-14069984D02*
X9982086Y-14069984D01*
X9982086Y-14069984D02*
X9963039Y-14060460D01*
X9963039Y-14060460D02*
X9953515Y-14050936D01*
X9953515Y-14050936D02*
X9943991Y-14031888D01*
X9943991Y-14031888D02*
X9934467Y-13993793D01*
X9934467Y-13993793D02*
X9934467Y-13946174D01*
X9934467Y-13946174D02*
X9943991Y-13908079D01*
X9943991Y-13908079D02*
X9953515Y-13889031D01*
X9953515Y-13889031D02*
X9963039Y-13879508D01*
X9963039Y-13879508D02*
X9982086Y-13869984D01*
X10172563Y-13869984D02*
X10191610Y-13869984D01*
X10191610Y-13869984D02*
X10210658Y-13879508D01*
X10210658Y-13879508D02*
X10220182Y-13889031D01*
X10220182Y-13889031D02*
X10229705Y-13908079D01*
X10229705Y-13908079D02*
X10239229Y-13946174D01*
X10239229Y-13946174D02*
X10239229Y-13993793D01*
X10239229Y-13993793D02*
X10229705Y-14031888D01*
X10229705Y-14031888D02*
X10220182Y-14050936D01*
X10220182Y-14050936D02*
X10210658Y-14060460D01*
X10210658Y-14060460D02*
X10191610Y-14069984D01*
X10191610Y-14069984D02*
X10172563Y-14069984D01*
X10172563Y-14069984D02*
X10153515Y-14060460D01*
X10153515Y-14060460D02*
X10143991Y-14050936D01*
X10143991Y-14050936D02*
X10134467Y-14031888D01*
X10134467Y-14031888D02*
X10124944Y-13993793D01*
X10124944Y-13993793D02*
X10124944Y-13946174D01*
X10124944Y-13946174D02*
X10134467Y-13908079D01*
X10134467Y-13908079D02*
X10143991Y-13889031D01*
X10143991Y-13889031D02*
X10153515Y-13879508D01*
X10153515Y-13879508D02*
X10172563Y-13869984D01*
X10363039Y-13869984D02*
X10382086Y-13869984D01*
X10382086Y-13869984D02*
X10401134Y-13879508D01*
X10401134Y-13879508D02*
X10410658Y-13889031D01*
X10410658Y-13889031D02*
X10420182Y-13908079D01*
X10420182Y-13908079D02*
X10429705Y-13946174D01*
X10429705Y-13946174D02*
X10429705Y-13993793D01*
X10429705Y-13993793D02*
X10420182Y-14031888D01*
X10420182Y-14031888D02*
X10410658Y-14050936D01*
X10410658Y-14050936D02*
X10401134Y-14060460D01*
X10401134Y-14060460D02*
X10382086Y-14069984D01*
X10382086Y-14069984D02*
X10363039Y-14069984D01*
X10363039Y-14069984D02*
X10343991Y-14060460D01*
X10343991Y-14060460D02*
X10334467Y-14050936D01*
X10334467Y-14050936D02*
X10324944Y-14031888D01*
X10324944Y-14031888D02*
X10315420Y-13993793D01*
X10315420Y-13993793D02*
X10315420Y-13946174D01*
X10315420Y-13946174D02*
X10324944Y-13908079D01*
X10324944Y-13908079D02*
X10334467Y-13889031D01*
X10334467Y-13889031D02*
X10343991Y-13879508D01*
X10343991Y-13879508D02*
X10363039Y-13869984D01*
X10515420Y-14069984D02*
X10515420Y-13936650D01*
X10515420Y-13955698D02*
X10524944Y-13946174D01*
X10524944Y-13946174D02*
X10543991Y-13936650D01*
X10543991Y-13936650D02*
X10572563Y-13936650D01*
X10572563Y-13936650D02*
X10591610Y-13946174D01*
X10591610Y-13946174D02*
X10601134Y-13965222D01*
X10601134Y-13965222D02*
X10601134Y-14069984D01*
X10601134Y-13965222D02*
X10610658Y-13946174D01*
X10610658Y-13946174D02*
X10629705Y-13936650D01*
X10629705Y-13936650D02*
X10658277Y-13936650D01*
X10658277Y-13936650D02*
X10677325Y-13946174D01*
X10677325Y-13946174D02*
X10686848Y-13965222D01*
X10686848Y-13965222D02*
X10686848Y-14069984D01*
X10782086Y-14069984D02*
X10782086Y-13936650D01*
X10782086Y-13955698D02*
X10791610Y-13946174D01*
X10791610Y-13946174D02*
X10810658Y-13936650D01*
X10810658Y-13936650D02*
X10839229Y-13936650D01*
X10839229Y-13936650D02*
X10858277Y-13946174D01*
X10858277Y-13946174D02*
X10867801Y-13965222D01*
X10867801Y-13965222D02*
X10867801Y-14069984D01*
X10867801Y-13965222D02*
X10877325Y-13946174D01*
X10877325Y-13946174D02*
X10896372Y-13936650D01*
X10896372Y-13936650D02*
X10924944Y-13936650D01*
X10924944Y-13936650D02*
X10943991Y-13946174D01*
X10943991Y-13946174D02*
X10953515Y-13965222D01*
X10953515Y-13965222D02*
X10953515Y-14069984D01*
X11343991Y-13860460D02*
X11172563Y-14117603D01*
X11601134Y-13869984D02*
X11620182Y-13869984D01*
X11620182Y-13869984D02*
X11639229Y-13879508D01*
X11639229Y-13879508D02*
X11648753Y-13889031D01*
X11648753Y-13889031D02*
X11658277Y-13908079D01*
X11658277Y-13908079D02*
X11667801Y-13946174D01*
X11667801Y-13946174D02*
X11667801Y-13993793D01*
X11667801Y-13993793D02*
X11658277Y-14031888D01*
X11658277Y-14031888D02*
X11648753Y-14050936D01*
X11648753Y-14050936D02*
X11639229Y-14060460D01*
X11639229Y-14060460D02*
X11620182Y-14069984D01*
X11620182Y-14069984D02*
X11601134Y-14069984D01*
X11601134Y-14069984D02*
X11582086Y-14060460D01*
X11582086Y-14060460D02*
X11572563Y-14050936D01*
X11572563Y-14050936D02*
X11563039Y-14031888D01*
X11563039Y-14031888D02*
X11553515Y-13993793D01*
X11553515Y-13993793D02*
X11553515Y-13946174D01*
X11553515Y-13946174D02*
X11563039Y-13908079D01*
X11563039Y-13908079D02*
X11572563Y-13889031D01*
X11572563Y-13889031D02*
X11582086Y-13879508D01*
X11582086Y-13879508D02*
X11601134Y-13869984D01*
X11753515Y-14050936D02*
X11763039Y-14060460D01*
X11763039Y-14060460D02*
X11753515Y-14069984D01*
X11753515Y-14069984D02*
X11743991Y-14060460D01*
X11743991Y-14060460D02*
X11753515Y-14050936D01*
X11753515Y-14050936D02*
X11753515Y-14069984D01*
X11953515Y-14069984D02*
X11839229Y-14069984D01*
X11896372Y-14069984D02*
X11896372Y-13869984D01*
X11896372Y-13869984D02*
X11877325Y-13898555D01*
X11877325Y-13898555D02*
X11858277Y-13917603D01*
X11858277Y-13917603D02*
X11839229Y-13927127D01*
X12134467Y-13869984D02*
X12039229Y-13869984D01*
X12039229Y-13869984D02*
X12029706Y-13965222D01*
X12029706Y-13965222D02*
X12039229Y-13955698D01*
X12039229Y-13955698D02*
X12058277Y-13946174D01*
X12058277Y-13946174D02*
X12105896Y-13946174D01*
X12105896Y-13946174D02*
X12124944Y-13955698D01*
X12124944Y-13955698D02*
X12134467Y-13965222D01*
X12134467Y-13965222D02*
X12143991Y-13984269D01*
X12143991Y-13984269D02*
X12143991Y-14031888D01*
X12143991Y-14031888D02*
X12134467Y-14050936D01*
X12134467Y-14050936D02*
X12124944Y-14060460D01*
X12124944Y-14060460D02*
X12105896Y-14069984D01*
X12105896Y-14069984D02*
X12058277Y-14069984D01*
X12058277Y-14069984D02*
X12039229Y-14060460D01*
X12039229Y-14060460D02*
X12029706Y-14050936D01*
X12210658Y-13869984D02*
X12343991Y-13869984D01*
X12343991Y-13869984D02*
X12258277Y-14069984D01*
X12515420Y-13869984D02*
X12420182Y-13869984D01*
X12420182Y-13869984D02*
X12410658Y-13965222D01*
X12410658Y-13965222D02*
X12420182Y-13955698D01*
X12420182Y-13955698D02*
X12439229Y-13946174D01*
X12439229Y-13946174D02*
X12486848Y-13946174D01*
X12486848Y-13946174D02*
X12505896Y-13955698D01*
X12505896Y-13955698D02*
X12515420Y-13965222D01*
X12515420Y-13965222D02*
X12524944Y-13984269D01*
X12524944Y-13984269D02*
X12524944Y-14031888D01*
X12524944Y-14031888D02*
X12515420Y-14050936D01*
X12515420Y-14050936D02*
X12505896Y-14060460D01*
X12505896Y-14060460D02*
X12486848Y-14069984D01*
X12486848Y-14069984D02*
X12439229Y-14069984D01*
X12439229Y-14069984D02*
X12420182Y-14060460D01*
X12420182Y-14060460D02*
X12410658Y-14050936D01*
X12601134Y-13869984D02*
X12601134Y-13908079D01*
X12677325Y-13869984D02*
X12677325Y-13908079D01*
X12972563Y-14146174D02*
X12963039Y-14136650D01*
X12963039Y-14136650D02*
X12943991Y-14108079D01*
X12943991Y-14108079D02*
X12934468Y-14089031D01*
X12934468Y-14089031D02*
X12924944Y-14060460D01*
X12924944Y-14060460D02*
X12915420Y-14012841D01*
X12915420Y-14012841D02*
X12915420Y-13974746D01*
X12915420Y-13974746D02*
X12924944Y-13927127D01*
X12924944Y-13927127D02*
X12934468Y-13898555D01*
X12934468Y-13898555D02*
X12943991Y-13879508D01*
X12943991Y-13879508D02*
X12963039Y-13850936D01*
X12963039Y-13850936D02*
X12972563Y-13841412D01*
X13153515Y-14069984D02*
X13039229Y-14069984D01*
X13096372Y-14069984D02*
X13096372Y-13869984D01*
X13096372Y-13869984D02*
X13077325Y-13898555D01*
X13077325Y-13898555D02*
X13058277Y-13917603D01*
X13058277Y-13917603D02*
X13039229Y-13927127D01*
X13229706Y-13889031D02*
X13239229Y-13879508D01*
X13239229Y-13879508D02*
X13258277Y-13869984D01*
X13258277Y-13869984D02*
X13305896Y-13869984D01*
X13305896Y-13869984D02*
X13324944Y-13879508D01*
X13324944Y-13879508D02*
X13334468Y-13889031D01*
X13334468Y-13889031D02*
X13343991Y-13908079D01*
X13343991Y-13908079D02*
X13343991Y-13927127D01*
X13343991Y-13927127D02*
X13334468Y-13955698D01*
X13334468Y-13955698D02*
X13220182Y-14069984D01*
X13220182Y-14069984D02*
X13343991Y-14069984D01*
X13582087Y-14069984D02*
X13582087Y-13869984D01*
X13667801Y-14069984D02*
X13667801Y-13965222D01*
X13667801Y-13965222D02*
X13658277Y-13946174D01*
X13658277Y-13946174D02*
X13639230Y-13936650D01*
X13639230Y-13936650D02*
X13610658Y-13936650D01*
X13610658Y-13936650D02*
X13591610Y-13946174D01*
X13591610Y-13946174D02*
X13582087Y-13955698D01*
X13791610Y-14069984D02*
X13772563Y-14060460D01*
X13772563Y-14060460D02*
X13763039Y-14050936D01*
X13763039Y-14050936D02*
X13753515Y-14031888D01*
X13753515Y-14031888D02*
X13753515Y-13974746D01*
X13753515Y-13974746D02*
X13763039Y-13955698D01*
X13763039Y-13955698D02*
X13772563Y-13946174D01*
X13772563Y-13946174D02*
X13791610Y-13936650D01*
X13791610Y-13936650D02*
X13820182Y-13936650D01*
X13820182Y-13936650D02*
X13839230Y-13946174D01*
X13839230Y-13946174D02*
X13848753Y-13955698D01*
X13848753Y-13955698D02*
X13858277Y-13974746D01*
X13858277Y-13974746D02*
X13858277Y-14031888D01*
X13858277Y-14031888D02*
X13848753Y-14050936D01*
X13848753Y-14050936D02*
X13839230Y-14060460D01*
X13839230Y-14060460D02*
X13820182Y-14069984D01*
X13820182Y-14069984D02*
X13791610Y-14069984D01*
X13972563Y-14069984D02*
X13953515Y-14060460D01*
X13953515Y-14060460D02*
X13943991Y-14041412D01*
X13943991Y-14041412D02*
X13943991Y-13869984D01*
X14124944Y-14060460D02*
X14105896Y-14069984D01*
X14105896Y-14069984D02*
X14067801Y-14069984D01*
X14067801Y-14069984D02*
X14048753Y-14060460D01*
X14048753Y-14060460D02*
X14039230Y-14041412D01*
X14039230Y-14041412D02*
X14039230Y-13965222D01*
X14039230Y-13965222D02*
X14048753Y-13946174D01*
X14048753Y-13946174D02*
X14067801Y-13936650D01*
X14067801Y-13936650D02*
X14105896Y-13936650D01*
X14105896Y-13936650D02*
X14124944Y-13946174D01*
X14124944Y-13946174D02*
X14134468Y-13965222D01*
X14134468Y-13965222D02*
X14134468Y-13984269D01*
X14134468Y-13984269D02*
X14039230Y-14003317D01*
X14210658Y-14060460D02*
X14229706Y-14069984D01*
X14229706Y-14069984D02*
X14267801Y-14069984D01*
X14267801Y-14069984D02*
X14286849Y-14060460D01*
X14286849Y-14060460D02*
X14296372Y-14041412D01*
X14296372Y-14041412D02*
X14296372Y-14031888D01*
X14296372Y-14031888D02*
X14286849Y-14012841D01*
X14286849Y-14012841D02*
X14267801Y-14003317D01*
X14267801Y-14003317D02*
X14239230Y-14003317D01*
X14239230Y-14003317D02*
X14220182Y-13993793D01*
X14220182Y-13993793D02*
X14210658Y-13974746D01*
X14210658Y-13974746D02*
X14210658Y-13965222D01*
X14210658Y-13965222D02*
X14220182Y-13946174D01*
X14220182Y-13946174D02*
X14239230Y-13936650D01*
X14239230Y-13936650D02*
X14267801Y-13936650D01*
X14267801Y-13936650D02*
X14286849Y-13946174D01*
X14363039Y-14146174D02*
X14372563Y-14136650D01*
X14372563Y-14136650D02*
X14391611Y-14108079D01*
X14391611Y-14108079D02*
X14401134Y-14089031D01*
X14401134Y-14089031D02*
X14410658Y-14060460D01*
X14410658Y-14060460D02*
X14420182Y-14012841D01*
X14420182Y-14012841D02*
X14420182Y-13974746D01*
X14420182Y-13974746D02*
X14410658Y-13927127D01*
X14410658Y-13927127D02*
X14401134Y-13898555D01*
X14401134Y-13898555D02*
X14391611Y-13879508D01*
X14391611Y-13879508D02*
X14372563Y-13850936D01*
X14372563Y-13850936D02*
X14363039Y-13841412D01*
X14724944Y-14146174D02*
X14715420Y-14136650D01*
X14715420Y-14136650D02*
X14696372Y-14108079D01*
X14696372Y-14108079D02*
X14686849Y-14089031D01*
X14686849Y-14089031D02*
X14677325Y-14060460D01*
X14677325Y-14060460D02*
X14667801Y-14012841D01*
X14667801Y-14012841D02*
X14667801Y-13974746D01*
X14667801Y-13974746D02*
X14677325Y-13927127D01*
X14677325Y-13927127D02*
X14686849Y-13898555D01*
X14686849Y-13898555D02*
X14696372Y-13879508D01*
X14696372Y-13879508D02*
X14715420Y-13850936D01*
X14715420Y-13850936D02*
X14724944Y-13841412D01*
X14801134Y-13936650D02*
X14801134Y-14069984D01*
X14801134Y-13955698D02*
X14810658Y-13946174D01*
X14810658Y-13946174D02*
X14829706Y-13936650D01*
X14829706Y-13936650D02*
X14858277Y-13936650D01*
X14858277Y-13936650D02*
X14877325Y-13946174D01*
X14877325Y-13946174D02*
X14886849Y-13965222D01*
X14886849Y-13965222D02*
X14886849Y-14069984D01*
X15010658Y-14069984D02*
X14991611Y-14060460D01*
X14991611Y-14060460D02*
X14982087Y-14050936D01*
X14982087Y-14050936D02*
X14972563Y-14031888D01*
X14972563Y-14031888D02*
X14972563Y-13974746D01*
X14972563Y-13974746D02*
X14982087Y-13955698D01*
X14982087Y-13955698D02*
X14991611Y-13946174D01*
X14991611Y-13946174D02*
X15010658Y-13936650D01*
X15010658Y-13936650D02*
X15039230Y-13936650D01*
X15039230Y-13936650D02*
X15058277Y-13946174D01*
X15058277Y-13946174D02*
X15067801Y-13955698D01*
X15067801Y-13955698D02*
X15077325Y-13974746D01*
X15077325Y-13974746D02*
X15077325Y-14031888D01*
X15077325Y-14031888D02*
X15067801Y-14050936D01*
X15067801Y-14050936D02*
X15058277Y-14060460D01*
X15058277Y-14060460D02*
X15039230Y-14069984D01*
X15039230Y-14069984D02*
X15010658Y-14069984D01*
X15134468Y-13936650D02*
X15210658Y-13936650D01*
X15163039Y-13869984D02*
X15163039Y-14041412D01*
X15163039Y-14041412D02*
X15172563Y-14060460D01*
X15172563Y-14060460D02*
X15191611Y-14069984D01*
X15191611Y-14069984D02*
X15210658Y-14069984D01*
X15429706Y-13936650D02*
X15429706Y-14136650D01*
X15429706Y-13946174D02*
X15448753Y-13936650D01*
X15448753Y-13936650D02*
X15486849Y-13936650D01*
X15486849Y-13936650D02*
X15505896Y-13946174D01*
X15505896Y-13946174D02*
X15515420Y-13955698D01*
X15515420Y-13955698D02*
X15524944Y-13974746D01*
X15524944Y-13974746D02*
X15524944Y-14031888D01*
X15524944Y-14031888D02*
X15515420Y-14050936D01*
X15515420Y-14050936D02*
X15505896Y-14060460D01*
X15505896Y-14060460D02*
X15486849Y-14069984D01*
X15486849Y-14069984D02*
X15448753Y-14069984D01*
X15448753Y-14069984D02*
X15429706Y-14060460D01*
X15639230Y-14069984D02*
X15620182Y-14060460D01*
X15620182Y-14060460D02*
X15610658Y-14041412D01*
X15610658Y-14041412D02*
X15610658Y-13869984D01*
X15801134Y-14069984D02*
X15801134Y-13965222D01*
X15801134Y-13965222D02*
X15791611Y-13946174D01*
X15791611Y-13946174D02*
X15772563Y-13936650D01*
X15772563Y-13936650D02*
X15734468Y-13936650D01*
X15734468Y-13936650D02*
X15715420Y-13946174D01*
X15801134Y-14060460D02*
X15782087Y-14069984D01*
X15782087Y-14069984D02*
X15734468Y-14069984D01*
X15734468Y-14069984D02*
X15715420Y-14060460D01*
X15715420Y-14060460D02*
X15705896Y-14041412D01*
X15705896Y-14041412D02*
X15705896Y-14022365D01*
X15705896Y-14022365D02*
X15715420Y-14003317D01*
X15715420Y-14003317D02*
X15734468Y-13993793D01*
X15734468Y-13993793D02*
X15782087Y-13993793D01*
X15782087Y-13993793D02*
X15801134Y-13984269D01*
X15867801Y-13936650D02*
X15943992Y-13936650D01*
X15896373Y-13869984D02*
X15896373Y-14041412D01*
X15896373Y-14041412D02*
X15905896Y-14060460D01*
X15905896Y-14060460D02*
X15924944Y-14069984D01*
X15924944Y-14069984D02*
X15943992Y-14069984D01*
X16086849Y-14060460D02*
X16067801Y-14069984D01*
X16067801Y-14069984D02*
X16029706Y-14069984D01*
X16029706Y-14069984D02*
X16010658Y-14060460D01*
X16010658Y-14060460D02*
X16001134Y-14041412D01*
X16001134Y-14041412D02*
X16001134Y-13965222D01*
X16001134Y-13965222D02*
X16010658Y-13946174D01*
X16010658Y-13946174D02*
X16029706Y-13936650D01*
X16029706Y-13936650D02*
X16067801Y-13936650D01*
X16067801Y-13936650D02*
X16086849Y-13946174D01*
X16086849Y-13946174D02*
X16096373Y-13965222D01*
X16096373Y-13965222D02*
X16096373Y-13984269D01*
X16096373Y-13984269D02*
X16001134Y-14003317D01*
X16267801Y-14069984D02*
X16267801Y-13869984D01*
X16267801Y-14060460D02*
X16248754Y-14069984D01*
X16248754Y-14069984D02*
X16210658Y-14069984D01*
X16210658Y-14069984D02*
X16191611Y-14060460D01*
X16191611Y-14060460D02*
X16182087Y-14050936D01*
X16182087Y-14050936D02*
X16172563Y-14031888D01*
X16172563Y-14031888D02*
X16172563Y-13974746D01*
X16172563Y-13974746D02*
X16182087Y-13955698D01*
X16182087Y-13955698D02*
X16191611Y-13946174D01*
X16191611Y-13946174D02*
X16210658Y-13936650D01*
X16210658Y-13936650D02*
X16248754Y-13936650D01*
X16248754Y-13936650D02*
X16267801Y-13946174D01*
X16343992Y-14146174D02*
X16353515Y-14136650D01*
X16353515Y-14136650D02*
X16372563Y-14108079D01*
X16372563Y-14108079D02*
X16382087Y-14089031D01*
X16382087Y-14089031D02*
X16391611Y-14060460D01*
X16391611Y-14060460D02*
X16401134Y-14012841D01*
X16401134Y-14012841D02*
X16401134Y-13974746D01*
X16401134Y-13974746D02*
X16391611Y-13927127D01*
X16391611Y-13927127D02*
X16382087Y-13898555D01*
X16382087Y-13898555D02*
X16372563Y-13879508D01*
X16372563Y-13879508D02*
X16353515Y-13850936D01*
X16353515Y-13850936D02*
X16343992Y-13841412D01*
M02*
