%TF.GenerationSoftware,KiCad,Pcbnew,9.0.2*%
%TF.CreationDate,2025-07-04T04:15:55-07:00*%
%TF.ProjectId,HackPad_Dristi,4861636b-5061-4645-9f44-72697374692e,rev?*%
%TF.SameCoordinates,Original*%
%TF.FileFunction,Soldermask,Top*%
%TF.FilePolarity,Negative*%
%FSLAX46Y46*%
G04 Gerber Fmt 4.6, Leading zero omitted, Abs format (unit mm)*
G04 Created by KiCad (PCBNEW 9.0.2) date 2025-07-04 04:15:55*
%MOMM*%
%LPD*%
G01*
G04 APERTURE LIST*
G04 Aperture macros list*
%AMRoundRect*
0 Rectangle with rounded corners*
0 $1 Rounding radius*
0 $2 $3 $4 $5 $6 $7 $8 $9 X,Y pos of 4 corners*
0 Add a 4 corners polygon primitive as box body*
4,1,4,$2,$3,$4,$5,$6,$7,$8,$9,$2,$3,0*
0 Add four circle primitives for the rounded corners*
1,1,$1+$1,$2,$3*
1,1,$1+$1,$4,$5*
1,1,$1+$1,$6,$7*
1,1,$1+$1,$8,$9*
0 Add four rect primitives between the rounded corners*
20,1,$1+$1,$2,$3,$4,$5,0*
20,1,$1+$1,$4,$5,$6,$7,0*
20,1,$1+$1,$6,$7,$8,$9,0*
20,1,$1+$1,$8,$9,$2,$3,0*%
G04 Aperture macros list end*
%ADD10R,1.700000X1.700000*%
%ADD11O,1.700000X1.700000*%
%ADD12C,1.500000*%
%ADD13R,2.000000X2.000000*%
%ADD14C,2.000000*%
%ADD15C,3.200000*%
%ADD16RoundRect,0.152400X1.063600X0.609600X-1.063600X0.609600X-1.063600X-0.609600X1.063600X-0.609600X0*%
%ADD17C,1.524000*%
%ADD18RoundRect,0.152400X-1.063600X-0.609600X1.063600X-0.609600X1.063600X0.609600X-1.063600X0.609600X0*%
%ADD19RoundRect,0.250000X0.550000X-0.550000X0.550000X0.550000X-0.550000X0.550000X-0.550000X-0.550000X0*%
%ADD20C,1.600000*%
%ADD21C,1.700000*%
%ADD22C,4.000000*%
%ADD23C,2.200000*%
G04 APERTURE END LIST*
D10*
%TO.C,J1*%
X177900000Y-89120000D03*
D11*
X177900000Y-86580000D03*
X177900000Y-84040000D03*
X177900000Y-81500000D03*
%TD*%
D12*
%TO.C,SW13*%
X214500000Y-62600000D03*
X214500000Y-67600000D03*
D13*
X200000000Y-62600000D03*
D14*
X200000000Y-67600000D03*
X200000000Y-65100000D03*
D15*
X207500000Y-59500000D03*
X207500000Y-70700000D03*
%TD*%
D16*
%TO.C,U2*%
X178045000Y-57548500D03*
D17*
X178880000Y-57548500D03*
D16*
X178045000Y-60088500D03*
D17*
X178880000Y-60088500D03*
D16*
X178045000Y-62628500D03*
D17*
X178880000Y-62628500D03*
D16*
X178045000Y-65168500D03*
D17*
X178880000Y-65168500D03*
D16*
X178045000Y-67708500D03*
D17*
X178880000Y-67708500D03*
D16*
X178045000Y-70248500D03*
D17*
X178880000Y-70248500D03*
D16*
X178045000Y-72788500D03*
D17*
X178880000Y-72788500D03*
X194120000Y-72788500D03*
D18*
X194955000Y-72788500D03*
D17*
X194120000Y-70248500D03*
D18*
X194955000Y-70248500D03*
D17*
X194120000Y-67708500D03*
D18*
X194955000Y-67708500D03*
D17*
X194120000Y-65168500D03*
D18*
X194955000Y-65168500D03*
D17*
X194120000Y-62628500D03*
D18*
X194955000Y-62628500D03*
D17*
X194120000Y-60088500D03*
D18*
X194955000Y-60088500D03*
D17*
X194120000Y-57548500D03*
D18*
X194955000Y-57548500D03*
%TD*%
D19*
%TO.C,D11*%
X154300000Y-102214315D03*
D20*
X154300000Y-99674315D03*
%TD*%
D19*
%TO.C,D1*%
X115800000Y-65114315D03*
D20*
X115800000Y-62574315D03*
%TD*%
D19*
%TO.C,D5*%
X115800000Y-84314315D03*
D20*
X115800000Y-81774315D03*
%TD*%
D21*
%TO.C,SW7*%
X139630000Y-83250000D03*
D22*
X144710000Y-83250000D03*
D21*
X149790000Y-83250000D03*
D23*
X147250000Y-78170000D03*
X140900000Y-80710000D03*
%TD*%
D21*
%TO.C,SW11*%
X139630000Y-102450000D03*
D22*
X144710000Y-102450000D03*
D21*
X149790000Y-102450000D03*
D23*
X147250000Y-97370000D03*
X140900000Y-99910000D03*
%TD*%
D19*
%TO.C,D2*%
X135200000Y-65340000D03*
D20*
X135200000Y-62800000D03*
%TD*%
D19*
%TO.C,D8*%
X173400000Y-78540000D03*
D20*
X173400000Y-76000000D03*
%TD*%
D21*
%TO.C,SW4*%
X158830000Y-64050000D03*
D22*
X163910000Y-64050000D03*
D21*
X168990000Y-64050000D03*
D23*
X166450000Y-58970000D03*
X160100000Y-61510000D03*
%TD*%
D21*
%TO.C,SW2*%
X120430000Y-64050000D03*
D22*
X125510000Y-64050000D03*
D21*
X130590000Y-64050000D03*
D23*
X128050000Y-58970000D03*
X121700000Y-61510000D03*
%TD*%
D19*
%TO.C,D6*%
X135100000Y-84364315D03*
D20*
X135100000Y-81824315D03*
%TD*%
D21*
%TO.C,SW12*%
X158830000Y-102450000D03*
D22*
X163910000Y-102450000D03*
D21*
X168990000Y-102450000D03*
D23*
X166450000Y-97370000D03*
X160100000Y-99910000D03*
%TD*%
D19*
%TO.C,D7*%
X154300000Y-84714315D03*
D20*
X154300000Y-82174315D03*
%TD*%
D21*
%TO.C,SW10*%
X120430000Y-102450000D03*
D22*
X125510000Y-102450000D03*
D21*
X130590000Y-102450000D03*
D23*
X128050000Y-97370000D03*
X121700000Y-99910000D03*
%TD*%
D19*
%TO.C,D9*%
X115900000Y-102514315D03*
D20*
X115900000Y-99974315D03*
%TD*%
D19*
%TO.C,D12*%
X173500000Y-103554315D03*
D20*
X173500000Y-101014315D03*
%TD*%
D19*
%TO.C,D10*%
X135100000Y-102214315D03*
D20*
X135100000Y-99674315D03*
%TD*%
D21*
%TO.C,SW1*%
X101230000Y-64050000D03*
D22*
X106310000Y-64050000D03*
D21*
X111390000Y-64050000D03*
D23*
X108850000Y-58970000D03*
X102500000Y-61510000D03*
%TD*%
D19*
%TO.C,D4*%
X173490000Y-65140000D03*
D20*
X173490000Y-62600000D03*
%TD*%
D21*
%TO.C,SW6*%
X120430000Y-83250000D03*
D22*
X125510000Y-83250000D03*
D21*
X130590000Y-83250000D03*
D23*
X128050000Y-78170000D03*
X121700000Y-80710000D03*
%TD*%
D21*
%TO.C,SW3*%
X139630000Y-64050000D03*
D22*
X144710000Y-64050000D03*
D21*
X149790000Y-64050000D03*
D23*
X147250000Y-58970000D03*
X140900000Y-61510000D03*
%TD*%
D21*
%TO.C,SW5*%
X101230000Y-83250000D03*
D22*
X106310000Y-83250000D03*
D21*
X111390000Y-83250000D03*
D23*
X108850000Y-78170000D03*
X102500000Y-80710000D03*
%TD*%
D21*
%TO.C,SW9*%
X101230000Y-102450000D03*
D22*
X106310000Y-102450000D03*
D21*
X111390000Y-102450000D03*
D23*
X108850000Y-97370000D03*
X102500000Y-99910000D03*
%TD*%
D21*
%TO.C,SW8*%
X158830000Y-83250000D03*
D22*
X163910000Y-83250000D03*
D21*
X168990000Y-83250000D03*
D23*
X166450000Y-78170000D03*
X160100000Y-80710000D03*
%TD*%
D19*
%TO.C,D3*%
X154310000Y-65114315D03*
D20*
X154310000Y-62574315D03*
%TD*%
M02*
