M48
; DRILL file {KiCad 9.0.2} date 2025-07-04T04:15:59-0700
; FORMAT={-:-/ absolute / metric / decimal}
; #@! TF.CreationDate,2025-07-04T04:15:59-07:00
; #@! TF.GenerationSoftware,Kicad,Pcbnew,9.0.2
; #@! TF.FileFunction,MixedPlating,1,2
FMAT,2
METRIC
; #@! TA.AperFunction,Plated,PTH,ViaDrill
T1C0.300
; #@! TA.AperFunction,Plated,PTH,ComponentDrill
T2C0.800
; #@! TA.AperFunction,Plated,PTH,ComponentDrill
T3C0.889
; #@! TA.AperFunction,Plated,PTH,ComponentDrill
T4C1.000
; #@! TA.AperFunction,Plated,PTH,ComponentDrill
T5C1.500
; #@! TA.AperFunction,Plated,PTH,ComponentDrill
T6C2.600
; #@! TA.AperFunction,NonPlated,NPTH,ComponentDrill
T7C1.700
; #@! TA.AperFunction,NonPlated,NPTH,ComponentDrill
T8C4.000
%
G90
G05
T1
X164.4Y-73.0
X168.0Y-69.1
X168.4Y-73.0
X175.5Y-78.1
X182.1Y-70.5
X189.4Y-69.2
X197.4Y-60.9
X198.1Y-57.7
T2
X115.8Y-62.574
X115.8Y-65.114
X115.8Y-81.774
X115.8Y-84.314
X115.9Y-99.974
X115.9Y-102.514
X135.1Y-81.824
X135.1Y-84.364
X135.1Y-99.674
X135.1Y-102.214
X135.2Y-62.8
X135.2Y-65.34
X154.3Y-82.174
X154.3Y-84.714
X154.3Y-99.674
X154.3Y-102.214
X154.31Y-62.574
X154.31Y-65.114
X173.4Y-76.0
X173.4Y-78.54
X173.49Y-62.6
X173.49Y-65.14
X173.5Y-101.014
X173.5Y-103.554
T3
X178.88Y-57.548
X178.88Y-60.088
X178.88Y-62.628
X178.88Y-65.168
X178.88Y-67.709
X178.88Y-70.248
X178.88Y-72.788
X194.12Y-57.548
X194.12Y-60.088
X194.12Y-62.628
X194.12Y-65.168
X194.12Y-67.709
X194.12Y-70.248
X194.12Y-72.788
T4
X177.9Y-81.5
X177.9Y-84.04
X177.9Y-86.58
X177.9Y-89.12
X200.0Y-62.6
X200.0Y-65.1
X200.0Y-67.6
X214.5Y-62.6
X214.5Y-67.6
T5
X102.5Y-61.51
X102.5Y-80.71
X102.5Y-99.91
X108.85Y-58.97
X108.85Y-78.17
X108.85Y-97.37
X121.7Y-61.51
X121.7Y-80.71
X121.7Y-99.91
X128.05Y-58.97
X128.05Y-78.17
X128.05Y-97.37
X140.9Y-61.51
X140.9Y-80.71
X140.9Y-99.91
X147.25Y-58.97
X147.25Y-78.17
X147.25Y-97.37
X160.1Y-61.51
X160.1Y-80.71
X160.1Y-99.91
X166.45Y-58.97
X166.45Y-78.17
X166.45Y-97.37
T6
X207.5Y-59.5
X207.5Y-70.7
T7
X101.23Y-64.05
X101.23Y-83.25
X101.23Y-102.45
X111.39Y-64.05
X111.39Y-83.25
X111.39Y-102.45
X120.43Y-64.05
X120.43Y-83.25
X120.43Y-102.45
X130.59Y-64.05
X130.59Y-83.25
X130.59Y-102.45
X139.63Y-64.05
X139.63Y-83.25
X139.63Y-102.45
X149.79Y-64.05
X149.79Y-83.25
X149.79Y-102.45
X158.83Y-64.05
X158.83Y-83.25
X158.83Y-102.45
X168.99Y-64.05
X168.99Y-83.25
X168.99Y-102.45
T8
X106.31Y-64.05
X106.31Y-83.25
X106.31Y-102.45
X125.51Y-64.05
X125.51Y-83.25
X125.51Y-102.45
X144.71Y-64.05
X144.71Y-83.25
X144.71Y-102.45
X163.91Y-64.05
X163.91Y-83.25
X163.91Y-102.45
M30
